<?xml version="1.0" encoding="UTF-8"?>
<svg id="Layer_1" xmlns="http://www.w3.org/2000/svg" version="1.1" viewBox="0 0 133 40">
  <!-- Generator: Adobe Illustrator 29.0.1, SVG Export Plug-In . SVG Version: 2.1.0 Build 192)  -->
  <defs>
    <style>
      .st0 {
        fill: #e21836;
      }

      .st1 {
        fill: #bbbdbf;
      }
    </style>
  </defs>
  <path class="st0" d="M30.1,15.7h4.5s1-3.4,1.1-3.7c.2-.1,9.5-5.4,9.5-5.4l1-3.2h-4.5s-.4,1.4-.5,1.6c-.2.1-6.8,3.8-7,4-.2-.2-4.1-3.5-4.4-3.8.1-.4.5-1.8.5-1.8h-4.5l-.9,3.1s6,5.2,6.3,5.5c-.2.5-1.1,3.8-1.1,3.8Z"/>
  <path class="st0" d="M68,10.7l-1.5,5h20.4l1-3.3h-15.5c1-.4,6.8-2.9,6.8-2.9,0,0-4.6-2.6-5.3-3h15.7l1-3.3h-20.4l-1.5,4.9s1.4.8,2.2,1.2c-.9.4-2.9,1.2-2.9,1.2"/>
  <path class="st0" d="M8.2,3.4H3.7L0,15.7h4.5l3.7-12.3Z"/>
  <path class="st0" d="M23.6,3.4h-4.1s-1.2,4.1-1.4,4.5H8l-1,3.3h10.2c-.3.8-1.4,4.5-1.4,4.5h4.5l3.7-12.3h-.4Z"/>
  <path class="st0" d="M51.3,6.6h11.4c0,.2-.2.8-.3,1-.2,0-3.7,1.6-3.8,1.6h-6.9l-1,3.3h8.6l7-2.9,1.9-6.2h-20.4l-3.7,12.3h4.5l2.7-9.1Z"/>
  <path class="st0" d="M90.2,11.6l-1.2,4.1h4.5s.8-2.6.9-3.1c-1.4-.4-2.7-.7-4.2-1Z"/>
  <path class="st0" d="M104.7,12.3c-4.5-1.5-9.2-2.4-13.9-2.5l1.9-6.5h20.4l-1.9,6.3-6.5,2.6ZM96.2,6.6c0,.2-.2.6-.4,1.2h0c-.2.6-.3,1.2-.4,1.5h8.3l.6-.3c1-.4,2.7-1.2,2.9-1.2,0-.1,0-.3.2-.6l.2-.6h-11.4Z"/>
  <path class="st1" d="M133,40c-3.1-9.1-7.7-15.5-12.9-20.1,4.7-4.6,7.9-10.8,8.5-19.2,0,0-1.9,8.3-12.2,16.3-15.3-10.4-33.6-7.5-33.6-7.5,10.6.8,20.9,4.2,29.8,10.1-9.6,6.1-24.9,11.4-49,11.6,0,0,34.4,5.2,53.2-8.6,6.4,4.8,11.8,10.6,16.2,17.3Z"/>
</svg>