<svg viewBox="0 0 27.56 27.56" xmlns="http://www.w3.org/2000/svg" data-name="Icon_03_Price Guarantee" id="Icon_03_Price_Guarantee">
  <defs>
    <style>
      .cls-1 {
        fill: #353535;
      }

      .cls-1, .cls-2 {
        stroke-width: 0px;
      }

      .cls-2 {
        fill: #e6e7e8;
      }
    </style>
  </defs>
  <circle r="10.48" cy="13.78" cx="13.78" class="cls-2"></circle>
  <path d="M25.49,13.6l2.06-2.73-2.94-1.73.85-3.32-3.45-.55-.48-3.39-3.32.85-1.72-2.91-2.75,2.03L11.06-.19l-1.7,2.91-3.38-.85-.45,3.35-3.38.51.81,3.45L.07,10.87l1.99,2.64L0,16.24l2.96,1.75-.87,3.3,3.47.57.48,3.39,3.32-.87,1.72,2.93,2.75-2.05,2.69,2.05,1.7-2.91,3.35.84.46-3.35,3.39-.51-.81-3.32,2.88-1.82-2-2.64ZM13.82,22.52c-2.2,0-4.2-.79-5.75-2.12-.25-.22-.51-.45-.73-.7-.12-.12-.22-.25-.33-.37-1.12-1.27-1.87-2.87-2.09-4.63-.06-.39-.09-.78-.09-1.18,0-.6.06-1.18.18-1.75.81-4.08,4.41-7.16,8.74-7.16,1.37,0,2.67.31,3.83.9.01,0,.01.01.01.01.16.07.33.15.48.24.25.12.51.27.75.45.22.16.46.33.69.51.15.12.3.25.43.4.81.73,1.46,1.64,1.93,2.65.09.18.18.36.24.55.27.66.46,1.36.55,2.09.06.39.09.79.09,1.2,0,.6-.06,1.18-.18,1.75-.81,4.09-4.42,7.17-8.74,7.17Z" class="cls-1"></path>
  <path d="M12.69,10.56v2.32c0,.74-.55,1.45-1.65,1.45h-1.51c-1.09,0-1.65-.7-1.65-1.45v-2.32c0-.74.55-1.45,1.65-1.45h1.51c1.09,0,1.65.7,1.65,1.45ZM10.89,12.43v-1.43c0-.18-.09-.34-.36-.34h-.5c-.26,0-.35.16-.35.34v1.43c0,.18.09.34.35.34h.5c.27,0,.36-.16.36-.34ZM16.74,8.96l1.09.96-7.02,8.67-1.09-.96,7.02-8.67ZM19.67,14.8v2.32c0,.74-.55,1.45-1.65,1.45h-1.51c-1.09,0-1.65-.7-1.65-1.45v-2.32c0-.74.55-1.45,1.65-1.45h1.51c1.09,0,1.65.7,1.65,1.45ZM17.88,16.67v-1.43c0-.18-.09-.34-.37-.34h-.5c-.26,0-.35.16-.35.34v1.43c0,.18.09.34.35.34h.5c.27,0,.37-.16.37-.34Z" class="cls-1"></path>
</svg>