<?xml version="1.0" standalone="no"?>
<!DOCTYPE svg PUBLIC "-//W3C//DTD SVG 1.1//EN" "http://www.w3.org/Graphics/SVG/1.1/DTD/svg11.dtd" >
<svg xmlns="http://www.w3.org/2000/svg" xmlns:xlink="http://www.w3.org/1999/xlink" version="1.1">
<metadata>
Created by FontForge 20201107 at Wed Jan  8 01:16:17 2025
 By 
Copyright (c) 2012 by Rene Bieder. All rights reserved.
</metadata>
<defs>
<font id="RBNo2.1b-Black" horiz-adv-x="841" >
  <font-face 
    font-family="RBNo2.1b Black"
    font-weight="450"
    font-stretch="normal"
    units-per-em="2048"
    panose-1="2 0 0 0 0 0 0 0 0 0"
    ascent="1536"
    descent="-512"
    x-height="1202"
    cap-height="1434"
    bbox="-119 -512 1870 1948"
    underline-thickness="102"
    underline-position="-204"
    unicode-range="U+0020-FB02"
  />
<missing-glyph horiz-adv-x="987" 
d="M0 0v1434h987v-1434h-987zM541 717l360 -582v1161zM444 717l-358 579v-1161zM494 641l-344 -555h688zM150 1350l344 -557l344 557h-688z" />
    <glyph glyph-name="fi" unicode="fi" horiz-adv-x="952" 
d="M627 1536v-260h-189q-35 0 -35 -37v-37h508v-1202h-311v940h-197v-940h-311v940h-80v262h80v43q0 66 6.5 111.5t24 78.5t41 52.5t65.5 30.5t89 14.5t120 3.5h189z" />
    <glyph glyph-name="fl" unicode="fl" horiz-adv-x="952" 
d="M438 1536h473v-1536h-311v1284h-162q-35 0 -35 -37v-45h123v-262h-123v-940h-311v940h-80v262h80v43q0 66 6.5 111.5t24 78.5t41 52.5t65.5 30.5t89 14.5t120 3.5z" />
    <glyph glyph-name=".notdef" horiz-adv-x="987" 
d="M0 0v1434h987v-1434h-987zM541 717l360 -582v1161zM444 717l-358 579v-1161zM494 641l-344 -555h688zM150 1350l344 -557l344 557h-688z" />
    <glyph glyph-name=".null" horiz-adv-x="0" 
 />
    <glyph glyph-name="nonmarkingreturn" horiz-adv-x="682" 
 />
    <glyph glyph-name="space" unicode=" " horiz-adv-x="268" 
 />
    <glyph glyph-name="exclam" unicode="!" horiz-adv-x="419" 
d="M131 442l-76 588v404h310v-404l-76 -588h-158zM72 0v319h276v-319h-276z" />
    <glyph glyph-name="quotedbl" unicode="&#x22;" horiz-adv-x="712" 
d="M57 829l-8 605h277v-230l-78 -375h-191zM395 829l-8 605h277v-230l-78 -375h-191z" />
    <glyph glyph-name="numbersign" unicode="#" horiz-adv-x="1249" 
d="M131 887l37 227h149l54 320h243l-53 -320h230l53 320h243l-53 -320h187l-37 -227h-191l-61 -379h184l-39 -225h-186l-47 -283h-242l47 283h-231l-47 -283h-240l45 283h-149l36 225h152l64 379h-148zM520 887l-61 -379h229l62 379h-230z" />
    <glyph glyph-name="dollar" unicode="$" horiz-adv-x="882" 
d="M340 -170v164l-289 6v270h402q34 0 49.5 13t15.5 53v115q0 19 -3.5 33t-6.5 22.5t-16 17t-19 12t-30 13t-35 14.5l-142 51q-43 17 -65 27t-53.5 28t-47.5 37.5t-33 49t-23.5 69t-6.5 90.5v179q0 100 12 161t46.5 103.5t92.5 60.5t152 21v143h209v-143l248 -6v-271h-369
q-34 0 -48.5 -12.5t-14.5 -52.5v-68q0 -67 21.5 -88t113.5 -55l127 -45q32 -12 48.5 -18.5t42 -18t38 -22t30 -26.5t26 -35t17 -45t12 -58t3.5 -72v-207q0 -98 -12 -159t-45.5 -103.5t-90 -61t-147.5 -22.5v-164h-209z" />
    <glyph glyph-name="percent" unicode="%" horiz-adv-x="1361" 
d="M268 1440h62q128 0 173.5 -51t45.5 -168v-404q0 -119 -45.5 -171t-173.5 -52h-62q-128 0 -174.5 52t-46.5 171v404q0 116 46.5 167.5t174.5 51.5zM1032 838h62q128 0 174.5 -51.5t46.5 -168.5v-405q0 -117 -46.5 -169t-174.5 -52h-62q-127 0 -173 52t-46 169v405
q0 117 45.5 168.5t173.5 51.5zM1083 684h-41q-20 0 -28 -10t-8 -33v-451q0 -23 8 -31.5t28 -8.5h41q21 0 29 8.5t8 31.5v451q0 23 -8.5 33t-28.5 10zM319 1286h-40q-21 0 -29 -9.5t-8 -33.5v-450q0 -23 8.5 -32t28.5 -9h40q20 0 28.5 9t8.5 32v450q0 24 -8 33.5t-29 9.5z
M332 0l504 1434h192l-506 -1434h-190z" />
    <glyph glyph-name="ampersand" unicode="&#x26;" horiz-adv-x="1028" 
d="M694 1411v-266h-215q-31 0 -46 -14t-15 -52v-143q0 -36 13 -50t40 -16h535v-211l-162 -28v-631h-408q-91 0 -140.5 2.5t-100.5 14.5t-73.5 32.5t-42 61t-25 95.5t-5.5 140v156q0 101 21 155.5t64 76t124 26.5q-96 10 -132 65t-36 189v53q0 73 6.5 123.5t24 90.5t44 63.5
t72 39.5t102.5 21.5t140 5.5h215zM522 262v365h-84q-31 0 -47 -15t-16 -53v-233q0 -38 14.5 -51t46.5 -13h86z" />
    <glyph glyph-name="quotesingle" unicode="'" horiz-adv-x="372" 
d="M57 829l-8 605h277v-230l-78 -375h-191z" />
    <glyph glyph-name="parenleft" unicode="(" horiz-adv-x="464" 
d="M326 1180v-1082q0 -73 3 -106.5t15 -65.5q4 -12 13 -27.5t16.5 -27t23 -33.5t21.5 -31l-111 -94q-118 84 -176 150q-82 91 -82 235v1082q0 142 82 233q52 62 176 150l111 -95q-63 -87 -74 -118q-18 -48 -18 -170z" />
    <glyph glyph-name="parenright" unicode=")" horiz-adv-x="464" 
d="M137 98v1082q0 122 -18 170q-11 31 -74 118l111 95q124 -88 176 -150q82 -91 82 -233v-1082q0 -144 -82 -235q-58 -66 -176 -150l-111 94q6 9 21.5 31t23 33.5t16.5 27t13 27.5q12 32 15 65.5t3 106.5z" />
    <glyph glyph-name="asterisk" unicode="*" horiz-adv-x="735" 
d="M635 825l-107 64l-120 131l28 49l172 -45l107 -61zM299 1081l-172 45l-107 64l80 137l107 -63l121 -131zM328 1020l-121 -131l-107 -64l-80 138l107 61l172 45zM715 1190l-107 -64l-172 -45l-28 52l120 131l107 63zM289 719v123l51 172h55l51 -172v-123h-157zM340 1139
l-51 172v123h157v-123l-51 -172h-55z" />
    <glyph glyph-name="plus" unicode="+" horiz-adv-x="731" 
d="M29 629v213h229v223h213v-223h234v-213h-234v-228h-213v228h-229z" />
    <glyph glyph-name="comma" unicode="," horiz-adv-x="372" 
d="M47 0v317h279v-260q0 -88 -32 -158t-114 -182l-112 60q56 116 65 149q4 15 4 74h-90z" />
    <glyph glyph-name="hyphen" unicode="-" horiz-adv-x="604" 
d="M29 489v254h546v-254h-546z" />
    <glyph glyph-name="period" unicode="." horiz-adv-x="387" 
d="M55 0v317h277v-317h-277z" />
    <glyph glyph-name="slash" unicode="/" horiz-adv-x="546" 
d="M16 -66l316 1582h192l-317 -1582h-191z" />
    <glyph glyph-name="zero" unicode="0" horiz-adv-x="903" 
d="M432 1442h39q82 0 140 -6.5t103 -23.5t72.5 -42t45 -67t24 -93.5t6.5 -124.5v-737q0 -110 -15.5 -175.5t-61 -108t-118.5 -57.5t-196 -15h-39q-122 0 -196 16t-118.5 59t-60.5 108t-16 173v737q0 73 6.5 124.5t24 93.5t45 67t72.5 42t103 23.5t140 6.5zM432 258h39
q34 0 49 13t15 53v786q0 40 -15 53t-49 13h-39q-34 0 -48.5 -13t-14.5 -53v-786q0 -40 14.5 -53t48.5 -13z" />
    <glyph glyph-name="one" unicode="1" horiz-adv-x="792" 
d="M-18 1288l337 146h259v-1172h202v-262h-719v262h193v852l-221 -47z" />
    <glyph glyph-name="two" unicode="2" horiz-adv-x="811" 
d="M31 0v383q0 91 29.5 157t86.5 122l207 192q68 58 91.5 108t23.5 119v11q0 40 -15 52.5t-51 12.5h-358v277q365 8 406 8q84 2 142 -12t93.5 -39t55 -71.5t26 -97.5t6.5 -128v-50q0 -118 -34.5 -197t-112.5 -149l-152 -135q-19 -20 -49.5 -47.5t-43 -40.5t-23.5 -34.5
t-11 -45.5v-133h432v-262h-749z" />
    <glyph glyph-name="three" unicode="3" horiz-adv-x="778" 
d="M150 596v262h229q28 0 40.5 13.5t12.5 48.5v170q0 40 -15 53.5t-48 13.5h-344v277q337 8 372 8q107 4 173 -9.5t109.5 -53.5t60 -107.5t16.5 -177.5v-99q0 -140 -38 -194t-145 -66q109 -9 146 -59t37 -195v-141q0 -82 -10.5 -141.5t-31 -98t-51 -62t-70.5 -33.5t-89 -13
t-107 0l-379 8v260h351q33 0 48 14t15 54v204q0 35 -12.5 48.5t-40.5 15.5h-229z" />
    <glyph glyph-name="four" unicode="4" horiz-adv-x="1005" 
d="M0 512l326 922h479v-895h178v-256h-178v-283h-322v283h-483v229zM473 1165l-145 -626h155v626h-10z" />
    <glyph glyph-name="five" unicode="5" horiz-adv-x="804" 
d="M334 1155v-235h115q79 0 125 -3.5t88.5 -17t62.5 -35t35.5 -64.5t19.5 -98.5t4 -142.5v-219q0 -52 -2 -91t-7 -73.5t-13 -58t-20.5 -45t-29.5 -33.5t-39 -23t-50 -14.5t-62.5 -7.5t-76.5 -2.5t-91 0.5l-358 8v262h360q19 0 29 1.5t19.5 7t13.5 18t4 33.5v272q0 35 -14 48
t-44 13h-368l16 779h688v-279h-405z" />
    <glyph glyph-name="six" unicode="6" horiz-adv-x="837" 
d="M438 932h43q56 0 92.5 -2t73.5 -8.5t59.5 -17.5t43.5 -31.5t32 -47.5t20 -67.5t12 -90.5t3 -118v-209q0 -113 -14.5 -176.5t-59 -104.5t-116 -54t-197.5 -13h-22q-120 0 -195.5 19.5t-117 65t-56 106t-14.5 157.5v735q0 76 6.5 128.5t23 96t44 70t72 44t103.5 24t142 4.5
l311 -6v-281h-326q-33 0 -46 -12.5t-13 -52.5v-181q36 23 96 23zM430 668h-41q-24 0 -35.5 -6.5t-11.5 -26.5v-316q0 -39 15 -52t49 -13h24q34 0 49 13t15 52v279q0 42 -15 56t-49 14z" />
    <glyph glyph-name="seven" unicode="7" horiz-adv-x="759" 
d="M10 1155v279h731v-291l-286 -1143h-344l284 1110v45h-385z" />
    <glyph glyph-name="eight" unicode="8" horiz-adv-x="884" 
d="M432 -8q-84 0 -142.5 5.5t-107 20.5t-77.5 38.5t-49 63.5t-28 92t-8 126v141q0 79 9 126t33.5 77t62.5 41.5t102 15.5q-95 12 -132 60.5t-38 165.5v127q0 75 5.5 125.5t22 92t42 65.5t70 40t101 21.5t140.5 5.5h15q126 0 198 -13.5t117.5 -54.5t60.5 -105.5t15 -176.5
v-93q0 -140 -37 -194t-141 -66q81 -5 122 -28t58.5 -76t17.5 -156v-141q0 -74 -8 -126t-28 -92t-49.5 -64t-77.5 -38.5t-106 -20t-142 -5.5h-21zM473 258q35 0 51.5 11t16.5 50v213q0 39 -15.5 52.5t-50.5 13.5h-74q-30 -2 -43.5 -15t-13.5 -51v-213q0 -39 16 -50t52 -11h61
zM457 1176h-33q-34 0 -49 -12t-15 -52v-186q0 -37 14 -49.5t46 -12.5h43q32 2 45.5 13.5t13.5 48.5v186q0 40 -14.5 52t-50.5 12z" />
    <glyph glyph-name="nine" unicode="9" horiz-adv-x="854" 
d="M399 483h-39q-75 0 -120 3.5t-87.5 17.5t-64.5 38t-39.5 68.5t-23 105t-5.5 150.5v228q0 75 6.5 126t24 91.5t44.5 64.5t72.5 39.5t103 21t141.5 5.5h18q120 0 195.5 -19.5t117 -65t56 -106t14.5 -157.5v-736q0 -116 -13 -181.5t-54 -111t-113 -60.5t-195 -13l-356 8v262
h350q34 0 49 14.5t15 55.5v172q-32 -21 -97 -21zM385 745h64q30 0 38.5 10t8.5 48v313q0 39 -15 51.5t-49 12.5h-47q-34 0 -48.5 -12.5t-14.5 -51.5v-303q0 -40 15 -54t48 -14z" />
    <glyph glyph-name="colon" unicode=":" horiz-adv-x="372" 
d="M49 0v317h277v-317h-277zM49 885v317h277v-317h-277z" />
    <glyph glyph-name="semicolon" unicode=";" horiz-adv-x="372" 
d="M47 0v317h279v-260q0 -88 -32 -158t-114 -182l-112 60q56 116 65 149q4 15 4 74h-90zM49 885v317h277v-317h-277z" />
    <glyph glyph-name="less" unicode="&#x3c;" horiz-adv-x="698" 
d="M670 887l-340 -144l340 -141v-256l-641 287v221l641 287v-254z" />
    <glyph glyph-name="equal" unicode="=" horiz-adv-x="731" 
d="M29 791v204h676v-204h-676zM29 463v205h676v-205h-676z" />
    <glyph glyph-name="greater" unicode="&#x3e;" horiz-adv-x="698" 
d="M369 743l-340 144v254l641 -287v-221l-641 -287v256z" />
    <glyph glyph-name="question" unicode="?" horiz-adv-x="770" 
d="M45 1434q157 8 311 8q110 0 178 -14.5t114 -53.5t64.5 -106t18.5 -174v-115q0 -81 -31.5 -133.5t-115.5 -116.5q-25 -19 -60.5 -46t-48 -37t-30.5 -26.5t-23 -28t-9.5 -27t-4.5 -36.5v-88h-246v172q0 18 3 35t5.5 29t11.5 26t13.5 21.5t18.5 22t19 19t24 21t24 21.5
q16 14 43.5 37.5t38 33t26.5 27t21.5 30t10.5 30.5t5 39v112q0 39 -15 51.5t-49 12.5h-317v254zM147 0v319h277v-319h-277z" />
    <glyph glyph-name="at" unicode="@" horiz-adv-x="1136" 
d="M578 1106q68 0 117 -6.5t82 -23t53.5 -36t31 -52.5t14 -66.5t3.5 -83.5v-602q0 -54 8.5 -70t44.5 -16q57 0 71.5 22.5t14.5 79.5v737q0 46 -4 79t-17.5 67.5t-37.5 55.5t-65.5 34.5t-100.5 13.5h-447q-59 0 -101.5 -13.5t-66.5 -34.5t-37.5 -55.5t-17.5 -67.5t-4 -79
v-811q0 -46 4 -78.5t17.5 -67t37.5 -56t66.5 -35t101.5 -13.5h598v-67h-598q-166 0 -235.5 72t-69.5 245v811q0 173 69.5 245.5t235.5 72.5h447q166 0 234.5 -72.5t68.5 -245.5v-753q0 -49 -9.5 -84t-24 -54t-38 -29.5t-43.5 -13t-49 -2.5q-141 0 -190.5 11t-82.5 61
l-10 -10l-10.5 -10.5t-10.5 -9t-13 -9t-14.5 -7t-18 -6.5t-21 -3.5t-26.5 -1.5h-29q-135 0 -200.5 52.5t-65.5 192.5v213q0 144 52.5 196t180.5 52h143v53q0 38 -10 50t-33 12h-270v209q238 8 275 8zM553 297h12q23 0 51 16v273h-63q-29 0 -38 -19.5t-9 -58.5v-152
q0 -33 10 -46t37 -13z" />
    <glyph glyph-name="A" unicode="A" horiz-adv-x="935" 
d="M725 1434l205 -1434h-326l-31 242h-211l-28 -242h-328l205 1434h514zM463 1159l-78 -631h166l-80 631h-8z" />
    <glyph glyph-name="B" unicode="B" horiz-adv-x="874" 
d="M43 0v1434h408q83 0 140 -6t102 -21.5t71.5 -39.5t44 -64.5t23.5 -91t6 -124.5v-100q0 -138 -36.5 -192t-139.5 -64q105 -9 141.5 -61.5t36.5 -194.5v-129q0 -85 -5.5 -140t-25 -95.5t-42 -61t-73.5 -32.5t-100.5 -14.5t-140.5 -2.5h-410zM371 604v-338h82
q32 0 46.5 12.5t14.5 49.5v215q0 36 -15.5 48.5t-47.5 12.5h-80zM371 1167v-323h82q31 0 44 12.5t13 48.5v201q0 36 -14 48.5t-45 12.5h-80z" />
    <glyph glyph-name="C" unicode="C" horiz-adv-x="843" 
d="M432 1176q-33 0 -48 -14t-15 -54v-782q0 -40 15 -54t48 -14h385v-258q-324 -4 -385 -4q-84 0 -142 5.5t-103.5 21.5t-72 39.5t-44 64t-23.5 90.5t-6 123v754q0 73 6.5 124t24.5 91t44.5 63.5t72.5 39t103 21t140 5.5l385 -4v-260z" />
    <glyph glyph-name="D" unicode="D" horiz-adv-x="888" 
d="M43 0v1434h424q124 0 196 -14t116.5 -55.5t59.5 -105t15 -172.5v-741q0 -109 -15 -172.5t-59.5 -104.5t-116.5 -55t-196 -14h-424zM467 1167h-96v-901h96q32 0 46.5 13t14.5 51v778q0 36 -14.5 47.5t-46.5 11.5z" />
    <glyph glyph-name="E" unicode="E" horiz-adv-x="759" 
d="M375 594v-315h354v-279h-680v1434h680v-279h-354v-283h317v-278h-317z" />
    <glyph glyph-name="F" unicode="F" horiz-adv-x="735" 
d="M375 559v-559h-326v1434h670v-279h-344v-317h307v-279h-307z" />
    <glyph glyph-name="G" unicode="G" horiz-adv-x="897" 
d="M432 1442l344 -8v-258h-344q-34 0 -48.5 -13t-14.5 -53v-791q0 -40 14 -50.5t49 -10.5h35q35 0 49 10.5t14 50.5v238h-92v266h420v-483q0 -73 -6.5 -123.5t-24 -91.5t-44 -65t-72 -40t-103.5 -22t-141 -6h-35q-124 0 -196.5 14t-118 55t-61 105t-15.5 174v754
q0 88 10.5 146t35 100t70.5 64t111 31t164 7z" />
    <glyph glyph-name="H" unicode="H" horiz-adv-x="911" 
d="M49 0v1434h326v-562h164v562h325v-1434h-325v586h-164v-586h-326z" />
    <glyph glyph-name="I" unicode="I" horiz-adv-x="423" 
d="M49 0v1434h326v-1434h-326z" />
    <glyph glyph-name="J" unicode="J" horiz-adv-x="608" 
d="M8 0v283h170q32 0 47 12.5t15 48.5v1090h325v-1033q0 -61 -2 -107.5t-7.5 -87.5t-13 -70t-21.5 -53t-28.5 -40t-39.5 -27.5t-49.5 -17t-62 -8t-74.5 -2t-89 3.5z" />
    <glyph glyph-name="K" unicode="K" horiz-adv-x="911" 
d="M375 526v-526h-326v1434h326v-545h41l125 545h356l-188 -727l196 -707h-360l-121 526h-49z" />
    <glyph glyph-name="L" unicode="L" horiz-adv-x="706" 
d="M49 0v1434h326v-1155h323v-279h-649z" />
    <glyph glyph-name="M" unicode="M" horiz-adv-x="1200" 
d="M346 831l16 -831h-313v1434h410l139 -748h2l141 748h410v-1434h-315l14 831h-2l-131 -831h-234l-135 831h-2z" />
    <glyph glyph-name="N" unicode="N" horiz-adv-x="911" 
d="M49 1434h318l196 -678h2v678h299v-1434h-334l-165 631h-3v-631h-313v1434z" />
    <glyph glyph-name="O" unicode="O" horiz-adv-x="903" 
d="M432 1442h39q124 0 196.5 -14t118 -54.5t61 -105t15.5 -174.5v-754q0 -110 -15.5 -174t-61 -105t-118 -55t-196.5 -14h-39q-163 0 -245 30.5t-114 102.5t-32 215v754q0 110 15.5 174.5t61 105t118 54.5t196.5 14zM434 258h35q34 0 50 13t16 53v786q0 40 -16 53t-50 13
h-35q-34 0 -49.5 -13t-15.5 -53v-786q0 -40 15.5 -53t49.5 -13z" />
    <glyph glyph-name="P" unicode="P" horiz-adv-x="870" 
d="M43 0v1434h422q122 0 194.5 -14.5t116.5 -56t59 -103.5t15 -168v-306q0 -72 -6 -121.5t-23.5 -89.5t-44 -64t-71 -39.5t-101.5 -21.5t-139 -6h-94v-444h-328zM463 1167h-92v-456h92q31 0 45 11.5t14 45.5v340q0 36 -14 47.5t-45 11.5z" />
    <glyph glyph-name="Q" unicode="Q" horiz-adv-x="903" 
d="M432 1442h39q124 0 196.5 -14t118 -54.5t61 -105t15.5 -174.5v-754q0 -132 -26.5 -203.5t-94.5 -105.5l78 -209h-244l-98 170h-6h-39q-163 0 -245 30.5t-114 102.5t-32 215v754q0 110 15.5 174.5t61 105t118 54.5t196.5 14zM434 258h35q34 0 50 13t16 53v786q0 40 -16 53
t-50 13h-35q-34 0 -49.5 -13t-15.5 -53v-786q0 -40 15.5 -53t49.5 -13z" />
    <glyph glyph-name="R" unicode="R" horiz-adv-x="878" 
d="M43 0v1434h426q82 0 139 -6t101.5 -21.5t71 -39.5t44 -64t23.5 -89.5t6 -121.5v-162q0 -99 -18.5 -152t-56 -75t-109.5 -27q107 -14 145.5 -70.5t38.5 -202.5v-403h-328v440q0 40 -15.5 67t-43.5 28h-96v-535h-328zM371 1167v-381h98q30 0 43.5 12t13.5 48v264
q0 35 -14 46t-45 11h-96z" />
    <glyph glyph-name="S" unicode="S" horiz-adv-x="864" 
d="M420 1442l368 -8v-271h-368q-34 0 -49 -12.5t-15 -52.5v-68q0 -36 3.5 -55t22 -35t38.5 -25t72 -28l126 -45q43 -16 64 -24.5t51.5 -25.5t45 -35.5t30 -48t21.5 -69t6 -92.5v-207q0 -110 -15 -174.5t-60 -106.5t-118.5 -55.5t-198.5 -11.5l-401 8v270h401q34 0 50 13
t16 53v115q0 19 -3.5 33t-6.5 22.5t-16 17t-19.5 12t-30.5 13t-35 14.5l-141 51q-43 17 -65 27t-53.5 28t-47.5 37.5t-33 49t-23.5 69t-6.5 90.5v179q0 111 15 175.5t60 106t118.5 55t197.5 11.5z" />
    <glyph glyph-name="T" unicode="T" horiz-adv-x="823" 
d="M575 1155v-1155h-327v1155h-242v279h811v-279h-242z" />
    <glyph glyph-name="U" unicode="U" horiz-adv-x="903" 
d="M41 1434h328v-1108q0 -42 12 -55t45 -13h51q32 0 45 13.5t13 54.5v1108h327v-1094q0 -110 -15.5 -174t-61 -105t-118 -55t-196.5 -14h-39q-124 0 -196.5 14t-118 55t-61 105t-15.5 174v1094z" />
    <glyph glyph-name="V" unicode="V" horiz-adv-x="989" 
d="M977 1434l-225 -1434h-514l-228 1434h328l151 -1072h7l155 1072h326z" />
    <glyph glyph-name="W" unicode="W" horiz-adv-x="1337" 
d="M10 1434h328l80 -992h2l100 992h297l101 -992h2l79 992h330l-139 -1434h-461l-59 666h-2l-60 -666h-461z" />
    <glyph glyph-name="X" unicode="X" horiz-adv-x="907" 
d="M897 1434l-238 -717l242 -717h-328l-120 422l-119 -422h-328l242 717l-238 717h326l117 -420l116 420h328z" />
    <glyph glyph-name="Y" unicode="Y" horiz-adv-x="921" 
d="M297 0v526l-291 908h328l125 -527l129 527h327l-290 -908v-526h-328z" />
    <glyph glyph-name="Z" unicode="Z" horiz-adv-x="761" 
d="M29 1153v281h710v-279l-346 -876h346v-279h-714v281l366 872h-362z" />
    <glyph glyph-name="bracketleft" unicode="[" horiz-adv-x="595" 
d="M332 1290v-1239h243v-223h-518v1683h518v-221h-243z" />
    <glyph glyph-name="backslash" unicode="\" horiz-adv-x="546" 
d="M215 1516l317 -1582h-192l-317 1582h192z" />
    <glyph glyph-name="bracketright" unicode="]" horiz-adv-x="595" 
d="M262 51v1239h-244v221h519v-1683h-519v223h244z" />
    <glyph glyph-name="asciicircum" unicode="^" horiz-adv-x="903" 
d="M586 922l-133 290l-136 -290h-239l262 512h223l262 -512h-239z" />
    <glyph glyph-name="underscore" unicode="_" horiz-adv-x="940" 
d="M-10 -279v213h960v-213h-960z" />
    <glyph glyph-name="grave" unicode="`" horiz-adv-x="1024" 
d="M584 1485l114 -223h-206l-218 223h310z" />
    <glyph glyph-name="a" unicode="a" horiz-adv-x="827" 
d="M113 954v248q200 8 321 10q79 1 136 -6.5t95.5 -26.5t62 -42.5t36 -62.5t16.5 -78t4 -97v-899q-247 -8 -413 -8h-39q-77 0 -129 13t-90 44.5t-56 88t-18 141.5v251q0 168 58 227.5t208 59.5h170v76q0 41 -10 51t-37 10h-315zM348 518v-190q0 -37 10 -51.5t41 -14.5h23
q47 0 53 2v334h-76q-51 0 -51 -80z" />
    <glyph glyph-name="b" unicode="b" 
d="M43 0v1487h309v-285h180q77 0 124.5 -11t81.5 -41.5t47.5 -84t13.5 -139.5v-647q0 -85 -18 -141.5t-56 -88t-90 -44.5t-129 -13h-39q-93 0 -199 2t-166 4zM436 940h-84v-678h84q30 0 41.5 15t11.5 51v549q0 36 -11.5 49.5t-41.5 13.5z" />
    <glyph glyph-name="c" unicode="c" horiz-adv-x="753" 
d="M401 954q-28 0 -38.5 -11t-10.5 -44v-596q0 -32 10.5 -43.5t38.5 -11.5h328l-2 -248q-277 -8 -326 -8q-78 -3 -136.5 4t-98 25.5t-64.5 42.5t-38.5 63t-18 79t-4.5 97v596q0 50 3 84.5t11.5 70.5t24.5 59t42.5 44.5t64.5 32.5t91.5 17t122.5 5l328 -10v-248h-328z" />
    <glyph glyph-name="d" unicode="d" 
d="M43 279v647q0 86 13.5 139.5t47 84t81 41.5t124.5 11h180v285h310v-1487q-254 -8 -424 -8h-39q-77 0 -129.5 13t-90.5 44.5t-55.5 88t-17.5 141.5zM489 262v678h-83q-32 0 -43 -13.5t-11 -49.5v-549q0 -36 11.5 -51t42.5 -15h83z" />
    <glyph glyph-name="e" unicode="e" horiz-adv-x="831" 
d="M401 1212h29q79 0 137 -8t97.5 -26.5t64.5 -42.5t38.5 -61.5t18.5 -77.5t5 -97v-479l-439 -8v-115q0 -32 10.5 -43.5t38.5 -11.5h349v-242q-193 -4 -349 -8q-94 -2 -159 10t-104.5 35t-61 64.5t-28.5 87t-7 114.5v596q0 57 4.5 97t18 77.5t38.5 61.5t64.5 42.5t97.5 26.5
t137 8zM401 961q-28 0 -38.5 -12t-10.5 -44v-246h142v246q0 32 -12 44t-40 12h-41z" />
    <glyph glyph-name="f" unicode="f" horiz-adv-x="559" 
d="M551 1202v-262h-148v-940h-311v940h-80v262h80v39q0 66 6.5 111.5t24 78.5t41 52.5t65.5 30.5t89 14.5t120 3.5q28 0 57 -2.5t43 -5.5l15 -2v-246h-115q-35 0 -35 -37v-37h148z" />
    <glyph glyph-name="g" unicode="g" 
d="M43 920q0 163 72.5 227.5t226.5 64.5h33q76 0 182 -2.5t174 -5.5l68 -2v-1161q0 -69 -4.5 -113.5t-18.5 -83.5t-37.5 -60t-65 -36t-97.5 -18.5t-138 0.5l-323 16v240h327q28 0 37.5 11t9.5 44v43h-153q-156 0 -224.5 60t-68.5 225v551zM489 354v586h-83q-32 0 -43 -13.5
t-11 -49.5v-457q0 -37 11 -51.5t43 -14.5h83z" />
    <glyph glyph-name="h" unicode="h" 
d="M487 0v877q0 36 -10.5 49.5t-42.5 13.5h-82v-940h-309v1487h309v-285h193q102 0 153.5 -21.5t75 -80t23.5 -174.5v-926h-310z" />
    <glyph glyph-name="i" unicode="i" horiz-adv-x="395" 
d="M43 0v1202h309v-1202h-309zM39 1266v211h317v-211h-317z" />
    <glyph glyph-name="j" unicode="j" horiz-adv-x="395" 
d="M125 -272l-191 159q10 13 29.5 40l26 36t19 30.5t16 37t9.5 41.5t7.5 56t1.5 71v1003h309v-1036q0 -84 -13 -145t-44.5 -110t-63.5 -82.5t-90 -86.5q-11 -9 -16 -14zM39 1266v211h317v-211h-317z" />
    <glyph glyph-name="k" unicode="k" horiz-adv-x="890" 
d="M532 0l-122 485h-58v-485h-309v1487h309v-711h56l118 426h351l-172 -573l178 -629h-351z" />
    <glyph glyph-name="l" unicode="l" horiz-adv-x="395" 
d="M43 0v1487h309v-1487h-309z" />
    <glyph glyph-name="m" unicode="m" horiz-adv-x="1277" 
d="M43 0v1202q608 10 862 10h37q155 0 224 -60.5t69 -225.5v-926h-311v877q0 36 -11 49.5t-41 13.5h-77v-940h-312v891q0 35 -5 42t-32 7h-94v-940h-309z" />
    <glyph glyph-name="n" unicode="n" 
d="M487 0v877q0 36 -10.5 49.5t-42.5 13.5h-82v-940h-309v1202q277 10 424 10h39q77 0 128.5 -12.5t89.5 -44.5t55.5 -88t17.5 -141v-926h-310z" />
    <glyph glyph-name="o" unicode="o" horiz-adv-x="837" 
d="M401 1212h37q79 0 136.5 -8t97.5 -26.5t64.5 -42.5t38 -62t18 -77.5t4.5 -96.5v-596q0 -57 -4.5 -96t-18 -77t-38 -61.5t-64.5 -42t-97.5 -26.5t-136.5 -8h-37q-79 0 -137 8t-97.5 26.5t-64.5 42t-38.5 61.5t-18 77t-4.5 96v596q0 57 4.5 97t18 77.5t38.5 61.5t64.5 42.5
t97.5 26.5t137 8zM401 248h37q28 0 38.5 11.5t10.5 43.5l2 596q0 33 -11.5 45t-39.5 12h-35q-30 0 -40.5 -12t-10.5 -45v-596q0 -32 10.5 -43.5t38.5 -11.5z" />
    <glyph glyph-name="p" unicode="p" 
d="M43 -258v1460q250 10 424 10h39q153 0 223 -64t70 -228v-641q0 -86 -13.5 -140.5t-47.5 -86t-81.5 -43t-124.5 -11.5h-38l-142 2v-258h-309zM436 940h-84v-678h84q30 0 41.5 15t11.5 51v549q0 36 -11.5 49.5t-41.5 13.5z" />
    <glyph glyph-name="q" unicode="q" 
d="M43 279v641q0 163 72.5 227.5t226.5 64.5h33q72 0 178 -2.5t176 -5.5l70 -2v-1460h-310v258q-70 -2 -127 -2h-40q-77 0 -126.5 11.5t-85.5 43t-51.5 86t-15.5 140.5zM489 262v678h-83q-32 0 -43 -13.5t-11 -49.5v-549q0 -36 11.5 -51t42.5 -15h83z" />
    <glyph glyph-name="r" unicode="r" horiz-adv-x="618" 
d="M43 0v999q0 58 22 101.5t57.5 67t74 34t79.5 10.5h27l307 -12v-248q-199 -24 -219 -26q-26 -1 -32.5 -10.5t-6.5 -36.5v-879h-309z" />
    <glyph glyph-name="s" unicode="s" horiz-adv-x="798" 
d="M393 1212l318 -10v-248h-318q-29 0 -40 -10t-11 -41v-49q0 -38 13.5 -51.5t68.5 -36.5l158 -53q100 -35 142 -87.5t42 -158.5v-150q0 -58 -4.5 -98t-17 -80.5t-37 -65.5t-64 -45t-98.5 -28.5t-139 -7.5l-359 8v250h359q27 0 39 15.5t12 49.5v91q0 13 -3 22t-5 14.5
t-12.5 12t-15.5 8.5t-23.5 9.5t-26.5 10.5l-154 60q-29 12 -44 18.5t-38 19t-35 24t-27 30.5t-22.5 40t-12.5 51t-5 67v106q0 59 4 97.5t16.5 78t36.5 62.5t63.5 42t99 26.5t140.5 6.5z" />
    <glyph glyph-name="t" unicode="t" horiz-adv-x="581" 
d="M553 1202v-262h-147v-639q0 -37 36 -37h129v-264l-129 -8q-68 -2 -119.5 -1t-90 13.5t-64.5 32t-42 54.5t-23 81.5t-7 112.5v655h-82v262h82v264h310v-264h147z" />
    <glyph glyph-name="u" unicode="u" horiz-adv-x="839" 
d="M352 1202v-874q0 -36 11.5 -51t42.5 -15h81v940h310v-1202q-256 -8 -422 -8h-39q-77 0 -129.5 13t-90.5 44.5t-55.5 88t-17.5 141.5v923h309z" />
    <glyph glyph-name="v" unicode="v" horiz-adv-x="876" 
d="M872 1202l-204 -1202h-459l-207 1202h328l102 -833h12l103 833h325z" />
    <glyph glyph-name="w" unicode="w" horiz-adv-x="1269" 
d="M680 0l-45 522h-2l-43 -522h-428l-160 1202h328l65 -827h6l86 827h295l88 -827h2l68 827h328l-158 -1202h-430z" />
    <glyph glyph-name="x" unicode="x" horiz-adv-x="849" 
d="M844 1202l-172 -602l172 -600h-326l-92 383l-92 -383h-326l172 600l-172 602h326l92 -379l92 379h326z" />
    <glyph glyph-name="y" unicode="y" horiz-adv-x="886" 
d="M215 16l-217 1186h319l111 -788h14l148 788h293l-281 -1466h-289l54 280h-152z" />
    <glyph glyph-name="z" unicode="z" horiz-adv-x="751" 
d="M737 264v-264h-723v262l353 676h-336v264h702v-264l-346 -674h350z" />
    <glyph glyph-name="braceleft" unicode="{" horiz-adv-x="559" 
d="M12 561v162l12 5q11 4 24.5 10t31 19t31 29.5t23 43t9.5 57.5v293q0 139 84 233q44 54 174 150l109 -86q-56 -83 -70 -119q-13 -32 -16.5 -68.5t-3.5 -109.5v-293q0 -155 -123 -246q123 -91 123 -244v-299q0 -73 3.5 -109.5t16.5 -68.5q14 -36 70 -119l-109 -86
q-116 82 -174 148q-84 97 -84 235v299q0 35 -12.5 64t-26 44.5t-37 29.5t-32 17.5t-23.5 8.5z" />
    <glyph glyph-name="bar" unicode="|" horiz-adv-x="466" 
d="M113 -156v1712h241v-1712h-241z" />
    <glyph glyph-name="braceright" unicode="}" horiz-adv-x="559" 
d="M547 723v-162q-15 -5 -23.5 -8.5t-32 -17.5t-37 -29.5t-26 -44.5t-12.5 -64v-299q0 -138 -84 -235q-58 -66 -174 -148l-109 86q56 83 70 119q13 32 16.5 68.5t3.5 109.5v299q0 153 123 244q-123 91 -123 246v293q0 73 -3.5 109.5t-16.5 68.5q-14 36 -70 119l109 86
q130 -96 174 -150q84 -94 84 -233v-293q0 -31 9.5 -57.5t23 -43t31 -29.5t31 -19t25.5 -10z" />
    <glyph glyph-name="asciitilde" unicode="~" horiz-adv-x="819" 
d="M506 610l-193 129l-2 -129h-170v267h172l193 -68l2 68h170l-2 -267h-170z" />
    <glyph glyph-name="uni00A0" unicode="&#xa0;" horiz-adv-x="256" 
 />
    <glyph glyph-name="exclamdown" unicode="&#xa1;" horiz-adv-x="407" 
d="M49 403l76 588h158l75 -588v-403h-309v403zM66 1114v320h276v-320h-276z" />
    <glyph glyph-name="cent" unicode="&#xa2;" horiz-adv-x="753" 
d="M322 -117v148q-73 2 -124 17.5t-81.5 40t-47.5 65t-22.5 83.5t-5.5 105v596q0 64 5 106t21.5 82t47 63.5t81.5 39.5t126 20v137h208v-139l199 -6v-248h-328q-28 0 -38.5 -11t-10.5 -44v-596q0 -32 10.5 -43.5t38.5 -11.5h328l-2 -248q-107 -4 -197 -6v-150h-208z" />
    <glyph glyph-name="sterling" unicode="&#xa3;" horiz-adv-x="983" 
d="M500 1180q-33 0 -48.5 -14t-15.5 -54v-328h361v-256h-361v-266h516v-262h-942v262h99v266h-99v256h99v301q0 89 10 147t34.5 102t70 67t111.5 33t165 8l366 -8v-254h-366z" />
    <glyph glyph-name="yen" unicode="&#xa5;" horiz-adv-x="921" 
d="M70 586v153h157l-221 695h328l125 -527l129 527h327l-223 -695h156v-153h-205l-18 -60v-18h223v-154h-223v-354h-328v354h-227v154h227v18l-21 60h-206z" />
    <glyph glyph-name="section" unicode="&#xa7;" horiz-adv-x="968" 
d="M813 1227h-373q-29 0 -42 -10.5t-13 -42.5v-11q0 -12 2 -21t7 -16t9.5 -12.5t15 -10t17 -7t21.5 -5t23.5 -4t27.5 -4t29 -4.5l184 -22q122 -13 167.5 -69t47.5 -173v-153q0 -116 -102 -175q21 -35 29.5 -72t8.5 -102v-14q0 -61 -6 -105.5t-18 -79t-35 -56.5t-50.5 -36
t-72 -21t-92 -8.5t-117.5 -0.5l-342 8v207h381h24.5t19.5 2.5t18 8t9.5 16t4.5 26.5v14q0 14 -4 24.5t-14 18.5t-18.5 13t-27.5 9.5t-30 6.5t-36.5 6t-37.5 6l-184 27q-122 17 -167.5 71.5t-47.5 170.5v123q0 75 29 123.5t71 70.5q-21 36 -29 72t-8 100v14q0 121 35.5 188
t119.5 97t236 27l330 -8v-207zM561 807l-145 33q-27 4 -76.5 16.5t-54.5 15.5q-6 -6 -6 -57v-94q0 -15 0.5 -24t6 -17t8 -12t16 -8.5t20.5 -6.5t30.5 -7t38.5 -9l142 -31q14 -3 74.5 -19t64.5 -20q6 9 6 41v113q0 44 -18 56t-89 26q-12 3 -18 4z" />
    <glyph glyph-name="dieresis" unicode="&#xa8;" horiz-adv-x="1024" 
d="M274 1268v217h203v-217h-203zM545 1268v217h205v-217h-205z" />
    <glyph glyph-name="copyright" unicode="&#xa9;" horiz-adv-x="1093" 
d="M532 1049q-26 0 -37.5 -8.5t-11.5 -39.5v-577q0 -29 11.5 -40t37.5 -11h293v-187q-244 -8 -299 -8q-90 -2 -144 9.5t-85.5 45.5t-42 83t-10.5 133v526q0 84 10.5 133t42 82.5t85.5 45t144 9.5l299 -8v-188h-293zM395 1434h305q181 0 275 -85.5t94 -250.5v-762
q0 -165 -94 -250.5t-275 -85.5h-305q-180 0 -274 87t-94 249v762q0 165 93.5 250.5t274.5 85.5zM395 53h305q156 0 232 75t76 208v762q0 282 -308 282h-305q-307 0 -307 -282v-762q0 -131 76 -207t231 -76z" />
    <glyph glyph-name="ordfeminine" unicode="&#xaa;" horiz-adv-x="550" 
d="M106 1436q158 6 187 6q70 2 113 -8t64 -36.5t27.5 -58t6.5 -84.5v-538q-131 -6 -240 -6h-22q-95 0 -140 36.5t-45 135.5v157q0 102 36.5 137t127.5 35h96v37q0 24 -6 30.5t-22 6.5h-183v150zM500 623v-177h-449v177h449zM274 874h43v207h-43q-18 0 -24 -13t-6 -40v-117
q0 -23 5 -30t25 -7z" />
    <glyph glyph-name="guillemotleft" unicode="&#xab;" horiz-adv-x="727" 
d="M489 209l-167 371v32l167 371h220l-129 -371v-32l129 -371h-220zM10 580v32l201 371h205l-146 -371v-32l146 -371h-205z" />
    <glyph glyph-name="registered" unicode="&#xae;" horiz-adv-x="698" 
d="M326 938v-205h-131v563h167q97 0 127.5 -27t30.5 -112v-61q0 -58 -16.5 -79t-63.5 -24q47 -6 63.5 -28t16.5 -80v-152h-133v166q0 39 -22 39h-39zM362 1188h-36v-148h39q22 0 22 25v96q0 27 -25 27zM258 608h182q94 0 139.5 44t45.5 122v459q0 166 -185 166h-182
q-184 0 -184 -166v-459q0 -77 45.5 -121.5t138.5 -44.5zM440 573h-182q-108 0 -164.5 52t-56.5 149v459q0 98 56 149.5t165 51.5h182q109 0 165.5 -51.5t56.5 -149.5v-459q0 -98 -56.5 -149.5t-165.5 -51.5z" />
    <glyph glyph-name="macron" unicode="&#xaf;" horiz-adv-x="1024" 
d="M266 1280v180h492v-180h-492z" />
    <glyph glyph-name="degree" unicode="&#xb0;" horiz-adv-x="550" 
d="M240 1442h75q49 0 83.5 -4.5t58 -17t37 -27.5t21 -42.5t9.5 -55t2 -72.5v-326q0 -44 -2 -71.5t-9.5 -55t-21 -42.5t-37 -27.5t-58 -17.5t-83.5 -5h-75q-59 0 -98 8.5t-62 22.5t-34.5 43.5t-15 60.5t-3.5 84v326q0 68 5.5 103t27 65t64 40.5t116.5 10.5zM307 1288h-61
q-23 0 -28 -8t-5 -31v-375q0 -17 1.5 -24t8.5 -11.5t23 -4.5h61q23 0 29 8t6 32v375q0 23 -6 31t-29 8z" />
    <glyph glyph-name="plusminus" unicode="&#xb1;" horiz-adv-x="731" 
d="M29 797v213h229v223h213v-223h234v-213h-234v-226h-213v226h-229zM29 270v213h676v-213h-676z" />
    <glyph glyph-name="acute" unicode="&#xb4;" horiz-adv-x="1024" 
d="M324 1262l114 223h310l-218 -223h-206z" />
    <glyph glyph-name="paragraph" unicode="&#xb6;" horiz-adv-x="921" 
d="M399 0v610h-141q-49 0 -88 20t-61.5 52t-34 68.5t-11.5 74.5v394q0 30 6 59t20.5 58t36 50t56 34.5t76.5 13.5h614v-1434h-184v1219h-104v-1219h-185z" />
    <glyph glyph-name="periodcentered" unicode="&#xb7;" horiz-adv-x="366" 
d="M47 549v317h277v-317h-277z" />
    <glyph glyph-name="cedilla" unicode="&#xb8;" horiz-adv-x="1024" 
d="M610 0l-51 -256h-225l104 256h172z" />
    <glyph glyph-name="ordmasculine" unicode="&#xba;" horiz-adv-x="559" 
d="M268 1442h23q71 0 115 -11t66 -37.5t29 -58t7 -84.5v-350q0 -52 -7 -83.5t-29 -57.5t-66 -37.5t-115 -11.5h-23q-70 0 -114 11.5t-66 37.5t-29.5 58t-7.5 83v350q0 52 7.5 84t29.5 58.5t66 37.5t114 11zM268 868h23q18 0 24.5 6.5t6.5 24.5v352q0 20 -6.5 26.5t-24.5 6.5
h-23q-16 0 -22 -6.5t-6 -26.5v-352q0 -18 6 -24.5t22 -6.5zM51 446v177h457v-177h-457z" />
    <glyph glyph-name="guillemotright" unicode="&#xbb;" horiz-adv-x="727" 
d="M408 580l-168 -371h-222l129 371v32l-129 371h222l168 -371v-32zM717 612v-32l-201 -371h-205l146 371v32l-146 371h205z" />
    <glyph glyph-name="questiondown" unicode="&#xbf;" horiz-adv-x="770" 
d="M733 0q-157 -8 -311 -8q-110 0 -178 14.5t-114 53.5t-64.5 106t-18.5 174v115q0 81 32 133.5t116 116.5q25 20 60 46t48 36.5t31 27t23 27.5t9.5 26.5t4.5 36.5v88h245v-172q0 -18 -3 -35t-5.5 -28.5t-11.5 -26t-13 -21.5t-18 -21.5t-19 -19t-24 -21t-24 -21.5
q-15 -14 -50 -44t-44.5 -39.5t-26 -30.5t-21 -39.5t-4.5 -43.5v-113q0 -39 15 -51t49 -12h317v-254zM631 1434v-320h-277v320h277z" />
    <glyph glyph-name="Agrave" unicode="&#xc0;" horiz-adv-x="911" 
d="M715 1434l205 -1434h-326l-31 242h-211l-28 -242h-328l205 1434h514zM453 1159l-78 -631h166l-80 631h-8zM449 1714l114 -223h-207l-217 223h310z" />
    <glyph glyph-name="Aacute" unicode="&#xc1;" horiz-adv-x="911" 
d="M715 1434l205 -1434h-326l-31 242h-211l-28 -242h-328l205 1434h514zM453 1159l-78 -631h166l-80 631h-8zM332 1491l114 223h310l-217 -223h-207z" />
    <glyph glyph-name="Acircumflex" unicode="&#xc2;" horiz-adv-x="911" 
d="M715 1434l205 -1434h-326l-31 242h-211l-28 -242h-328l205 1434h514zM453 1159l-78 -631h166l-80 631h-8zM182 1491l133 223h287l133 -223h-207l-71 94l-68 -94h-207z" />
    <glyph glyph-name="Atilde" unicode="&#xc3;" horiz-adv-x="911" 
d="M715 1434l205 -1434h-326l-31 242h-211l-28 -242h-328l205 1434h514zM453 1159l-78 -631h166l-80 631h-8zM539 1495l-160 107l-4 -105h-139l2 217h141l160 -55l2 55h139l-2 -219h-139z" />
    <glyph glyph-name="Adieresis" unicode="&#xc4;" horiz-adv-x="911" 
d="M715 1434l205 -1434h-326l-31 242h-211l-28 -242h-328l205 1434h514zM453 1159l-78 -631h166l-80 631h-8zM221 1497v217h203v-217h-203zM492 1497v217h204v-217h-204z" />
    <glyph glyph-name="Aring" unicode="&#xc5;" horiz-adv-x="911" 
d="M715 1434l205 -1434h-326l-31 242h-211l-28 -242h-328l205 1434h514zM453 1159l-78 -631h166l-80 631h-8zM432 1817h51q99 0 126.5 -30.5t27.5 -121.5v-33q0 -46 -4.5 -72t-21 -45.5t-46.5 -26.5t-82 -7h-51q-52 0 -82 7t-46 27t-20.5 45.5t-4.5 71.5v33q0 47 4.5 73
t20.5 45.5t46 26.5t82 7zM481 1733h-47q-43 0 -53 -11t-10 -49v-47q0 -39 10.5 -50t52.5 -11h47q43 0 54.5 11.5t11.5 49.5v47q0 38 -11.5 49t-54.5 11z" />
    <glyph glyph-name="AE" unicode="&#xc6;" horiz-adv-x="1366" 
d="M655 0v250h-254l-67 -250h-324l434 1434h891v-279h-354v-283h317v-280h-317v-311h354v-281h-680zM637 1155l-166 -627h184v627h-18z" />
    <glyph glyph-name="Ccedilla" unicode="&#xc7;" horiz-adv-x="843" 
d="M432 1176q-33 0 -48 -14t-15 -54v-782q0 -40 15 -54t48 -14h385v-258q-153 -2 -270 -2l-49 -254h-226l103 252q-106 3 -168.5 19t-101 57.5t-51.5 103t-13 164.5v754q0 73 6.5 124t24.5 91t44.5 63.5t72.5 39t103 21t140 5.5l385 -4v-260z" />
    <glyph glyph-name="Egrave" unicode="&#xc8;" horiz-adv-x="759" 
d="M375 594v-315h354v-279h-680v1434h680v-279h-354v-283h317v-278h-317zM420 1714l115 -223h-207l-217 223h309z" />
    <glyph glyph-name="Eacute" unicode="&#xc9;" horiz-adv-x="759" 
d="M254 1491l115 223h309l-217 -223h-207zM375 594v-315h354v-279h-680v1434h680v-279h-354v-283h317v-278h-317z" />
    <glyph glyph-name="Ecircumflex" unicode="&#xca;" horiz-adv-x="759" 
d="M111 1491l133 223h286l134 -223h-207l-72 94l-68 -94h-206zM375 594v-315h354v-279h-680v1434h680v-279h-354v-283h317v-278h-317z" />
    <glyph glyph-name="Edieresis" unicode="&#xcb;" horiz-adv-x="759" 
d="M154 1497v217h202v-217h-202zM424 1497v217h205v-217h-205zM375 594v-315h354v-279h-680v1434h680v-279h-354v-283h317v-278h-317z" />
    <glyph glyph-name="Igrave" unicode="&#xcc;" horiz-adv-x="423" 
d="M49 0v1434h326v-1434h-326zM207 1714l115 -223h-207l-217 223h309z" />
    <glyph glyph-name="Iacute" unicode="&#xcd;" horiz-adv-x="423" 
d="M49 0v1434h326v-1434h-326zM94 1491l115 223h309l-217 -223h-207z" />
    <glyph glyph-name="Icircumflex" unicode="&#xce;" horiz-adv-x="423" 
d="M49 0v1434h326v-1434h-326zM-63 1491l133 223h286l133 -223h-206l-72 94l-68 -94h-206z" />
    <glyph glyph-name="Idieresis" unicode="&#xcf;" horiz-adv-x="423" 
d="M49 0v1434h326v-1434h-326zM-25 1497v217h203v-217h-203zM246 1497v217h205v-217h-205z" />
    <glyph glyph-name="Eth" unicode="&#xd0;" horiz-adv-x="935" 
d="M4 614v228h84v592h424q124 0 196 -14t116.5 -55.5t59.5 -105t15 -172.5v-741q0 -109 -15 -172.5t-59.5 -104.5t-116.5 -55t-196 -14h-424v614h-84zM512 1167h-96v-325h82v-228h-82v-348h96q32 0 46.5 13t14.5 51v778q0 36 -14.5 47.5t-46.5 11.5z" />
    <glyph glyph-name="Ntilde" unicode="&#xd1;" horiz-adv-x="911" 
d="M49 1434h318l196 -678h2v678h299v-1434h-334l-165 631h-3v-631h-313v1434zM532 1495l-159 107l-4 -105h-140l2 217h142l159 -55l3 55h139l-2 -219h-140z" />
    <glyph glyph-name="Ograve" unicode="&#xd2;" horiz-adv-x="903" 
d="M432 1442h39q124 0 196.5 -14t118 -54.5t61 -105t15.5 -174.5v-754q0 -110 -15.5 -174t-61 -105t-118 -55t-196.5 -14h-39q-163 0 -245 30.5t-114 102.5t-32 215v754q0 110 15.5 174.5t61 105t118 54.5t196.5 14zM434 258h35q34 0 50 13t16 53v786q0 40 -16 53t-50 13
h-35q-34 0 -49.5 -13t-15.5 -53v-786q0 -40 15.5 -53t49.5 -13zM451 1714l114 -223h-207l-217 223h310z" />
    <glyph glyph-name="Oacute" unicode="&#xd3;" horiz-adv-x="903" 
d="M344 1491l115 223h309l-217 -223h-207zM432 1442h39q124 0 196.5 -14t118 -54.5t61 -105t15.5 -174.5v-754q0 -110 -15.5 -174t-61 -105t-118 -55t-196.5 -14h-39q-163 0 -245 30.5t-114 102.5t-32 215v754q0 110 15.5 174.5t61 105t118 54.5t196.5 14zM434 258h35
q34 0 50 13t16 53v786q0 40 -16 53t-50 13h-35q-34 0 -49.5 -13t-15.5 -53v-786q0 -40 15.5 -53t49.5 -13z" />
    <glyph glyph-name="Ocircumflex" unicode="&#xd4;" horiz-adv-x="903" 
d="M178 1491l133 223h287l133 -223h-207l-71 94l-68 -94h-207zM432 1442h39q124 0 196.5 -14t118 -54.5t61 -105t15.5 -174.5v-754q0 -110 -15.5 -174t-61 -105t-118 -55t-196.5 -14h-39q-163 0 -245 30.5t-114 102.5t-32 215v754q0 110 15.5 174.5t61 105t118 54.5
t196.5 14zM434 258h35q34 0 50 13t16 53v786q0 40 -16 53t-50 13h-35q-34 0 -49.5 -13t-15.5 -53v-786q0 -40 15.5 -53t49.5 -13z" />
    <glyph glyph-name="Otilde" unicode="&#xd5;" horiz-adv-x="903" 
d="M432 1442h39q124 0 196.5 -14t118 -54.5t61 -105t15.5 -174.5v-754q0 -110 -15.5 -174t-61 -105t-118 -55t-196.5 -14h-39q-163 0 -245 30.5t-114 102.5t-32 215v754q0 110 15.5 174.5t61 105t118 54.5t196.5 14zM434 258h35q34 0 50 13t16 53v786q0 40 -16 53t-50 13
h-35q-34 0 -49.5 -13t-15.5 -53v-786q0 -40 15.5 -53t49.5 -13zM532 1495l-159 107l-4 -105h-140l2 217h142l159 -55l3 55h139l-2 -219h-140z" />
    <glyph glyph-name="Odieresis" unicode="&#xd6;" horiz-adv-x="903" 
d="M217 1497v217h203v-217h-203zM487 1497v217h205v-217h-205zM432 1442h39q124 0 196.5 -14t118 -54.5t61 -105t15.5 -174.5v-754q0 -110 -15.5 -174t-61 -105t-118 -55t-196.5 -14h-39q-163 0 -245 30.5t-114 102.5t-32 215v754q0 110 15.5 174.5t61 105t118 54.5
t196.5 14zM434 258h35q34 0 50 13t16 53v786q0 40 -16 53t-50 13h-35q-34 0 -49.5 -13t-15.5 -53v-786q0 -40 15.5 -53t49.5 -13z" />
    <glyph glyph-name="multiply" unicode="&#xd7;" horiz-adv-x="724" 
d="M539 1061l151 -150l-178 -178l170 -170l-150 -151l-172 170l-176 -176l-149 151l176 176l-170 172l152 150l167 -172z" />
    <glyph glyph-name="Oslash" unicode="&#xd8;" horiz-adv-x="903" 
d="M432 1442h39q109 0 182 -12l27 69h168l-51 -135q65 -70 65 -270v-754q0 -110 -15.5 -174t-61 -105t-118 -55t-196.5 -14h-39q-121 0 -192 14l-29 -72h-170l61 142q-34 38 -47.5 101t-13.5 163v754q0 110 15.5 174.5t61 105t118 54.5t196.5 14zM434 258h35q34 0 50 13
t16 53v501l-166 -471v-30q0 -40 15.5 -53t49.5 -13zM369 1110v-496l166 469v27q0 40 -16 53t-50 13h-35q-34 0 -49.5 -13t-15.5 -53z" />
    <glyph glyph-name="Ugrave" unicode="&#xd9;" horiz-adv-x="903" 
d="M41 1434h328v-1108q0 -42 12 -55t45 -13h51q32 0 45 13.5t13 54.5v1108h327v-1094q0 -110 -15.5 -174t-61 -105t-118 -55t-196.5 -14h-39q-124 0 -196.5 14t-118 55t-61 105t-15.5 174v1094zM483 1714l115 -223h-207l-217 223h309z" />
    <glyph glyph-name="Uacute" unicode="&#xda;" horiz-adv-x="903" 
d="M326 1491l114 223h310l-218 -223h-206zM41 1434h328v-1108q0 -42 12 -55t45 -13h51q32 0 45 13.5t13 54.5v1108h327v-1094q0 -110 -15.5 -174t-61 -105t-118 -55t-196.5 -14h-39q-124 0 -196.5 14t-118 55t-61 105t-15.5 174v1094z" />
    <glyph glyph-name="Ucircumflex" unicode="&#xdb;" horiz-adv-x="903" 
d="M178 1491l133 223h287l133 -223h-207l-71 94l-68 -94h-207zM41 1434h328v-1108q0 -42 12 -55t45 -13h51q32 0 45 13.5t13 54.5v1108h327v-1094q0 -110 -15.5 -174t-61 -105t-118 -55t-196.5 -14h-39q-124 0 -196.5 14t-118 55t-61 105t-15.5 174v1094z" />
    <glyph glyph-name="Udieresis" unicode="&#xdc;" horiz-adv-x="903" 
d="M217 1497v217h203v-217h-203zM487 1497v217h205v-217h-205zM41 1434h328v-1108q0 -42 12 -55t45 -13h51q32 0 45 13.5t13 54.5v1108h327v-1094q0 -110 -15.5 -174t-61 -105t-118 -55t-196.5 -14h-39q-124 0 -196.5 14t-118 55t-61 105t-15.5 174v1094z" />
    <glyph glyph-name="Yacute" unicode="&#xdd;" horiz-adv-x="921" 
d="M297 0v526l-291 908h328l125 -527l129 527h327l-290 -908v-526h-328zM348 1491l115 223h309l-217 -223h-207z" />
    <glyph glyph-name="Thorn" unicode="&#xde;" horiz-adv-x="870" 
d="M43 0v1434h328v-220h94q122 0 194.5 -14.5t116.5 -56t59 -103.5t15 -168v-303q0 -71 -6 -120.5t-23.5 -89t-44 -63.5t-71 -39.5t-101.5 -21.5t-139 -6h-94v-229h-328zM465 948h-94v-454h94q31 0 44 13t13 50v330q0 35 -13 48t-44 13z" />
    <glyph glyph-name="germandbls" unicode="&#xdf;" horiz-adv-x="933" 
d="M465 1184q-32 0 -47 -12.5t-15 -49.5v-1122h-309v979l-90 20v203h100v25q0 94 82 150.5t195 56.5h115q83 0 140 -6t102 -21.5t71.5 -39.5t44 -64.5t23.5 -91t6 -124.5v-90q0 -138 -38.5 -191t-150.5 -63q117 -9 157 -60.5t40 -197.5v-139q0 -85 -5.5 -140t-25 -95.5
t-42 -61t-73.5 -32.5t-100.5 -14.5t-140.5 -2.5h-47v246h63q33 0 47.5 13.5t14.5 51.5v238q0 37 -15.5 51t-46.5 14h-63v240h55q31 0 46 15t15 53v200q0 37 -14.5 49.5t-46.5 12.5h-47z" />
    <glyph glyph-name="agrave" unicode="&#xe0;" horiz-adv-x="827" 
d="M113 954v248q200 8 321 10q79 1 136 -6.5t95.5 -26.5t62 -42.5t36 -62.5t16.5 -78t4 -97v-899q-247 -8 -413 -8h-39q-77 0 -129 13t-90 44.5t-56 88t-18 141.5v251q0 168 58 227.5t208 59.5h170v76q0 41 -10 51t-37 10h-315zM471 1485l115 -223h-207l-217 223h309z
M348 518v-190q0 -37 10 -51.5t41 -14.5h23q47 0 53 2v334h-76q-51 0 -51 -80z" />
    <glyph glyph-name="aacute" unicode="&#xe1;" horiz-adv-x="827" 
d="M113 954v248q200 8 321 10q79 1 136 -6.5t95.5 -26.5t62 -42.5t36 -62.5t16.5 -78t4 -97v-899q-247 -8 -413 -8h-39q-77 0 -129 13t-90 44.5t-56 88t-18 141.5v251q0 168 58 227.5t208 59.5h170v76q0 41 -10 51t-37 10h-315zM291 1262l115 223h309l-217 -223h-207z
M348 518v-190q0 -37 10 -51.5t41 -14.5h23q47 0 53 2v334h-76q-51 0 -51 -80z" />
    <glyph glyph-name="acircumflex" unicode="&#xe2;" horiz-adv-x="827" 
d="M113 954v248q200 8 321 10q79 1 136 -6.5t95.5 -26.5t62 -42.5t36 -62.5t16.5 -78t4 -97v-899q-247 -8 -413 -8h-39q-77 0 -129 13t-90 44.5t-56 88t-18 141.5v251q0 168 58 227.5t208 59.5h170v76q0 41 -10 51t-37 10h-315zM147 1262l134 223h286l133 -223h-206l-72 94
l-68 -94h-207zM348 518v-190q0 -37 10 -51.5t41 -14.5h23q47 0 53 2v334h-76q-51 0 -51 -80z" />
    <glyph glyph-name="atilde" unicode="&#xe3;" horiz-adv-x="827" 
d="M113 954v248q200 8 321 10q79 1 136 -6.5t95.5 -26.5t62 -42.5t36 -62.5t16.5 -78t4 -97v-899q-247 -8 -413 -8h-39q-77 0 -129 13t-90 44.5t-56 88t-18 141.5v251q0 168 58 227.5t208 59.5h170v76q0 41 -10 51t-37 10h-315zM504 1266l-160 106l-4 -104h-139l2 217h141
l160 -55l2 55h139l-2 -219h-139zM348 518v-190q0 -37 10 -51.5t41 -14.5h23q47 0 53 2v334h-76q-51 0 -51 -80z" />
    <glyph glyph-name="adieresis" unicode="&#xe4;" horiz-adv-x="827" 
d="M113 954v248q200 8 321 10q79 1 136 -6.5t95.5 -26.5t62 -42.5t36 -62.5t16.5 -78t4 -97v-899q-247 -8 -413 -8h-39q-77 0 -129 13t-90 44.5t-56 88t-18 141.5v251q0 168 58 227.5t208 59.5h170v76q0 41 -10 51t-37 10h-315zM449 1268v217h204v-217h-204zM178 1268v217
h203v-217h-203zM348 518v-190q0 -37 10 -51.5t41 -14.5h23q47 0 53 2v334h-76q-51 0 -51 -80z" />
    <glyph glyph-name="aring" unicode="&#xe5;" horiz-adv-x="827" 
d="M113 954v248q200 8 321 10q79 1 136 -6.5t95.5 -26.5t62 -42.5t36 -62.5t16.5 -78t4 -97v-899q-247 -8 -413 -8h-39q-77 0 -129 13t-90 44.5t-56 88t-18 141.5v251q0 168 58 227.5t208 59.5h170v76q0 41 -10 51t-37 10h-315zM387 1585h51q99 0 126.5 -30t27.5 -121v-33
q0 -46 -5 -72t-21 -46t-46 -27t-82 -7h-51q-52 0 -82 7t-46 27t-21 46t-5 72v33q0 91 27.5 121t126.5 30zM348 518v-190q0 -37 10 -51.5t41 -14.5h23q47 0 53 2v334h-76q-51 0 -51 -80zM436 1501h-47q-43 0 -53 -10.5t-10 -48.5v-47q0 -39 10.5 -50.5t52.5 -11.5h47
q43 0 54.5 12t11.5 50v47q0 38 -11.5 48.5t-54.5 10.5z" />
    <glyph glyph-name="ae" unicode="&#xe6;" horiz-adv-x="1282" 
d="M852 1212h29q79 0 137 -8t97.5 -26.5t64.5 -42.5t38.5 -61.5t18 -77.5t4.5 -97v-459l-440 -8v-137q0 -32 11.5 -43.5t39.5 -11.5h340v-240q-281 -8 -340 -8q-129 -5 -189.5 10.5t-93.5 63.5q-23 -23 -78.5 -48.5t-119.5 -25.5h-39q-77 0 -129 13t-90 44.5t-56 88
t-18 141.5v237q0 168 58 227.5t208 59.5h187v98q-1 33 -10.5 44t-30.5 11h-349v246q300 10 349 10q136 3 198 -38q60 38 203 38zM492 287v293h-91q-53 0 -53 -86v-166q0 -37 11 -51.5t42 -14.5h21q20 0 70 25zM852 965q-26 0 -38.5 -10t-12.5 -35v-246h143v235
q0 32 -11.5 44t-39.5 12h-41z" />
    <glyph glyph-name="ccedilla" unicode="&#xe7;" horiz-adv-x="753" 
d="M401 954q-28 0 -38.5 -11t-10.5 -44v-596q0 -32 10.5 -43.5t38.5 -11.5h328l-2 -248q-129 -4 -227 -6l-49 -250h-226l101 248q-73 2 -124.5 17.5t-83 39.5t-48.5 64t-23 83.5t-6 106.5v596q0 50 3 84.5t11.5 70.5t24.5 59t42.5 44.5t64.5 32.5t91.5 17t122.5 5l328 -10
v-248h-328z" />
    <glyph glyph-name="egrave" unicode="&#xe8;" horiz-adv-x="831" 
d="M401 1212h29q79 0 137 -8t97.5 -26.5t64.5 -42.5t38.5 -61.5t18.5 -77.5t5 -97v-479l-439 -8v-115q0 -32 10.5 -43.5t38.5 -11.5h349v-242q-193 -4 -349 -8q-94 -2 -159 10t-104.5 35t-61 64.5t-28.5 87t-7 114.5v596q0 57 4.5 97t18 77.5t38.5 61.5t64.5 42.5t97.5 26.5
t137 8zM401 961q-28 0 -38.5 -12t-10.5 -44v-246h142v246q0 32 -12 44t-40 12h-41zM426 1485l115 -223h-207l-217 223h309z" />
    <glyph glyph-name="eacute" unicode="&#xe9;" horiz-adv-x="831" 
d="M283 1262l114 223h310l-218 -223h-206zM401 1212h29q79 0 137 -8t97.5 -26.5t64.5 -42.5t38.5 -61.5t18.5 -77.5t5 -97v-479l-439 -8v-115q0 -32 10.5 -43.5t38.5 -11.5h349v-242q-193 -4 -349 -8q-94 -2 -159 10t-104.5 35t-61 64.5t-28.5 87t-7 114.5v596q0 57 4.5 97
t18 77.5t38.5 61.5t64.5 42.5t97.5 26.5t137 8zM401 961q-28 0 -38.5 -12t-10.5 -44v-246h142v246q0 32 -12 44t-40 12h-41z" />
    <glyph glyph-name="ecircumflex" unicode="&#xea;" horiz-adv-x="831" 
d="M141 1262l133 223h287l133 -223h-207l-71 94l-68 -94h-207zM401 1212h29q79 0 137 -8t97.5 -26.5t64.5 -42.5t38.5 -61.5t18.5 -77.5t5 -97v-479l-439 -8v-115q0 -32 10.5 -43.5t38.5 -11.5h349v-242q-193 -4 -349 -8q-94 -2 -159 10t-104.5 35t-61 64.5t-28.5 87
t-7 114.5v596q0 57 4.5 97t18 77.5t38.5 61.5t64.5 42.5t97.5 26.5t137 8zM401 961q-28 0 -38.5 -12t-10.5 -44v-246h142v246q0 32 -12 44t-40 12h-41z" />
    <glyph glyph-name="edieresis" unicode="&#xeb;" horiz-adv-x="831" 
d="M180 1268v217h203v-217h-203zM451 1268v217h204v-217h-204zM401 1212h29q79 0 137 -8t97.5 -26.5t64.5 -42.5t38.5 -61.5t18.5 -77.5t5 -97v-479l-439 -8v-115q0 -32 10.5 -43.5t38.5 -11.5h349v-242q-193 -4 -349 -8q-94 -2 -159 10t-104.5 35t-61 64.5t-28.5 87
t-7 114.5v596q0 57 4.5 97t18 77.5t38.5 61.5t64.5 42.5t97.5 26.5t137 8zM401 961q-28 0 -38.5 -12t-10.5 -44v-246h142v246q0 32 -12 44t-40 12h-41z" />
    <glyph glyph-name="igrave" unicode="&#xec;" horiz-adv-x="395" 
d="M43 0v1202h309v-1202h-309zM190 1485l115 -223h-207l-217 223h309z" />
    <glyph glyph-name="iacute" unicode="&#xed;" horiz-adv-x="395" 
d="M88 1262l115 223h309l-217 -223h-207zM43 0v1202h309v-1202h-309z" />
    <glyph glyph-name="icircumflex" unicode="&#xee;" horiz-adv-x="395" 
d="M-76 1262l133 223h287l133 -223h-207l-71 94l-68 -94h-207zM43 0v1202h309v-1202h-309z" />
    <glyph glyph-name="idieresis" unicode="&#xef;" horiz-adv-x="395" 
d="M-37 1268v217h203v-217h-203zM233 1268v217h205v-217h-205zM43 0v1202h309v-1202h-309z" />
    <glyph glyph-name="eth" unicode="&#xf0;" horiz-adv-x="837" 
d="M438 -8h-37q-94 0 -159 13t-104.5 35t-61 62.5t-28.5 85.5t-7 113v598q0 174 55 243.5t199 69.5q178 -8 192 -10v15q0 65 -6 77l-131 -51l-51 119l143 57q-22 34 -90 109l207 69q88 -64 111 -86l127 52l53 -121l-98 -39q45 -76 45 -180v-922q0 -57 -4.5 -96t-18 -76.5
t-38 -61t-64.5 -41.5t-97.5 -26t-136.5 -8zM401 248h37q28 0 38.5 11.5t10.5 43.5v635l-81 2q-32 0 -43 -13.5t-11 -49.5v-574q0 -32 10.5 -43.5t38.5 -11.5z" />
    <glyph glyph-name="ntilde" unicode="&#xf1;" 
d="M487 0v877q0 36 -10.5 49.5t-42.5 13.5h-82v-940h-309v1202q277 10 424 10h39q77 0 128.5 -12.5t89.5 -44.5t55.5 -88t17.5 -141v-926h-310zM502 1266l-160 106l-4 -104h-139l2 217h141l160 -55l2 55h139l-2 -219h-139z" />
    <glyph glyph-name="ograve" unicode="&#xf2;" horiz-adv-x="837" 
d="M401 1212h37q79 0 136.5 -8t97.5 -26.5t64.5 -42.5t38 -62t18 -77.5t4.5 -96.5v-596q0 -57 -4.5 -96t-18 -77t-38 -61.5t-64.5 -42t-97.5 -26.5t-136.5 -8h-37q-79 0 -137 8t-97.5 26.5t-64.5 42t-38.5 61.5t-18 77t-4.5 96v596q0 57 4.5 97t18 77.5t38.5 61.5t64.5 42.5
t97.5 26.5t137 8zM401 248h37q28 0 38.5 11.5t10.5 43.5l2 596q0 33 -11.5 45t-39.5 12h-35q-30 0 -40.5 -12t-10.5 -45v-596q0 -32 10.5 -43.5t38.5 -11.5zM438 1485l115 -223h-207l-217 223h309z" />
    <glyph glyph-name="oacute" unicode="&#xf3;" horiz-adv-x="837" 
d="M297 1262l115 223h309l-217 -223h-207zM401 1212h37q79 0 136.5 -8t97.5 -26.5t64.5 -42.5t38 -62t18 -77.5t4.5 -96.5v-596q0 -57 -4.5 -96t-18 -77t-38 -61.5t-64.5 -42t-97.5 -26.5t-136.5 -8h-37q-79 0 -137 8t-97.5 26.5t-64.5 42t-38.5 61.5t-18 77t-4.5 96v596
q0 57 4.5 97t18 77.5t38.5 61.5t64.5 42.5t97.5 26.5t137 8zM401 248h37q28 0 38.5 11.5t10.5 43.5l2 596q0 33 -11.5 45t-39.5 12h-35q-30 0 -40.5 -12t-10.5 -45v-596q0 -32 10.5 -43.5t38.5 -11.5z" />
    <glyph glyph-name="ocircumflex" unicode="&#xf4;" horiz-adv-x="837" 
d="M145 1262l134 223h286l133 -223h-206l-72 94l-68 -94h-207zM401 1212h37q79 0 136.5 -8t97.5 -26.5t64.5 -42.5t38 -62t18 -77.5t4.5 -96.5v-596q0 -57 -4.5 -96t-18 -77t-38 -61.5t-64.5 -42t-97.5 -26.5t-136.5 -8h-37q-79 0 -137 8t-97.5 26.5t-64.5 42t-38.5 61.5
t-18 77t-4.5 96v596q0 57 4.5 97t18 77.5t38.5 61.5t64.5 42.5t97.5 26.5t137 8zM401 248h37q28 0 38.5 11.5t10.5 43.5l2 596q0 33 -11.5 45t-39.5 12h-35q-30 0 -40.5 -12t-10.5 -45v-596q0 -32 10.5 -43.5t38.5 -11.5z" />
    <glyph glyph-name="otilde" unicode="&#xf5;" horiz-adv-x="837" 
d="M401 1212h37q79 0 136.5 -8t97.5 -26.5t64.5 -42.5t38 -62t18 -77.5t4.5 -96.5v-596q0 -57 -4.5 -96t-18 -77t-38 -61.5t-64.5 -42t-97.5 -26.5t-136.5 -8h-37q-79 0 -137 8t-97.5 26.5t-64.5 42t-38.5 61.5t-18 77t-4.5 96v596q0 57 4.5 97t18 77.5t38.5 61.5t64.5 42.5
t97.5 26.5t137 8zM401 248h37q28 0 38.5 11.5t10.5 43.5l2 596q0 33 -11.5 45t-39.5 12h-35q-30 0 -40.5 -12t-10.5 -45v-596q0 -32 10.5 -43.5t38.5 -11.5zM502 1266l-160 106l-4 -104h-139l2 217h141l160 -55l2 55h139l-2 -219h-139z" />
    <glyph glyph-name="odieresis" unicode="&#xf6;" horiz-adv-x="837" 
d="M184 1268v217h203v-217h-203zM455 1268v217h204v-217h-204zM401 1212h37q79 0 136.5 -8t97.5 -26.5t64.5 -42.5t38 -62t18 -77.5t4.5 -96.5v-596q0 -57 -4.5 -96t-18 -77t-38 -61.5t-64.5 -42t-97.5 -26.5t-136.5 -8h-37q-79 0 -137 8t-97.5 26.5t-64.5 42t-38.5 61.5
t-18 77t-4.5 96v596q0 57 4.5 97t18 77.5t38.5 61.5t64.5 42.5t97.5 26.5t137 8zM401 248h37q28 0 38.5 11.5t10.5 43.5l2 596q0 33 -11.5 45t-39.5 12h-35q-30 0 -40.5 -12t-10.5 -45v-596q0 -32 10.5 -43.5t38.5 -11.5z" />
    <glyph glyph-name="divide" unicode="&#xf7;" horiz-adv-x="716" 
d="M29 629v213h676v-213h-676zM270 918v212h203v-212h-203zM270 338v213h203v-213h-203z" />
    <glyph glyph-name="oslash" unicode="&#xf8;" horiz-adv-x="837" 
d="M401 1212h37q82 0 150 -10l33 78h157l-61 -129q46 -36 63 -96t17 -156v-596q0 -57 -4.5 -96t-18 -77t-38 -61.5t-64.5 -42t-97.5 -26.5t-136.5 -8h-37q-105 0 -180 16l-33 -61h-155l63 127q-55 62 -55 229v596q0 57 4.5 97t18 77.5t38.5 61.5t64.5 42.5t97.5 26.5t137 8z
M401 248h37q28 0 38.5 11.5t10.5 43.5v420l-135 -358v-62q0 -32 10.5 -43.5t38.5 -11.5zM352 899v-334l135 350q-3 23 -14 32t-35 9h-35q-30 0 -40.5 -12t-10.5 -45z" />
    <glyph glyph-name="ugrave" unicode="&#xf9;" horiz-adv-x="839" 
d="M352 1202v-874q0 -36 11.5 -51t42.5 -15h81v940h310v-1202q-256 -8 -422 -8h-39q-77 0 -129.5 13t-90.5 44.5t-55.5 88t-17.5 141.5v923h309zM438 1485l115 -223h-207l-217 223h309z" />
    <glyph glyph-name="uacute" unicode="&#xfa;" horiz-adv-x="839" 
d="M352 1202v-874q0 -36 11.5 -51t42.5 -15h81v940h310v-1202q-256 -8 -422 -8h-39q-77 0 -129.5 13t-90.5 44.5t-55.5 88t-17.5 141.5v923h309zM293 1262l115 223h309l-217 -223h-207z" />
    <glyph glyph-name="ucircumflex" unicode="&#xfb;" horiz-adv-x="839" 
d="M352 1202v-874q0 -36 11.5 -51t42.5 -15h81v940h310v-1202q-256 -8 -422 -8h-39q-77 0 -129.5 13t-90.5 44.5t-55.5 88t-17.5 141.5v923h309zM145 1262l134 223h286l133 -223h-206l-72 94l-68 -94h-207z" />
    <glyph glyph-name="udieresis" unicode="&#xfc;" horiz-adv-x="839" 
d="M352 1202v-874q0 -36 11.5 -51t42.5 -15h81v940h310v-1202q-256 -8 -422 -8h-39q-77 0 -129.5 13t-90.5 44.5t-55.5 88t-17.5 141.5v923h309zM455 1268v217h204v-217h-204zM184 1268v217h203v-217h-203z" />
    <glyph glyph-name="yacute" unicode="&#xfd;" horiz-adv-x="886" 
d="M215 16l-217 1186h319l111 -788h14l148 788h293l-281 -1466h-289l54 280h-152zM332 1262l114 223h310l-217 -223h-207z" />
    <glyph glyph-name="thorn" unicode="&#xfe;" 
d="M43 -258v1694h309v-234h201q144 0 195 -67t51 -242v-574q0 -177 -52 -249t-194 -72h-39l-162 2v-258h-309zM436 940h-84v-678h84q30 0 41.5 15t11.5 51v549q0 36 -11.5 49.5t-41.5 13.5z" />
    <glyph glyph-name="ydieresis" unicode="&#xff;" horiz-adv-x="886" 
d="M215 16l-217 1186h319l111 -788h14l148 788h293l-281 -1466h-289l54 280h-152zM205 1268v217h203v-217h-203zM475 1268v217h205v-217h-205z" />
    <glyph glyph-name="Amacron" unicode="&#x100;" horiz-adv-x="911" 
d="M715 1434l205 -1434h-326l-31 242h-211l-28 -242h-328l205 1434h514zM453 1159l-78 -631h166l-80 631h-8zM213 1509v181h492v-181h-492z" />
    <glyph glyph-name="amacron" unicode="&#x101;" horiz-adv-x="827" 
d="M113 954v248q200 8 321 10q79 1 136 -6.5t95.5 -26.5t62 -42.5t36 -62.5t16.5 -78t4 -97v-899q-247 -8 -413 -8h-39q-77 0 -129 13t-90 44.5t-56 88t-18 141.5v251q0 168 58 227.5t208 59.5h170v76q0 41 -10 51t-37 10h-315zM186 1280v180h492v-180h-492zM348 518v-190
q0 -37 10 -51.5t41 -14.5h23q47 0 53 2v334h-76q-51 0 -51 -80z" />
    <glyph glyph-name="Abreve" unicode="&#x102;" horiz-adv-x="911" 
d="M715 1434l205 -1434h-326l-31 242h-211l-28 -242h-328l205 1434h514zM453 1159l-78 -631h166l-80 631h-8zM498 1483h-76q-72 0 -114 9.5t-64.5 36.5t-29.5 63t-7 100v26h186v-45q0 -23 8 -31t27 -8h61q19 0 27 8t8 31v45h185v-26q0 -64 -6.5 -100t-29 -63t-64 -36.5
t-111.5 -9.5z" />
    <glyph glyph-name="abreve" unicode="&#x103;" horiz-adv-x="827" 
d="M113 954v248q200 8 321 10q79 1 136 -6.5t95.5 -26.5t62 -42.5t36 -62.5t16.5 -78t4 -97v-899q-247 -8 -413 -8h-39q-77 0 -129 13t-90 44.5t-56 88t-18 141.5v251q0 168 58 227.5t208 59.5h170v76q0 41 -10 51t-37 10h-315zM471 1253h-76q-72 0 -114 9.5t-64.5 36.5
t-29.5 63t-7 100v27h187v-45q0 -23 7.5 -31t26.5 -8h62q19 0 27 8t8 31v45h184v-27q0 -64 -6.5 -100t-29 -63t-64 -36.5t-111.5 -9.5zM348 518v-190q0 -37 10 -51.5t41 -14.5h23q47 0 53 2v334h-76q-51 0 -51 -80z" />
    <glyph glyph-name="Aogonek" unicode="&#x104;" horiz-adv-x="911" 
d="M954 -84v-35q0 -33 -1.5 -53.5t-8.5 -43t-20 -35t-37 -20.5t-58 -8h-131q-85 0 -108 25t-23 100v25q0 12 1 22t5 18.5t6.5 14.5t10 12.5t10.5 10t13 9t13 7.5t16 8t15 7l50 20h-113l-31 242h-211l-28 -242h-328l205 1434h514l205 -1434h-39l-107 -61q-5 -3 -11.5 -7
t-9.5 -5.5t-7 -4.5l-6 -4.5t-4.5 -4t-3 -4t-2 -4t-1.5 -5.5v-6v-7q0 -15 3 -19.5t16 -4.5h30q13 0 15 3.5t2 18.5v31h159zM453 1159l-78 -631h166l-80 631h-8z" />
    <glyph glyph-name="aogonek" unicode="&#x105;" horiz-adv-x="827" 
d="M782 -59v-35q0 -33 -1.5 -53.5t-8.5 -43t-20 -35t-37 -20.5t-58 -8h-131q-85 0 -108 25t-23 100v25q0 41 16 61.5t48 34.5h-88h-39q-77 0 -129 13t-90 44.5t-56 88t-18 141.5v251q0 168 58 227.5t208 59.5h170v76q0 41 -10 51t-37 10h-315v248q200 8 321 10
q79 1 136 -6.5t95.5 -26.5t62 -42.5t36 -62.5t16.5 -78t4 -97v-899q-55 -2 -125 -4l-57 -33q-5 -3 -11.5 -7t-9.5 -5.5t-7 -4.5l-6 -4.5t-4.5 -4t-3 -4t-2 -4t-1.5 -5.5v-6v-6q0 -15 2.5 -20t15.5 -5h31q13 0 15 4t2 19v31h159zM348 518v-190q0 -37 10 -51.5t41 -14.5h23
q47 0 53 2v334h-76q-51 0 -51 -80z" />
    <glyph glyph-name="Cacute" unicode="&#x106;" horiz-adv-x="843" 
d="M334 1491l115 223h309l-217 -223h-207zM432 1176q-33 0 -48 -14t-15 -54v-782q0 -40 15 -54t48 -14h385v-258q-324 -4 -385 -4q-84 0 -142 5.5t-103.5 21.5t-72 39.5t-44 64t-23.5 90.5t-6 123v754q0 73 6.5 124t24.5 91t44.5 63.5t72.5 39t103 21t140 5.5l385 -4v-260z
" />
    <glyph glyph-name="cacute" unicode="&#x107;" horiz-adv-x="778" 
d="M311 1262l115 223h309l-217 -223h-207zM401 954q-28 0 -38.5 -11t-10.5 -44v-596q0 -32 10.5 -43.5t38.5 -11.5h328l-2 -248q-277 -8 -326 -8q-78 -3 -136.5 4t-98 25.5t-64.5 42.5t-38.5 63t-18 79t-4.5 97v596q0 50 3 84.5t11.5 70.5t24.5 59t42.5 44.5t64.5 32.5
t91.5 17t122.5 5l328 -10v-248h-328z" />
    <glyph glyph-name="Cdotaccent" unicode="&#x10a;" horiz-adv-x="843" 
d="M432 1176q-33 0 -48 -14t-15 -54v-782q0 -40 15 -54t48 -14h385v-258q-324 -4 -385 -4q-84 0 -142 5.5t-103.5 21.5t-72 39.5t-44 64t-23.5 90.5t-6 123v754q0 73 6.5 124t24.5 91t44.5 63.5t72.5 39t103 21t140 5.5l385 -4v-260zM354 1501v215h195v-215h-195z" />
    <glyph glyph-name="cdotaccent" unicode="&#x10b;" horiz-adv-x="753" 
d="M401 954q-28 0 -38.5 -11t-10.5 -44v-596q0 -32 10.5 -43.5t38.5 -11.5h328l-2 -248q-277 -8 -326 -8q-78 -3 -136.5 4t-98 25.5t-64.5 42.5t-38.5 63t-18 79t-4.5 97v596q0 50 3 84.5t11.5 70.5t24.5 59t42.5 44.5t64.5 32.5t91.5 17t122.5 5l328 -10v-248h-328z
M324 1272v215h194v-215h-194z" />
    <glyph glyph-name="Ccaron" unicode="&#x10c;" horiz-adv-x="843" 
d="M309 1491l-133 223h207l68 -92l71 92h207l-133 -223h-287zM432 1176q-33 0 -48 -14t-15 -54v-782q0 -40 15 -54t48 -14h385v-258q-324 -4 -385 -4q-84 0 -142 5.5t-103.5 21.5t-72 39.5t-44 64t-23.5 90.5t-6 123v754q0 73 6.5 124t24.5 91t44.5 63.5t72.5 39t103 21
t140 5.5l385 -4v-260z" />
    <glyph glyph-name="ccaron" unicode="&#x10d;" horiz-adv-x="753" 
d="M279 1262l-134 223h207l68 -92l72 92h206l-133 -223h-286zM401 954q-28 0 -38.5 -11t-10.5 -44v-596q0 -32 10.5 -43.5t38.5 -11.5h328l-2 -248q-277 -8 -326 -8q-78 -3 -136.5 4t-98 25.5t-64.5 42.5t-38.5 63t-18 79t-4.5 97v596q0 50 3 84.5t11.5 70.5t24.5 59
t42.5 44.5t64.5 32.5t91.5 17t122.5 5l328 -10v-248h-328z" />
    <glyph glyph-name="Dcaron" unicode="&#x10e;" horiz-adv-x="888" 
d="M303 1491l-133 223h207l67 -92l72 92h207l-133 -223h-287zM43 0v1434h424q124 0 196 -14t116.5 -55.5t59.5 -105t15 -172.5v-741q0 -109 -15 -172.5t-59.5 -104.5t-116.5 -55t-196 -14h-424zM467 1167h-96v-901h96q32 0 46.5 13t14.5 51v778q0 36 -14.5 47.5t-46.5 11.5z
" />
    <glyph glyph-name="dcaron" unicode="&#x10f;" horiz-adv-x="847" 
d="M43 279v647q0 86 13.5 139.5t47 84t81 41.5t124.5 11h180v285h310v-1487q-254 -8 -424 -8h-39q-77 0 -129.5 13t-90.5 44.5t-55.5 88t-17.5 141.5zM489 262v678h-83q-32 0 -43 -13.5t-11 -49.5v-549q0 -36 11.5 -51t42.5 -15h83zM836 1292v197h168v-168q0 -53 -20.5 -95
t-72.5 -114l-71 35q11 27 23.5 51.5t16.5 33t6.5 23t2.5 37.5h-53z" />
    <glyph glyph-name="Dcroat" unicode="&#x110;" horiz-adv-x="935" 
d="M4 614v228h84v592h424q124 0 196 -14t116.5 -55.5t59.5 -105t15 -172.5v-741q0 -109 -15 -172.5t-59.5 -104.5t-116.5 -55t-196 -14h-424v614h-84zM512 1167h-96v-325h82v-228h-82v-348h96q32 0 46.5 13t14.5 51v778q0 36 -14.5 47.5t-46.5 11.5z" />
    <glyph glyph-name="dcroat" unicode="&#x111;" horiz-adv-x="862" 
d="M358 1274v145h131v68h310v-68h53v-145h-53v-1274q-254 -8 -424 -8h-39q-77 0 -129.5 13t-90.5 44.5t-55.5 88t-17.5 141.5v647q0 86 13.5 139.5t47 84t81 41.5t124.5 11h180v72h-131zM489 262v678h-83q-32 0 -43 -13.5t-11 -49.5v-549q0 -36 11.5 -51t42.5 -15h83z" />
    <glyph glyph-name="Emacron" unicode="&#x112;" horiz-adv-x="759" 
d="M141 1509v181h492v-181h-492zM375 594v-315h354v-279h-680v1434h680v-279h-354v-283h317v-278h-317z" />
    <glyph glyph-name="emacron" unicode="&#x113;" horiz-adv-x="831" 
d="M401 1212h29q79 0 137 -8t97.5 -26.5t64.5 -42.5t38.5 -61.5t18.5 -77.5t5 -97v-479l-439 -8v-115q0 -32 10.5 -43.5t38.5 -11.5h349v-242q-193 -4 -349 -8q-94 -2 -159 10t-104.5 35t-61 64.5t-28.5 87t-7 114.5v596q0 57 4.5 97t18 77.5t38.5 61.5t64.5 42.5t97.5 26.5
t137 8zM401 961q-28 0 -38.5 -12t-10.5 -44v-246h142v246q0 32 -12 44t-40 12h-41zM172 1280v180h492v-180h-492z" />
    <glyph glyph-name="Ebreve" unicode="&#x114;" horiz-adv-x="759" 
d="M375 594v-315h354v-279h-680v1434h680v-279h-354v-283h317v-278h-317zM426 1483h-76q-72 0 -114 9.5t-64.5 36.5t-29.5 63t-7 100v26h187v-45q0 -23 7.5 -31t26.5 -8h62q19 0 27 8t8 31v45h184v-26q0 -64 -6.5 -100t-29 -63t-64 -36.5t-111.5 -9.5z" />
    <glyph glyph-name="ebreve" unicode="&#x115;" horiz-adv-x="831" 
d="M401 1212h29q79 0 137 -8t97.5 -26.5t64.5 -42.5t38.5 -61.5t18.5 -77.5t5 -97v-479l-439 -8v-115q0 -32 10.5 -43.5t38.5 -11.5h349v-242q-193 -4 -349 -8q-94 -2 -159 10t-104.5 35t-61 64.5t-28.5 87t-7 114.5v596q0 57 4.5 97t18 77.5t38.5 61.5t64.5 42.5t97.5 26.5
t137 8zM401 961q-28 0 -38.5 -12t-10.5 -44v-246h142v246q0 32 -12 44t-40 12h-41zM457 1253h-76q-72 0 -114 9.5t-64.5 36.5t-29.5 63t-7 100v27h186v-45q0 -23 8 -31t27 -8h62q19 0 26.5 8t7.5 31v45h185v-27q0 -64 -6.5 -100t-29 -63t-64 -36.5t-111.5 -9.5z" />
    <glyph glyph-name="Edotaccent" unicode="&#x116;" horiz-adv-x="759" 
d="M375 594v-315h354v-279h-680v1434h680v-279h-354v-283h317v-278h-317zM291 1501v215h194v-215h-194z" />
    <glyph glyph-name="edotaccent" unicode="&#x117;" horiz-adv-x="831" 
d="M401 1212h29q79 0 137 -8t97.5 -26.5t64.5 -42.5t38.5 -61.5t18.5 -77.5t5 -97v-479l-439 -8v-115q0 -32 10.5 -43.5t38.5 -11.5h349v-242q-193 -4 -349 -8q-94 -2 -159 10t-104.5 35t-61 64.5t-28.5 87t-7 114.5v596q0 57 4.5 97t18 77.5t38.5 61.5t64.5 42.5t97.5 26.5
t137 8zM401 961q-28 0 -38.5 -12t-10.5 -44v-246h142v246q0 32 -12 44t-40 12h-41zM319 1272v215h195v-215h-195z" />
    <glyph glyph-name="Eogonek" unicode="&#x118;" horiz-adv-x="759" 
d="M375 594v-315h354v-279l-106 -61q-5 -3 -11.5 -7t-9.5 -5.5t-7 -4.5l-6 -4.5t-4.5 -4t-3 -4t-2 -4t-1.5 -5.5v-6v-7q0 -15 2.5 -19.5t15.5 -4.5h31q12 0 14 3t2 14v5v31h160v-35q0 -33 -1.5 -53.5t-8.5 -43t-20 -35t-37 -20.5t-58 -8h-131q-85 0 -108 25t-23 100v25
q0 12 1 22t5 18.5t6.5 14.5t10 12.5t10.5 10t13 9t13 7.5t16 8t15 7l49 20h-506v1434h680v-279h-354v-283h317v-278h-317z" />
    <glyph glyph-name="eogonek" unicode="&#x119;" horiz-adv-x="831" 
d="M401 1212h29q79 0 137 -8t97.5 -26.5t64.5 -42.5t38.5 -61.5t18.5 -77.5t5 -97v-479l-439 -8v-115q0 -32 10.5 -43.5t38.5 -11.5h349v-242l-107 -61q-5 -3 -11.5 -7t-9.5 -5.5t-7 -4.5l-6 -4.5t-4.5 -4t-3 -4t-2 -4t-1.5 -5.5v-6v-7q0 -15 2.5 -19.5t15.5 -4.5h31
q13 0 15 3.5t2 18.5v31h159v-35q0 -33 -1.5 -53.5t-8.5 -43t-20 -35t-37 -20.5t-58 -8h-131q-85 0 -108 25t-23 100v25q0 12 1 22t5 18.5t6.5 14.5t10 12.5t10.5 10t13 9t13 7.5t16 8t15 7q6 3 20.5 8t20.5 8q-56 0 -166 -4q-94 -2 -159 10t-104.5 35t-61 64.5t-28.5 87
t-7 114.5v596q0 57 4.5 97t18 77.5t38.5 61.5t64.5 42.5t97.5 26.5t137 8zM401 961q-28 0 -38.5 -12t-10.5 -44v-246h142v246q0 32 -12 44t-40 12h-41z" />
    <glyph glyph-name="Ecaron" unicode="&#x11a;" horiz-adv-x="759" 
d="M246 1491l-133 223h206l68 -92l72 92h207l-134 -223h-286zM375 594v-315h354v-279h-680v1434h680v-279h-354v-283h317v-278h-317z" />
    <glyph glyph-name="ecaron" unicode="&#x11b;" horiz-adv-x="831" 
d="M274 1262l-133 223h207l68 -92l71 92h207l-133 -223h-287zM401 1212h29q79 0 137 -8t97.5 -26.5t64.5 -42.5t38.5 -61.5t18.5 -77.5t5 -97v-479l-439 -8v-115q0 -32 10.5 -43.5t38.5 -11.5h349v-242q-193 -4 -349 -8q-94 -2 -159 10t-104.5 35t-61 64.5t-28.5 87
t-7 114.5v596q0 57 4.5 97t18 77.5t38.5 61.5t64.5 42.5t97.5 26.5t137 8zM401 961q-28 0 -38.5 -12t-10.5 -44v-246h142v246q0 32 -12 44t-40 12h-41z" />
    <glyph glyph-name="gcircumflex" unicode="&#x11d;" 
d="M43 920q0 163 72.5 227.5t226.5 64.5h33q76 0 182 -2.5t174 -5.5l68 -2v-1161q0 -69 -4.5 -113.5t-18.5 -83.5t-37.5 -60t-65 -36t-97.5 -18.5t-138 0.5l-323 16v240h327q28 0 37.5 11t9.5 44v43h-153q-156 0 -224.5 60t-68.5 225v551zM150 1262l133 223h286l133 -223
h-206l-72 94l-68 -94h-206zM489 354v586h-83q-32 0 -43 -13.5t-11 -49.5v-457q0 -37 11 -51.5t43 -14.5h83z" />
    <glyph glyph-name="Gbreve" unicode="&#x11e;" horiz-adv-x="897" 
d="M432 1442l344 -8v-258h-344q-34 0 -48.5 -13t-14.5 -53v-791q0 -40 14 -50.5t49 -10.5h35q35 0 49 10.5t14 50.5v238h-92v266h420v-483q0 -73 -6.5 -123.5t-24 -91.5t-44 -65t-72 -40t-103.5 -22t-141 -6h-35q-124 0 -196.5 14t-118 55t-61 105t-15.5 174v754
q0 88 10.5 146t35 100t70.5 64t111 31t164 7zM489 1483h-75q-72 0 -114 9.5t-64.5 36.5t-29.5 63t-7 100v26h186v-45q0 -23 8 -31t27 -8h61q19 0 27 8t8 31v45h184v-26q0 -64 -6.5 -100t-29 -63t-64 -36.5t-111.5 -9.5z" />
    <glyph glyph-name="gbreve" unicode="&#x11f;" 
d="M43 920q0 163 72.5 227.5t226.5 64.5h33q76 0 182 -2.5t174 -5.5l68 -2v-1161q0 -69 -4.5 -113.5t-18.5 -83.5t-37.5 -60t-65 -36t-97.5 -18.5t-138 0.5l-323 16v240h327q28 0 37.5 11t9.5 44v43h-153q-156 0 -224.5 60t-68.5 225v551zM461 1253h-76q-72 0 -114 9.5
t-64.5 36.5t-29.5 63t-7 100v27h186v-45q0 -23 8 -31t27 -8h62q19 0 26.5 8t7.5 31v45h185v-27q0 -64 -6.5 -100t-29 -63t-64 -36.5t-111.5 -9.5zM489 354v586h-83q-32 0 -43 -13.5t-11 -49.5v-457q0 -37 11 -51.5t43 -14.5h83z" />
    <glyph glyph-name="Gdotaccent" unicode="&#x120;" horiz-adv-x="897" 
d="M432 1442l344 -8v-258h-344q-34 0 -48.5 -13t-14.5 -53v-791q0 -40 14 -50.5t49 -10.5h35q35 0 49 10.5t14 50.5v238h-92v266h420v-483q0 -73 -6.5 -123.5t-24 -91.5t-44 -65t-72 -40t-103.5 -22t-141 -6h-35q-124 0 -196.5 14t-118 55t-61 105t-15.5 174v754
q0 88 10.5 146t35 100t70.5 64t111 31t164 7zM352 1501v215h195v-215h-195z" />
    <glyph glyph-name="gdotaccent" unicode="&#x121;" 
d="M43 920q0 163 72.5 227.5t226.5 64.5h33q76 0 182 -2.5t174 -5.5l68 -2v-1161q0 -69 -4.5 -113.5t-18.5 -83.5t-37.5 -60t-65 -36t-97.5 -18.5t-138 0.5l-323 16v240h327q28 0 37.5 11t9.5 44v43h-153q-156 0 -224.5 60t-68.5 225v551zM489 354v586h-83q-32 0 -43 -13.5
t-11 -49.5v-457q0 -37 11 -51.5t43 -14.5h83zM324 1272v215h194v-215h-194z" />
    <glyph glyph-name="Gcommaaccent" unicode="&#x122;" horiz-adv-x="897" 
d="M342 -301v229h201v-194q0 -62 -23 -113.5t-82 -132.5l-86 45q11 26 23 51.5t15.5 33t7.5 21.5t4.5 25t0.5 35h-61zM432 1442l344 -8v-258h-344q-34 0 -48.5 -13t-14.5 -53v-791q0 -40 14 -50.5t49 -10.5h35q35 0 49 10.5t14 50.5v238h-92v266h420v-483q0 -73 -6.5 -123.5
t-24 -91.5t-44 -65t-72 -40t-103.5 -22t-141 -6h-35q-124 0 -196.5 14t-118 55t-61 105t-15.5 174v754q0 88 10.5 146t35 100t70.5 64t111 31t164 7z" />
    <glyph glyph-name="gcommaaccent" unicode="&#x123;" 
d="M43 920q0 163 72.5 227.5t226.5 64.5h33q76 0 182 -2.5t174 -5.5l68 -2v-1161q0 -69 -4.5 -113.5t-18.5 -83.5t-37.5 -60t-65 -36t-97.5 -18.5t-138 0.5l-323 16v240h327q28 0 37.5 11t9.5 44v43h-153q-156 0 -224.5 60t-68.5 225v551zM489 354v586h-83q-32 0 -43 -13.5
t-11 -49.5v-457q0 -37 11 -51.5t43 -14.5h83zM535 1511v-229h-201v195q0 62 23 113t81 132l86 -45q-11 -26 -23 -51.5t-15.5 -33t-7.5 -21.5t-4.5 -25t-0.5 -35h62z" />
    <glyph glyph-name="Hbar" unicode="&#x126;" horiz-adv-x="948" 
d="M0 1047v213h66v174h325v-174h164v174h326v-174h65v-213h-65v-1047h-326v586h-164v-586h-325v1047h-66zM391 872h164v175h-164v-175z" />
    <glyph glyph-name="hbar" unicode="&#x127;" horiz-adv-x="858" 
d="M0 1253v125h59v109h310v-109h176v-125h-176v-51h192q102 0 153.5 -21.5t75 -80t23.5 -174.5v-926h-309v877q0 36 -10.5 49.5t-42.5 13.5h-82v-940h-310v1253h-59z" />
    <glyph glyph-name="Imacron" unicode="&#x12a;" horiz-adv-x="423" 
d="M49 0v1434h326v-1434h-326zM-33 1509v181h492v-181h-492z" />
    <glyph glyph-name="imacron" unicode="&#x12b;" horiz-adv-x="395" 
d="M43 0v1202h309v-1202h-309zM-45 1280v180h491v-180h-491z" />
    <glyph glyph-name="Ibreve" unicode="&#x12c;" horiz-adv-x="423" 
d="M49 0v1434h326v-1434h-326zM254 1483h-76q-72 0 -114 9.5t-64.5 36.5t-29.5 63t-7 100v26h187v-45q0 -23 7.5 -31t26.5 -8h62q19 0 27 8t8 31v45h184v-26q0 -64 -6.5 -100t-29 -63t-64 -36.5t-111.5 -9.5z" />
    <glyph glyph-name="ibreve" unicode="&#x12d;" horiz-adv-x="395" 
d="M43 0v1202h309v-1202h-309zM240 1253h-76q-72 0 -114 9.5t-64.5 36.5t-29.5 63t-7 100v27h186v-45q0 -23 8 -31t27 -8h61q19 0 27 8t8 31v45h185v-27q0 -64 -6.5 -100t-29 -63t-64 -36.5t-111.5 -9.5z" />
    <glyph glyph-name="Iogonek" unicode="&#x12e;" horiz-adv-x="423" 
d="M49 0v1434h326v-1434h-76l-106 -61l-12.5 -7.5t-10.5 -6.5l-7.5 -5t-6.5 -4.5t-4 -4t-3 -5t-1.5 -5.5t-0.5 -7v-7q0 -15 3 -19.5t16 -4.5h31q12 0 14 3t2 14v5v31h160v-35q0 -33 -1.5 -53.5t-8.5 -43t-20 -35t-37 -20.5t-58 -8h-131q-85 0 -108 25t-23 100v25q0 12 1 22
t5 18.5t6.5 14.5t10 12.5t10.5 10t13 9t13 7.5t16 8t15 7l49 20h-76z" />
    <glyph glyph-name="iogonek" unicode="&#x12f;" horiz-adv-x="395" 
d="M43 0v1202h309v-1202h-71l-107 -61q-5 -3 -11.5 -7t-9.5 -5.5t-7 -4.5l-6 -4.5t-4.5 -4t-3 -4t-2 -4t-1.5 -5.5v-6v-7q0 -15 2.5 -19.5t15.5 -4.5h31q13 0 15 3.5t2 18.5v31h159v-35q0 -33 -1.5 -53.5t-8.5 -43t-20 -35t-37 -20.5t-58 -8h-131q-85 0 -108 25t-23 100v25
q0 12 1 22t5 18.5t6.5 14.5t10 12.5t10.5 10t13 9t13 7.5t16 8t15 7l49 20h-63zM39 1266v211h317v-211h-317z" />
    <glyph glyph-name="Idotaccent" unicode="&#x130;" horiz-adv-x="423" 
d="M49 0v1434h326v-1434h-326zM115 1501v215h194v-215h-194z" />
    <glyph glyph-name="dotlessi" unicode="&#x131;" horiz-adv-x="395" 
d="M43 0v1202h309v-1202h-309z" />
    <glyph glyph-name="Kcommaaccent" unicode="&#x136;" horiz-adv-x="911" 
d="M342 -301v229h201v-194q0 -62 -23 -113.5t-82 -132.5l-86 45q11 26 23 51.5t15.5 33t7.5 21.5t4.5 25t0.5 35h-61zM375 526v-526h-326v1434h326v-545h41l125 545h356l-188 -727l196 -707h-360l-121 526h-49z" />
    <glyph glyph-name="kcommaaccent" unicode="&#x137;" horiz-adv-x="890" 
d="M315 -301v229h201v-194q0 -63 -23 -114t-81 -132l-86 45q11 26 23 51.5t15.5 33t7.5 21.5t4.5 25t0.5 35h-62zM532 0l-122 485h-58v-485h-309v1487h309v-711h56l118 426h351l-172 -573l178 -629h-351z" />
    <glyph glyph-name="Lacute" unicode="&#x139;" horiz-adv-x="706" 
d="M98 1491l115 223h309l-217 -223h-207zM49 0v1434h326v-1155h323v-279h-649z" />
    <glyph glyph-name="lacute" unicode="&#x13a;" horiz-adv-x="395" 
d="M88 1534l115 223h309l-217 -223h-207zM43 0v1487h309v-1487h-309z" />
    <glyph glyph-name="Lcommaaccent" unicode="&#x13b;" horiz-adv-x="706" 
d="M258 -301v229h201v-194q0 -62 -23 -113.5t-82 -132.5l-86 45q11 26 23 51.5t15.5 33t7.5 21.5t4.5 25t0.5 35h-61zM49 0v1434h326v-1155h323v-279h-649z" />
    <glyph glyph-name="lcommaaccent" unicode="&#x13c;" horiz-adv-x="395" 
d="M100 -301v229h201v-194q0 -63 -23 -114t-81 -132l-86 45q11 26 23 51.5t15.5 33t7.5 21.5t4.5 25t0.5 35h-62zM43 0v1487h309v-1487h-309z" />
    <glyph glyph-name="Lcaron" unicode="&#x13d;" horiz-adv-x="706" 
d="M508 1239v197h168v-168q0 -53 -20.5 -95.5t-71.5 -113.5l-72 35q11 27 23.5 51.5t16.5 33t6.5 23t2.5 37.5h-53zM49 0v1434h326v-1155h323v-279h-649z" />
    <glyph glyph-name="lcaron" unicode="&#x13e;" horiz-adv-x="393" 
d="M432 1292v197h168v-168q0 -53 -20.5 -95.5t-71.5 -113.5l-72 35q11 27 23.5 51.5t16.5 33t6.5 23t2.5 37.5h-53zM43 0v1487h309v-1487h-309z" />
    <glyph glyph-name="Ldot" unicode="&#x13f;" horiz-adv-x="706" 
d="M49 0v1434h326v-1155h323v-279h-649zM455 621v215h194v-215h-194z" />
    <glyph glyph-name="ldot" unicode="&#x140;" horiz-adv-x="610" 
d="M43 0v1487h309v-1487h-309zM401 621v215h195v-215h-195z" />
    <glyph glyph-name="Lslash" unicode="&#x141;" horiz-adv-x="747" 
d="M2 461v272l90 43v658h326v-502l143 69v-272l-143 -70v-380h323v-279h-649v504z" />
    <glyph glyph-name="lslash" unicode="&#x142;" horiz-adv-x="434" 
d="M0 489v273l59 31v694h310v-533l65 35v-280l-65 -33v-676h-310v518z" />
    <glyph glyph-name="Nacute" unicode="&#x143;" horiz-adv-x="911" 
d="M326 1491l114 223h310l-218 -223h-206zM49 1434h318l196 -678h2v678h299v-1434h-334l-165 631h-3v-631h-313v1434z" />
    <glyph glyph-name="nacute" unicode="&#x144;" 
d="M487 0v877q0 36 -10.5 49.5t-42.5 13.5h-82v-940h-309v1202q277 10 424 10h39q77 0 128.5 -12.5t89.5 -44.5t55.5 -88t17.5 -141v-926h-310zM291 1262l115 223h309l-217 -223h-207z" />
    <glyph glyph-name="Ncommaaccent" unicode="&#x145;" horiz-adv-x="911" 
d="M342 -301v229h201v-194q0 -62 -23 -113.5t-82 -132.5l-86 45q11 26 23 51.5t15.5 33t7.5 21.5t4.5 25t0.5 35h-61zM49 1434h318l196 -678h2v678h299v-1434h-334l-165 631h-3v-631h-313v1434z" />
    <glyph glyph-name="ncommaaccent" unicode="&#x146;" 
d="M487 0v877q0 36 -10.5 49.5t-42.5 13.5h-82v-940h-309v1202q277 10 424 10h39q77 0 128.5 -12.5t89.5 -44.5t55.5 -88t17.5 -141v-926h-310zM319 -301v229h201v-194q0 -63 -23 -114t-81 -132l-86 45q11 26 23 51.5t15.5 33t7.5 21.5t4.5 25t0.5 35h-62z" />
    <glyph glyph-name="Ncaron" unicode="&#x147;" horiz-adv-x="911" 
d="M315 1491l-133 223h207l68 -92l71 92h207l-133 -223h-287zM49 1434h318l196 -678h2v678h299v-1434h-334l-165 631h-3v-631h-313v1434z" />
    <glyph glyph-name="ncaron" unicode="&#x148;" 
d="M487 0v877q0 36 -10.5 49.5t-42.5 13.5h-82v-940h-309v1202q277 10 424 10h39q77 0 128.5 -12.5t89.5 -44.5t55.5 -88t17.5 -141v-926h-310zM279 1262l-134 223h207l68 -92l72 92h206l-133 -223h-286z" />
    <glyph glyph-name="Omacron" unicode="&#x14c;" horiz-adv-x="903" 
d="M209 1509v181h491v-181h-491zM432 1442h39q124 0 196.5 -14t118 -54.5t61 -105t15.5 -174.5v-754q0 -110 -15.5 -174t-61 -105t-118 -55t-196.5 -14h-39q-163 0 -245 30.5t-114 102.5t-32 215v754q0 110 15.5 174.5t61 105t118 54.5t196.5 14zM434 258h35q34 0 50 13
t16 53v786q0 40 -16 53t-50 13h-35q-34 0 -49.5 -13t-15.5 -53v-786q0 -40 15.5 -53t49.5 -13z" />
    <glyph glyph-name="omacron" unicode="&#x14d;" horiz-adv-x="837" 
d="M176 1280v180h492v-180h-492zM401 1212h37q79 0 136.5 -8t97.5 -26.5t64.5 -42.5t38 -62t18 -77.5t4.5 -96.5v-596q0 -57 -4.5 -96t-18 -77t-38 -61.5t-64.5 -42t-97.5 -26.5t-136.5 -8h-37q-79 0 -137 8t-97.5 26.5t-64.5 42t-38.5 61.5t-18 77t-4.5 96v596q0 57 4.5 97
t18 77.5t38.5 61.5t64.5 42.5t97.5 26.5t137 8zM401 248h37q28 0 38.5 11.5t10.5 43.5l2 596q0 33 -11.5 45t-39.5 12h-35q-30 0 -40.5 -12t-10.5 -45v-596q0 -32 10.5 -43.5t38.5 -11.5z" />
    <glyph glyph-name="Obreve" unicode="&#x14e;" horiz-adv-x="903" 
d="M432 1442h39q124 0 196.5 -14t118 -54.5t61 -105t15.5 -174.5v-754q0 -110 -15.5 -174t-61 -105t-118 -55t-196.5 -14h-39q-163 0 -245 30.5t-114 102.5t-32 215v754q0 110 15.5 174.5t61 105t118 54.5t196.5 14zM434 258h35q34 0 50 13t16 53v786q0 40 -16 53t-50 13
h-35q-34 0 -49.5 -13t-15.5 -53v-786q0 -40 15.5 -53t49.5 -13zM494 1483h-76q-72 0 -114 9.5t-64.5 36.5t-29.5 63t-7 100v26h186v-45q0 -23 8 -31t27 -8h61q19 0 27 8t8 31v45h185v-26q0 -64 -6.5 -100t-29 -63t-64 -36.5t-111.5 -9.5z" />
    <glyph glyph-name="obreve" unicode="&#x14f;" horiz-adv-x="837" 
d="M401 1212h37q79 0 136.5 -8t97.5 -26.5t64.5 -42.5t38 -62t18 -77.5t4.5 -96.5v-596q0 -57 -4.5 -96t-18 -77t-38 -61.5t-64.5 -42t-97.5 -26.5t-136.5 -8h-37q-79 0 -137 8t-97.5 26.5t-64.5 42t-38.5 61.5t-18 77t-4.5 96v596q0 57 4.5 97t18 77.5t38.5 61.5t64.5 42.5
t97.5 26.5t137 8zM401 248h37q28 0 38.5 11.5t10.5 43.5l2 596q0 33 -11.5 45t-39.5 12h-35q-30 0 -40.5 -12t-10.5 -45v-596q0 -32 10.5 -43.5t38.5 -11.5zM461 1253h-76q-72 0 -114 9.5t-64.5 36.5t-29.5 63t-7 100v27h186v-45q0 -23 8 -31t27 -8h62q19 0 26.5 8t7.5 31
v45h185v-27q0 -64 -6.5 -100t-29 -63t-64 -36.5t-111.5 -9.5z" />
    <glyph glyph-name="Ohungarumlaut" unicode="&#x150;" horiz-adv-x="903" 
d="M201 1491l131 223h258l-182 -223h-207zM498 1491l129 223h311l-233 -223h-207zM432 1442h39q124 0 196.5 -14t118 -54.5t61 -105t15.5 -174.5v-754q0 -110 -15.5 -174t-61 -105t-118 -55t-196.5 -14h-39q-163 0 -245 30.5t-114 102.5t-32 215v754q0 110 15.5 174.5
t61 105t118 54.5t196.5 14zM434 258h35q34 0 50 13t16 53v786q0 40 -16 53t-50 13h-35q-34 0 -49.5 -13t-15.5 -53v-786q0 -40 15.5 -53t49.5 -13z" />
    <glyph glyph-name="ohungarumlaut" unicode="&#x151;" horiz-adv-x="837" 
d="M174 1262l131 223h258l-182 -223h-207zM471 1262l129 223h311l-233 -223h-207zM401 1212h37q79 0 136.5 -8t97.5 -26.5t64.5 -42.5t38 -62t18 -77.5t4.5 -96.5v-596q0 -57 -4.5 -96t-18 -77t-38 -61.5t-64.5 -42t-97.5 -26.5t-136.5 -8h-37q-79 0 -137 8t-97.5 26.5
t-64.5 42t-38.5 61.5t-18 77t-4.5 96v596q0 57 4.5 97t18 77.5t38.5 61.5t64.5 42.5t97.5 26.5t137 8zM401 248h37q28 0 38.5 11.5t10.5 43.5l2 596q0 33 -11.5 45t-39.5 12h-35q-30 0 -40.5 -12t-10.5 -45v-596q0 -32 10.5 -43.5t38.5 -11.5z" />
    <glyph glyph-name="OE" unicode="&#x152;" horiz-adv-x="1259" 
d="M1233 0h-801q-122 0 -196 16t-118.5 59t-60.5 108t-16 173v721q0 73 6.5 124.5t24 93.5t45 67t72.5 42t103 23.5t140 6.5h801v-279h-354v-283h317v-278h-317v-315h354v-279zM432 1171q-33 0 -48 -14t-15 -55v-770q0 -41 15 -55.5t48 -14.5h121v909h-121z" />
    <glyph glyph-name="oe" unicode="&#x153;" horiz-adv-x="1277" 
d="M401 1212h37q130 0 203 -24q77 24 205 24h28q79 0 137 -8t97.5 -26.5t64.5 -42.5t38.5 -61.5t18.5 -77.5t5 -97v-479l-438 -8v-109v-6q0 -32 10.5 -43.5t38.5 -11.5h348v-242q-192 -4 -348 -8q-128 -3 -211 20q-82 -20 -197 -20h-37q-79 0 -137 8t-97.5 26.5t-64.5 42
t-38.5 61.5t-18 77t-4.5 96v596q0 57 4.5 97t18 77.5t38.5 61.5t64.5 42.5t97.5 26.5t137 8zM401 248h37q40 0 47 28v27v596v33q-11 24 -47 24h-35q-30 0 -40.5 -12t-10.5 -45v-596q0 -32 10.5 -43.5t38.5 -11.5zM846 961q-25 0 -36.5 -9.5t-12.5 -33.5v-19v-240h141v246
q0 32 -11.5 44t-39.5 12h-41z" />
    <glyph glyph-name="Racute" unicode="&#x154;" horiz-adv-x="878" 
d="M299 1491l115 223h309l-217 -223h-207zM43 0v1434h426q82 0 139 -6t101.5 -21.5t71 -39.5t44 -64t23.5 -89.5t6 -121.5v-162q0 -99 -18.5 -152t-56 -75t-109.5 -27q107 -14 145.5 -70.5t38.5 -202.5v-403h-328v440q0 40 -15.5 67t-43.5 28h-96v-535h-328zM371 1167v-381
h98q30 0 43.5 12t13.5 48v264q0 35 -14 46t-45 11h-96z" />
    <glyph glyph-name="racute" unicode="&#x155;" horiz-adv-x="618" 
d="M164 1262l115 223h309l-217 -223h-207zM43 0v999q0 58 22 101.5t57.5 67t74 34t79.5 10.5h27l307 -12v-248q-199 -24 -219 -26q-26 -1 -32.5 -10.5t-6.5 -36.5v-879h-309z" />
    <glyph glyph-name="Rcommaaccent" unicode="&#x156;" horiz-adv-x="878" 
d="M352 -301v229h201v-194q0 -63 -23 -114t-81 -132l-87 45q11 26 23 51.5t16 33.5t8 21.5t4.5 25t0.5 34.5h-62zM43 0v1434h426q82 0 139 -6t101.5 -21.5t71 -39.5t44 -64t23.5 -89.5t6 -121.5v-162q0 -99 -18.5 -152t-56 -75t-109.5 -27q107 -14 145.5 -70.5t38.5 -202.5
v-403h-328v440q0 40 -15.5 67t-43.5 28h-96v-535h-328zM371 1167v-381h98q30 0 43.5 12t13.5 48v264q0 35 -14 46t-45 11h-96z" />
    <glyph glyph-name="rcommaaccent" unicode="&#x157;" horiz-adv-x="618" 
d="M98 -301v229h201v-194q0 -63 -23 -114t-81 -132l-86 45q11 26 23 51.5t15.5 33t7.5 21.5t4.5 25t0.5 35h-62zM43 0v999q0 58 22 101.5t57.5 67t74 34t79.5 10.5h27l307 -12v-248q-199 -24 -219 -26q-26 -1 -32.5 -10.5t-6.5 -36.5v-879h-309z" />
    <glyph glyph-name="Rcaron" unicode="&#x158;" horiz-adv-x="878" 
d="M297 1491l-133 223h207l67 -92l72 92h207l-133 -223h-287zM43 0v1434h426q82 0 139 -6t101.5 -21.5t71 -39.5t44 -64t23.5 -89.5t6 -121.5v-162q0 -99 -18.5 -152t-56 -75t-109.5 -27q107 -14 145.5 -70.5t38.5 -202.5v-403h-328v440q0 40 -15.5 67t-43.5 28h-96v-535
h-328zM371 1167v-381h98q30 0 43.5 12t13.5 48v264q0 35 -14 46t-45 11h-96z" />
    <glyph glyph-name="rcaron" unicode="&#x159;" horiz-adv-x="618" 
d="M168 1262l-133 223h207l67 -92l72 92h207l-133 -223h-287zM43 0v999q0 58 22 101.5t57.5 67t74 34t79.5 10.5h27l307 -12v-248q-199 -24 -219 -26q-26 -1 -32.5 -10.5t-6.5 -36.5v-879h-309z" />
    <glyph glyph-name="Sacute" unicode="&#x15a;" horiz-adv-x="864" 
d="M299 1491l115 223h309l-217 -223h-207zM420 1442l368 -8v-271h-368q-34 0 -49 -12.5t-15 -52.5v-68q0 -36 3.5 -55t22 -35t38.5 -25t72 -28l126 -45q43 -16 64 -24.5t51.5 -25.5t45 -35.5t30 -48t21.5 -69t6 -92.5v-207q0 -110 -15 -174.5t-60 -106.5t-118.5 -55.5
t-198.5 -11.5l-401 8v270h401q34 0 50 13t16 53v115q0 19 -3.5 33t-6.5 22.5t-16 17t-19.5 12t-30.5 13t-35 14.5l-141 51q-43 17 -65 27t-53.5 28t-47.5 37.5t-33 49t-23.5 69t-6.5 90.5v179q0 111 15 175.5t60 106t118.5 55t197.5 11.5z" />
    <glyph glyph-name="sacute" unicode="&#x15b;" horiz-adv-x="798" 
d="M260 1262l115 223h309l-217 -223h-207zM393 1212l318 -10v-248h-318q-29 0 -40 -10t-11 -41v-49q0 -38 13.5 -51.5t68.5 -36.5l158 -53q100 -35 142 -87.5t42 -158.5v-150q0 -58 -4.5 -98t-17 -80.5t-37 -65.5t-64 -45t-98.5 -28.5t-139 -7.5l-359 8v250h359
q27 0 39 15.5t12 49.5v91q0 13 -3 22t-5 14.5t-12.5 12t-15.5 8.5t-23.5 9.5t-26.5 10.5l-154 60q-29 12 -44 18.5t-38 19t-35 24t-27 30.5t-22.5 40t-12.5 51t-5 67v106q0 59 4 97.5t16.5 78t36.5 62.5t63.5 42t99 26.5t140.5 6.5z" />
    <glyph glyph-name="Scedilla" unicode="&#x15e;" horiz-adv-x="864" 
d="M420 1442l368 -8v-271h-368q-34 0 -49 -12.5t-15 -52.5v-68q0 -36 3.5 -55t22 -35t38.5 -25t72 -28l126 -45q43 -16 64 -24.5t51.5 -25.5t45 -35.5t30 -48t21.5 -69t6 -92.5v-207q0 -103 -13.5 -165t-51 -104.5t-100 -59.5t-165.5 -19l-49 -248h-226l101 250l-289 6v270
h401q34 0 50 13t16 53v115q0 19 -3.5 33t-6.5 22.5t-16 17t-19.5 12t-30.5 13t-35 14.5l-141 51q-43 17 -65 27t-53.5 28t-47.5 37.5t-33 49t-23.5 69t-6.5 90.5v179q0 111 15 175.5t60 106t118.5 55t197.5 11.5z" />
    <glyph glyph-name="scedilla" unicode="&#x15f;" horiz-adv-x="798" 
d="M393 1212l318 -10v-248h-318q-29 0 -40 -10t-11 -41v-49q0 -38 13.5 -51.5t68.5 -36.5l158 -53q100 -35 142 -87.5t42 -158.5v-150q0 -64 -5 -107t-22 -85t-47.5 -67.5t-82.5 -42.5t-126 -21l-49 -250h-225l100 250l-262 6v250h359q27 0 39 15.5t12 49.5v91q0 13 -3 22
t-5 14.5t-12.5 12t-15.5 8.5t-23.5 9.5t-26.5 10.5l-154 60q-29 12 -44 18.5t-38 19t-35 24t-27 30.5t-22.5 40t-12.5 51t-5 67v106q0 59 4 97.5t16.5 78t36.5 62.5t63.5 42t99 26.5t140.5 6.5z" />
    <glyph glyph-name="Scaron" unicode="&#x160;" horiz-adv-x="864" 
d="M291 1491l-133 223h207l67 -92l72 92h207l-133 -223h-287zM420 1442l368 -8v-271h-368q-34 0 -49 -12.5t-15 -52.5v-68q0 -36 3.5 -55t22 -35t38.5 -25t72 -28l126 -45q43 -16 64 -24.5t51.5 -25.5t45 -35.5t30 -48t21.5 -69t6 -92.5v-207q0 -110 -15 -174.5t-60 -106.5
t-118.5 -55.5t-198.5 -11.5l-401 8v270h401q34 0 50 13t16 53v115q0 19 -3.5 33t-6.5 22.5t-16 17t-19.5 12t-30.5 13t-35 14.5l-141 51q-43 17 -65 27t-53.5 28t-47.5 37.5t-33 49t-23.5 69t-6.5 90.5v179q0 111 15 175.5t60 106t118.5 55t197.5 11.5z" />
    <glyph glyph-name="scaron" unicode="&#x161;" horiz-adv-x="798" 
d="M262 1262l-133 223h207l67 -92l72 92h207l-133 -223h-287zM393 1212l318 -10v-248h-318q-29 0 -40 -10t-11 -41v-49q0 -38 13.5 -51.5t68.5 -36.5l158 -53q100 -35 142 -87.5t42 -158.5v-150q0 -58 -4.5 -98t-17 -80.5t-37 -65.5t-64 -45t-98.5 -28.5t-139 -7.5l-359 8
v250h359q27 0 39 15.5t12 49.5v91q0 13 -3 22t-5 14.5t-12.5 12t-15.5 8.5t-23.5 9.5t-26.5 10.5l-154 60q-29 12 -44 18.5t-38 19t-35 24t-27 30.5t-22.5 40t-12.5 51t-5 67v106q0 59 4 97.5t16.5 78t36.5 62.5t63.5 42t99 26.5t140.5 6.5z" />
    <glyph glyph-name="Tcommaaccent" unicode="&#x162;" horiz-adv-x="823" 
d="M309 -301v229h201v-194q0 -63 -23 -114t-81 -132l-87 45q11 26 23 51.5t16 33.5t8 21.5t4.5 25t0.5 34.5h-62zM575 1155v-1155h-327v1155h-242v279h811v-279h-242z" />
    <glyph glyph-name="tcommaaccent" unicode="&#x163;" horiz-adv-x="581" 
d="M211 -301v229h201v-194q0 -62 -23 -113.5t-82 -132.5l-86 45q11 26 23 51.5t15.5 33t7.5 21.5t4.5 25t0.5 35h-61zM553 1202v-262h-147v-639q0 -37 36 -37h129v-264l-129 -8q-68 -2 -119.5 -1t-90 13.5t-64.5 32t-42 54.5t-23 81.5t-7 112.5v655h-82v262h82v264h310v-264
h147z" />
    <glyph glyph-name="Tcaron" unicode="&#x164;" horiz-adv-x="823" 
d="M270 1491l-133 223h207l68 -92l71 92h207l-133 -223h-287zM575 1155v-1155h-327v1155h-242v279h811v-279h-242z" />
    <glyph glyph-name="tcaron" unicode="&#x165;" horiz-adv-x="598" 
d="M553 1325v197h168v-168q0 -53 -20.5 -95.5t-71.5 -113.5l-72 35q11 27 23.5 51.5t16.5 33t6.5 23t2.5 37.5h-53zM553 1202v-262h-147v-639q0 -37 36 -37h129v-264l-129 -8q-68 -2 -119.5 -1t-90 13.5t-64.5 32t-42 54.5t-23 81.5t-7 112.5v655h-82v262h82v264h310v-264
h147z" />
    <glyph glyph-name="Umacron" unicode="&#x16a;" horiz-adv-x="903" 
d="M41 1434h328v-1108q0 -42 12 -55t45 -13h51q32 0 45 13.5t13 54.5v1108h327v-1094q0 -110 -15.5 -174t-61 -105t-118 -55t-196.5 -14h-39q-124 0 -196.5 14t-118 55t-61 105t-15.5 174v1094zM209 1509v181h491v-181h-491z" />
    <glyph glyph-name="umacron" unicode="&#x16b;" horiz-adv-x="839" 
d="M352 1202v-874q0 -36 11.5 -51t42.5 -15h81v940h310v-1202q-256 -8 -422 -8h-39q-77 0 -129.5 13t-90.5 44.5t-55.5 88t-17.5 141.5v923h309zM176 1280v180h492v-180h-492z" />
    <glyph glyph-name="Ubreve" unicode="&#x16c;" horiz-adv-x="903" 
d="M41 1434h328v-1108q0 -42 12 -55t45 -13h51q32 0 45 13.5t13 54.5v1108h327v-1094q0 -110 -15.5 -174t-61 -105t-118 -55t-196.5 -14h-39q-124 0 -196.5 14t-118 55t-61 105t-15.5 174v1094zM494 1483h-76q-72 0 -114 9.5t-64.5 36.5t-29.5 63t-7 100v26h186v-45
q0 -23 8 -31t27 -8h61q19 0 27 8t8 31v45h185v-26q0 -64 -6.5 -100t-29 -63t-64 -36.5t-111.5 -9.5z" />
    <glyph glyph-name="ubreve" unicode="&#x16d;" horiz-adv-x="839" 
d="M352 1202v-874q0 -36 11.5 -51t42.5 -15h81v940h310v-1202q-256 -8 -422 -8h-39q-77 0 -129.5 13t-90.5 44.5t-55.5 88t-17.5 141.5v923h309zM461 1253h-76q-72 0 -114 9.5t-64.5 36.5t-29.5 63t-7 100v27h186v-45q0 -23 8 -31t27 -8h62q19 0 26.5 8t7.5 31v45h185v-27
q0 -64 -6.5 -100t-29 -63t-64 -36.5t-111.5 -9.5z" />
    <glyph glyph-name="Uring" unicode="&#x16e;" horiz-adv-x="903" 
d="M428 1815h51q99 0 126.5 -30.5t27.5 -121.5v-33q0 -46 -4.5 -72t-21 -45.5t-46.5 -26.5t-82 -7h-51q-52 0 -82 7t-46.5 26.5t-21 45.5t-4.5 72v33q0 91 27.5 121.5t126.5 30.5zM477 1731h-47q-43 0 -53 -11t-10 -49v-47q0 -39 10.5 -50t52.5 -11h47q43 0 54.5 11.5
t11.5 49.5v47q0 38 -11.5 49t-54.5 11zM41 1434h328v-1108q0 -42 12 -55t45 -13h51q32 0 45 13.5t13 54.5v1108h327v-1094q0 -110 -15.5 -174t-61 -105t-118 -55t-196.5 -14h-39q-124 0 -196.5 14t-118 55t-61 105t-15.5 174v1094z" />
    <glyph glyph-name="uring" unicode="&#x16f;" horiz-adv-x="839" 
d="M352 1202v-874q0 -36 11.5 -51t42.5 -15h81v940h310v-1202q-256 -8 -422 -8h-39q-77 0 -129.5 13t-90.5 44.5t-55.5 88t-17.5 141.5v923h309zM395 1585h51q99 0 126.5 -30t27.5 -121v-33q0 -46 -5 -72t-21 -46t-46 -27t-82 -7h-51q-52 0 -82 7t-46 27t-20.5 45.5
t-4.5 72.5v33q0 91 27 121t126 30zM444 1501h-47q-43 0 -53 -10.5t-10 -48.5v-47q0 -39 10.5 -50.5t52.5 -11.5h47q43 0 54.5 12t11.5 50v47q0 38 -11.5 48.5t-54.5 10.5z" />
    <glyph glyph-name="Uhungarumlaut" unicode="&#x170;" horiz-adv-x="903" 
d="M41 1434h328v-1108q0 -42 12 -55t45 -13h51q32 0 45 13.5t13 54.5v1108h327v-1094q0 -110 -15.5 -174t-61 -105t-118 -55t-196.5 -14h-39q-124 0 -196.5 14t-118 55t-61 105t-15.5 174v1094zM193 1491l131 223h258l-183 -223h-206zM489 1491l129 223h312l-234 -223h-207z
" />
    <glyph glyph-name="uhungarumlaut" unicode="&#x171;" horiz-adv-x="839" 
d="M352 1202v-874q0 -36 11.5 -51t42.5 -15h81v940h310v-1202q-256 -8 -422 -8h-39q-77 0 -129.5 13t-90.5 44.5t-55.5 88t-17.5 141.5v923h309zM461 1262l129 223h311l-233 -223h-207zM164 1262l131 223h258l-182 -223h-207z" />
    <glyph glyph-name="Uogonek" unicode="&#x172;" horiz-adv-x="903" 
d="M41 1434h328v-1108q0 -42 12 -55t45 -13h51q32 0 45 13.5t13 54.5v1108h327v-1094q0 -102 -13.5 -163.5t-50.5 -103.5t-98 -59t-161 -20l-105 -62q-5 -3 -11.5 -7t-9.5 -5.5t-7 -4.5l-6 -4.5t-4.5 -4t-3 -4t-2 -4t-1.5 -5.5v-6v-6q0 -15 3 -19.5t16 -4.5h30q13 0 15 3.5
t2 18.5v31h159v-35q0 -33 -1.5 -53.5t-8.5 -43t-20 -35t-37 -20.5t-58 -8h-131q-85 0 -108 25t-23 100v25q0 13 2.5 24.5t4.5 19.5t9.5 16t10.5 12t14 11t14.5 8.5t17.5 8.5t17 8l48 21q-100 3 -161.5 20t-98.5 59t-50.5 104t-13.5 163v1094z" />
    <glyph glyph-name="uogonek" unicode="&#x173;" horiz-adv-x="839" 
d="M352 1202v-874q0 -36 11.5 -51t42.5 -15h81v940h310v-1202q-37 -2 -80 -2l-80 -47q-5 -3 -11.5 -7t-9.5 -5.5t-7 -4.5l-6 -4.5t-4.5 -4t-3 -4t-2 -4t-1.5 -5.5v-6v-6q0 -15 2.5 -20t15.5 -5h31q6 0 9.5 0.5t5 3.5t1.5 5v9v5v30h160v-34q0 -33 -1.5 -53.5t-8.5 -43
t-20 -35t-37 -20.5t-58 -8h-131q-85 0 -108 25t-23 100v24q0 12 1 22t5 18.5t6.5 14.5t10 12.5t10.5 10t13 9t13 7.5t16 8t15 7l2 2q-51 -2 -147 -2h-39q-77 0 -129.5 13t-90.5 44.5t-55.5 88t-17.5 141.5v923h309z" />
    <glyph glyph-name="Wcircumflex" unicode="&#x174;" horiz-adv-x="1337" 
d="M391 1491l133 223h287l133 -223h-207l-71 94l-68 -94h-207zM10 1434h328l80 -992h2l100 992h297l101 -992h2l79 992h330l-139 -1434h-461l-59 666h-2l-60 -666h-461z" />
    <glyph glyph-name="wcircumflex" unicode="&#x175;" horiz-adv-x="1269" 
d="M358 1262l134 223h286l133 -223h-206l-72 94l-68 -94h-207zM680 0l-45 522h-2l-43 -522h-428l-160 1202h328l65 -827h6l86 827h295l88 -827h2l68 827h328l-158 -1202h-430z" />
    <glyph glyph-name="Ycircumflex" unicode="&#x176;" horiz-adv-x="921" 
d="M297 0v526l-291 908h328l125 -527l129 527h327l-290 -908v-526h-328zM186 1491l133 223h287l133 -223h-207l-71 94l-68 -94h-207z" />
    <glyph glyph-name="ycircumflex" unicode="&#x177;" horiz-adv-x="886" 
d="M215 16l-217 1186h319l111 -788h14l148 788h293l-281 -1466h-289l54 280h-152zM170 1262l133 223h287l133 -223h-207l-72 94l-67 -94h-207z" />
    <glyph glyph-name="Ydieresis" unicode="&#x178;" horiz-adv-x="921" 
d="M297 0v526l-291 908h328l125 -527l129 527h327l-290 -908v-526h-328zM225 1497v217h203v-217h-203zM496 1497v217h204v-217h-204z" />
    <glyph glyph-name="Zacute" unicode="&#x179;" horiz-adv-x="761" 
d="M260 1491l115 223h309l-217 -223h-207zM29 1153v281h710v-279l-346 -876h346v-279h-714v281l366 872h-362z" />
    <glyph glyph-name="zacute" unicode="&#x17a;" horiz-adv-x="751" 
d="M248 1262l114 223h310l-217 -223h-207zM737 264v-264h-723v262l353 676h-336v264h702v-264l-346 -674h350z" />
    <glyph glyph-name="Zdotaccent" unicode="&#x17b;" horiz-adv-x="761" 
d="M29 1153v281h710v-279l-346 -876h346v-279h-714v281l366 872h-362zM319 1501v215h195v-215h-195z" />
    <glyph glyph-name="zdotaccent" unicode="&#x17c;" horiz-adv-x="751" 
d="M737 264v-264h-723v262l353 676h-336v264h702v-264l-346 -674h350zM315 1272v215h195v-215h-195z" />
    <glyph glyph-name="Zcaron" unicode="&#x17d;" horiz-adv-x="761" 
d="M242 1491l-133 223h206l68 -92l72 92h207l-134 -223h-286zM29 1153v281h710v-279l-346 -876h346v-279h-714v281l366 872h-362z" />
    <glyph glyph-name="zcaron" unicode="&#x17e;" horiz-adv-x="751" 
d="M236 1262l-134 223h207l68 -92l72 92h206l-133 -223h-286zM737 264v-264h-723v262l353 676h-336v264h702v-264l-346 -674h350z" />
    <glyph glyph-name="Aringacute" unicode="&#x1fa;" horiz-adv-x="911" 
d="M432 1688h51q99 0 126.5 -30.5t27.5 -121.5v-33q0 -42 -6 -69h84l205 -1434h-326l-31 242h-211l-28 -242h-328l205 1434h82q-4 36 -4 69v33q0 47 4.5 73t20.5 45.5t46 26.5t82 7zM336 1724l115 224h309l-217 -224h-207zM453 1159l-78 -631h166l-80 631h-8zM481 1604h-47
q-43 0 -53 -11t-10 -49v-47q0 -39 10.5 -50t52.5 -11h47q43 0 54.5 11.5t11.5 49.5v47q0 38 -11.5 49t-54.5 11z" />
    <glyph glyph-name="aringacute" unicode="&#x1fb;" horiz-adv-x="827" 
d="M113 954v248q200 8 321 10q79 1 136 -6.5t95.5 -26.5t62 -42.5t36 -62.5t16.5 -78t4 -97v-899q-247 -8 -413 -8h-39q-77 0 -129 13t-90 44.5t-56 88t-18 141.5v251q0 168 58 227.5t208 59.5h170v76q0 41 -10 51t-37 10h-315zM414 1591h51q99 0 126 -30t27 -121v-33
q0 -47 -4.5 -72.5t-20.5 -45.5t-46 -27t-82 -7h-51q-52 0 -82 7t-46 27t-21 46t-5 72v33q0 91 27.5 121t126.5 30zM330 1630l114 223h310l-217 -223h-207zM348 518v-190q0 -37 10 -51.5t41 -14.5h23q47 0 53 2v334h-76q-51 0 -51 -80zM463 1507h-47q-43 0 -53.5 -10.5
t-10.5 -48.5v-47q0 -39 10.5 -50.5t53.5 -11.5h47q43 0 54 12t11 50v47q0 38 -11 48.5t-54 10.5z" />
    <glyph glyph-name="AEacute" unicode="&#x1fc;" horiz-adv-x="1366" 
d="M721 1491l115 223h309l-217 -223h-207zM655 0v250h-254l-67 -250h-324l434 1434h891v-279h-354v-283h317v-280h-317v-311h354v-281h-680zM637 1155l-166 -627h184v627h-18z" />
    <glyph glyph-name="aeacute" unicode="&#x1fd;" horiz-adv-x="1282" 
d="M852 1212h29q79 0 137 -8t97.5 -26.5t64.5 -42.5t38.5 -61.5t18 -77.5t4.5 -97v-459l-440 -8v-137q0 -32 11.5 -43.5t39.5 -11.5h340v-240q-281 -8 -340 -8q-129 -5 -189.5 10.5t-93.5 63.5q-23 -23 -78.5 -48.5t-119.5 -25.5h-39q-77 0 -129 13t-90 44.5t-56 88
t-18 141.5v237q0 168 58 227.5t208 59.5h187v98q-1 33 -10.5 44t-30.5 11h-349v246q300 10 349 10q136 3 198 -38q60 38 203 38zM526 1262l115 223h309l-217 -223h-207zM492 287v293h-91q-53 0 -53 -86v-166q0 -37 11 -51.5t42 -14.5h21q20 0 70 25zM852 965
q-26 0 -38.5 -10t-12.5 -35v-246h143v235q0 32 -11.5 44t-39.5 12h-41z" />
    <glyph glyph-name="Oslashacute" unicode="&#x1fe;" horiz-adv-x="903" 
d="M432 1442h39q109 0 182 -12l27 69h168l-51 -135q65 -70 65 -270v-754q0 -110 -15.5 -174t-61 -105t-118 -55t-196.5 -14h-39q-121 0 -192 14l-29 -72h-170l61 142q-34 38 -47.5 101t-13.5 163v754q0 110 15.5 174.5t61 105t118 54.5t196.5 14zM332 1491l114 223h310
l-217 -223h-207zM434 258h35q34 0 50 13t16 53v518l-166 -484v-34q0 -40 15.5 -53t49.5 -13zM369 1110v-504l166 477v27q0 40 -16 53t-50 13h-35q-34 0 -49.5 -13t-15.5 -53z" />
    <glyph glyph-name="oslashacute" unicode="&#x1ff;" horiz-adv-x="837" 
d="M401 1212h37q82 0 150 -10l33 78h157l-61 -129q46 -36 63 -96t17 -156v-596q0 -57 -4.5 -96t-18 -77t-38 -61.5t-64.5 -42t-97.5 -26.5t-136.5 -8h-37q-105 0 -180 16l-33 -61h-155l63 127q-55 62 -55 229v596q0 57 4.5 97t18 77.5t38.5 61.5t64.5 42.5t97.5 26.5t137 8z
M301 1262l115 223h309l-217 -223h-207zM401 248h37q28 0 38.5 11.5t10.5 43.5v436l-135 -370v-66q0 -32 10.5 -43.5t38.5 -11.5zM352 899v-340l137 356q-5 41 -51 41h-35q-30 0 -40.5 -12t-10.5 -45z" />
    <glyph glyph-name="Scommaaccent" unicode="&#x218;" horiz-adv-x="864" 
d="M326 -301v229h200v-194q0 -63 -23 -114t-81 -132l-86 45q11 26 23 51.5t15.5 33t7.5 21.5t4.5 25t0.5 35h-61zM420 1442l368 -8v-271h-368q-34 0 -49 -12.5t-15 -52.5v-68q0 -36 3.5 -55t22 -35t38.5 -25t72 -28l126 -45q43 -16 64 -24.5t51.5 -25.5t45 -35.5t30 -48
t21.5 -69t6 -92.5v-207q0 -110 -15 -174.5t-60 -106.5t-118.5 -55.5t-198.5 -11.5l-401 8v270h401q34 0 50 13t16 53v115q0 19 -3.5 33t-6.5 22.5t-16 17t-19.5 12t-30.5 13t-35 14.5l-141 51q-43 17 -65 27t-53.5 28t-47.5 37.5t-33 49t-23.5 69t-6.5 90.5v179
q0 111 15 175.5t60 106t118.5 55t197.5 11.5z" />
    <glyph glyph-name="scommaaccent" unicode="&#x219;" horiz-adv-x="798" 
d="M297 -301v229h201v-194q0 -62 -23 -113.5t-82 -132.5l-86 45q11 26 23 51.5t15.5 33t7.5 21.5t4.5 25t0.5 35h-61zM393 1212l318 -10v-248h-318q-29 0 -40 -10t-11 -41v-49q0 -38 13.5 -51.5t68.5 -36.5l158 -53q100 -35 142 -87.5t42 -158.5v-150q0 -58 -4.5 -98
t-17 -80.5t-37 -65.5t-64 -45t-98.5 -28.5t-139 -7.5l-359 8v250h359q27 0 39 15.5t12 49.5v91q0 13 -3 22t-5 14.5t-12.5 12t-15.5 8.5t-23.5 9.5t-26.5 10.5l-154 60q-29 12 -44 18.5t-38 19t-35 24t-27 30.5t-22.5 40t-12.5 51t-5 67v106q0 59 4 97.5t16.5 78t36.5 62.5
t63.5 42t99 26.5t140.5 6.5z" />
    <glyph glyph-name="circumflex" unicode="&#x2c6;" horiz-adv-x="1024" 
d="M236 1262l133 223h286l133 -223h-206l-72 94l-68 -94h-206z" />
    <glyph glyph-name="caron" unicode="&#x2c7;" horiz-adv-x="1024" 
d="M369 1262l-133 223h206l68 -92l72 92h206l-133 -223h-286z" />
    <glyph glyph-name="breve" unicode="&#x2d8;" horiz-adv-x="1024" 
d="M551 1253h-76q-72 0 -114 9.5t-64.5 36.5t-29.5 63t-7 100v27h186v-45q0 -23 8 -31t27 -8h62q19 0 27 8t8 31v45h184v-27q0 -64 -6.5 -100t-29 -63t-64 -36.5t-111.5 -9.5z" />
    <glyph glyph-name="dotaccent" unicode="&#x2d9;" horiz-adv-x="1024" 
d="M414 1272v215h194v-215h-194z" />
    <glyph glyph-name="ring" unicode="&#x2da;" horiz-adv-x="1024" 
d="M485 1585h52q99 0 126 -30t27 -121v-33q0 -47 -4.5 -72.5t-20.5 -45.5t-46 -27t-82 -7h-52q-52 0 -82 7t-46 27t-20.5 45.5t-4.5 72.5v33q0 91 27 121t126 30zM535 1501h-48q-43 0 -53 -10.5t-10 -48.5v-47q0 -39 10.5 -50.5t52.5 -11.5h48q43 0 54 12t11 50v47
q0 38 -11 48.5t-54 10.5z" />
    <glyph glyph-name="ogonek" unicode="&#x2db;" horiz-adv-x="1024" 
d="M713 -100v-35q0 -33 -1.5 -53.5t-8.5 -43t-20 -35t-37 -20.5t-58 -8h-131q-85 0 -108 25t-23 100v25q0 13 2.5 24.5t4.5 19.5t9.5 16t10.5 12t14 11t14.5 8.5t17.5 8.5t17 8l86 37h137v-16l-107 -62q-5 -3 -11.5 -7t-9.5 -5.5t-7 -4.5l-6 -4.5t-4.5 -4t-3 -4t-2 -4
t-1.5 -5.5v-6v-6q0 -15 3 -20t16 -5h31q6 0 9.5 0.5t5 3.5t1.5 5v9v5v31h160z" />
    <glyph glyph-name="tilde" unicode="&#x2dc;" horiz-adv-x="1024" 
d="M590 1266l-160 106l-4 -104h-139l2 217h141l160 -55l2 55h139l-2 -219h-139z" />
    <glyph glyph-name="hungarumlaut" unicode="&#x2dd;" horiz-adv-x="1024" 
d="M201 1262l131 223h258l-182 -223h-207zM498 1262l129 223h311l-233 -223h-207z" />
    <glyph glyph-name="Wgrave" unicode="&#x1e80;" horiz-adv-x="1337" 
d="M10 1434h328l80 -992h2l100 992h297l101 -992h2l79 992h330l-139 -1434h-461l-59 666h-2l-60 -666h-461zM686 1714l115 -223h-207l-217 223h309z" />
    <glyph glyph-name="wgrave" unicode="&#x1e81;" horiz-adv-x="1269" 
d="M680 0l-45 522h-2l-43 -522h-428l-160 1202h328l65 -827h6l86 827h295l88 -827h2l68 827h328l-158 -1202h-430zM643 1485l115 -223h-207l-217 223h309z" />
    <glyph glyph-name="Wacute" unicode="&#x1e82;" horiz-adv-x="1337" 
d="M559 1491l115 223h309l-217 -223h-207zM10 1434h328l80 -992h2l100 992h297l101 -992h2l79 992h330l-139 -1434h-461l-59 666h-2l-60 -666h-461z" />
    <glyph glyph-name="wacute" unicode="&#x1e83;" horiz-adv-x="1269" 
d="M526 1262l115 223h309l-217 -223h-207zM680 0l-45 522h-2l-43 -522h-428l-160 1202h328l65 -827h6l86 827h295l88 -827h2l68 827h328l-158 -1202h-430z" />
    <glyph glyph-name="Wdieresis" unicode="&#x1e84;" horiz-adv-x="1337" 
d="M436 1497v217h203v-217h-203zM707 1497v217h204v-217h-204zM10 1434h328l80 -992h2l100 992h297l101 -992h2l79 992h330l-139 -1434h-461l-59 666h-2l-60 -666h-461z" />
    <glyph glyph-name="wdieresis" unicode="&#x1e85;" horiz-adv-x="1269" 
d="M406 1268v217h202v-217h-202zM676 1268v217h205v-217h-205zM680 0l-45 522h-2l-43 -522h-428l-160 1202h328l65 -827h6l86 827h295l88 -827h2l68 827h328l-158 -1202h-430z" />
    <glyph glyph-name="Ygrave" unicode="&#x1ef2;" horiz-adv-x="921" 
d="M297 0v526l-291 908h328l125 -527l129 527h327l-290 -908v-526h-328zM471 1714l115 -223h-207l-217 223h309z" />
    <glyph glyph-name="ygrave" unicode="&#x1ef3;" horiz-adv-x="886" 
d="M215 16l-217 1186h319l111 -788h14l148 788h293l-281 -1466h-289l54 280h-152zM455 1485l114 -223h-207l-217 223h310z" />
    <glyph glyph-name="endash" unicode="&#x2013;" horiz-adv-x="827" 
d="M25 506v219h778v-219h-778z" />
    <glyph glyph-name="emdash" unicode="&#x2014;" horiz-adv-x="1202" 
d="M25 506v219h1153v-219h-1153z" />
    <glyph glyph-name="quoteleft" unicode="&#x2018;" horiz-adv-x="372" 
d="M324 1163v-317h-279v260q0 88 32 158.5t113 181.5l113 -60q-56 -116 -65 -149q-5 -19 -5 -74h91z" />
    <glyph glyph-name="quoteright" unicode="&#x2019;" horiz-adv-x="372" 
d="M47 1116v318h279v-260q0 -88 -32 -158t-114 -182l-112 59q56 116 65 149q4 15 4 74h-90z" />
    <glyph glyph-name="quotesinglbase" unicode="&#x201a;" horiz-adv-x="372" 
d="M47 0v317h279v-260q0 -88 -32 -158t-114 -182l-112 60q56 116 65 149q4 15 4 74h-90z" />
    <glyph glyph-name="quotedblleft" unicode="&#x201c;" horiz-adv-x="696" 
d="M324 1163v-317h-279v260q0 88 32 158.5t113 181.5l113 -60q-56 -116 -65 -149q-5 -19 -5 -74h91zM647 1163v-317h-278v260q0 88 32 158.5t113 181.5l113 -60q-59 -120 -66 -149q-4 -15 -4 -74h90z" />
    <glyph glyph-name="quotedblright" unicode="&#x201d;" horiz-adv-x="696" 
d="M47 1116v318h279v-260q0 -88 -32 -158t-114 -182l-112 59q56 116 65 149q4 15 4 74h-90zM371 1116v318h278v-260q0 -88 -32 -158.5t-113 -181.5l-113 59q59 120 66 149q4 15 4 74h-90z" />
    <glyph glyph-name="quotedblbase" unicode="&#x201e;" horiz-adv-x="696" 
d="M47 0v317h279v-260q0 -88 -32 -158t-114 -182l-112 60q56 116 65 149q4 15 4 74h-90zM371 0v317h278v-260q0 -88 -32 -158.5t-113 -181.5l-113 60q59 120 66 149q4 15 4 74h-90z" />
    <glyph glyph-name="dagger" unicode="&#x2020;" horiz-adv-x="733" 
d="M340 1139l-51 172v123h157v-123l-51 -172h-55zM600 1155h125v-160h-125l-172 52v57zM303 1047l-170 -52h-125v160h125l170 -51v-57zM340 424l-51 324l51 266h55l51 -266l-51 -324h-55z" />
    <glyph glyph-name="daggerdbl" unicode="&#x2021;" horiz-adv-x="733" 
d="M340 616l-51 197l51 201h55l51 -199l-51 -199h-55zM133 1155l170 -51v-57l-170 -52h-125v160h125zM289 195v122l51 172h55l51 -172v-122h-157zM725 995h-125l-172 52v57l172 51h125v-160zM133 633l170 -51v-58l-170 -51h-125v160h125zM340 1139l-51 172v123h157v-123
l-51 -172h-55zM428 582l172 51h125v-160h-125l-172 51v58z" />
    <glyph glyph-name="bullet" unicode="&#x2022;" horiz-adv-x="604" 
d="M279 1020h51q70 0 109.5 -8.5t60 -35.5t25.5 -60t5 -99v-192q0 -43 -2 -68.5t-8.5 -51t-19.5 -38.5t-35.5 -24t-55 -15t-79.5 -4h-51q-72 0 -112.5 9t-61.5 36t-26 59.5t-5 96.5v192q0 52 3.5 81.5t14 56.5t33.5 39t59.5 19t94.5 7z" />
    <glyph glyph-name="ellipsis" unicode="&#x2026;" horiz-adv-x="1118" 
d="M47 0v317h279v-317h-279zM420 0v317h278v-317h-278zM793 0v317h278v-317h-278z" />
    <glyph glyph-name="perthousand" unicode="&#x2030;" horiz-adv-x="1916" 
d="M268 1440h62q128 0 173.5 -51t45.5 -168v-404q0 -119 -45.5 -171t-173.5 -52h-62q-128 0 -174.5 52t-46.5 171v404q0 116 46.5 167.5t174.5 51.5zM1032 838h62q128 0 174.5 -51.5t46.5 -168.5v-405q0 -117 -46.5 -169t-174.5 -52h-62q-127 0 -173 52t-46 169v405
q0 117 45.5 168.5t173.5 51.5zM1587 838h62q128 0 174.5 -51.5t46.5 -168.5v-405q0 -117 -46.5 -169t-174.5 -52h-62q-127 0 -173 52t-46 169v405q0 117 45.5 168.5t173.5 51.5zM1083 684h-41q-20 0 -28 -10t-8 -33v-451q0 -23 8 -31.5t28 -8.5h41q21 0 29 8.5t8 31.5v451
q0 23 -8.5 33t-28.5 10zM319 1286h-40q-21 0 -29 -9.5t-8 -33.5v-450q0 -23 8.5 -32t28.5 -9h40q20 0 28.5 9t8.5 32v450q0 24 -8 33.5t-29 9.5zM1638 684h-41q-20 0 -28 -10t-8 -33v-451q0 -23 8 -31.5t28 -8.5h41q21 0 29 8.5t8 31.5v451q0 23 -8.5 33t-28.5 10zM332 0
l504 1434h192l-506 -1434h-190z" />
    <glyph glyph-name="guilsinglleft" unicode="&#x2039;" horiz-adv-x="434" 
d="M211 209l-201 371v32l201 371h205l-146 -371v-32l146 -371h-205z" />
    <glyph glyph-name="guilsinglright" unicode="&#x203a;" horiz-adv-x="434" 
d="M422 580l-201 -371h-205l146 371v32l-146 371h205l201 -371v-32z" />
    <glyph glyph-name="fraction" unicode="&#x2044;" horiz-adv-x="432" 
d="M-70 0l381 1434h193l-383 -1434h-191z" />
    <glyph glyph-name="Euro" unicode="&#x20ac;" horiz-adv-x="901" 
d="M487 1180q-34 0 -49.5 -15t-15.5 -55v-195h381v-161h-381v-58h381v-159h-381v-213q0 -40 15.5 -55t49.5 -15h371v-254q-305 -8 -371 -8q-124 -3 -197.5 10.5t-118 55.5t-60 107t-15.5 175v197h-86v159h86v58h-86v161h86v179q0 111 15 175.5t60 106t118.5 55t197.5 11.5
l369 -8v-254h-369z" />
    <glyph glyph-name="afii61352" unicode="&#x2116;" horiz-adv-x="1748" 
d="M1313 1442h37q94 0 159 -13t104.5 -35.5t61 -63.5t28.5 -86t7 -114v-495q0 -57 -4.5 -97t-18 -77.5t-38.5 -61.5t-64.5 -42.5t-97.5 -26.5t-137 -8h-37q-79 0 -137 8t-97.5 26.5t-64.5 42.5t-38.5 61.5t-18.5 77.5t-5 97v495q0 57 5 96.5t18.5 77.5t38.5 61.5t64.5 42
t97.5 26.5t137 8zM1313 584h37q28 0 38.5 11.5t10.5 43.5v485q0 34 -10.5 46t-38.5 12h-37q-28 0 -38.5 -12t-10.5 -46v-485q0 -32 10.5 -43.5t38.5 -11.5zM952 0v260h758v-260h-758zM49 1434h318l196 -678h2v678h299v-1434h-334l-165 631h-3v-631h-313v1434z" />
    <glyph glyph-name="trademark" unicode="&#x2122;" horiz-adv-x="1034" 
d="M586 1130l8 -413h-158v717h211l62 -371h8l61 371h211v-717h-155l8 413h-6l-62 -413h-121l-61 413h-6zM10 1292v142h404v-142h-121v-575h-162v575h-121z" />
    <glyph glyph-name="arrowleft" unicode="&#x2190;" horiz-adv-x="819" 
d="M307 217l-254 371v30l254 373l162 -94l-111 -180h410v-228h-410l111 -180z" />
    <glyph glyph-name="arrowup" unicode="&#x2191;" horiz-adv-x="819" 
d="M393 958h33l371 -251l-92 -164l-183 110v-407h-225v407l-182 -110l-92 164z" />
    <glyph glyph-name="arrowright" unicode="&#x2192;" horiz-adv-x="819" 
d="M766 588l-254 -371l-162 92l111 180h-410v228h410l-111 180l162 94l254 -373v-30z" />
    <glyph glyph-name="arrowdown" unicode="&#x2193;" horiz-adv-x="819" 
d="M426 244h-33l-370 252l92 163l182 -110v407h225v-407l183 110l92 -163z" />
    <glyph glyph-name="uni2196" unicode="&#x2196;" horiz-adv-x="819" 
d="M61 401l84 443l23 22l442 84l47 -180l-204 -51l288 -289l-159 -160l-289 289l-51 -207z" />
    <glyph glyph-name="uni2197" unicode="&#x2197;" horiz-adv-x="819" 
d="M664 844l84 -443l-181 -49l-51 207l-289 -289l-159 160l288 289l-204 51l47 180l442 -84z" />
    <glyph glyph-name="uni2198" unicode="&#x2198;" horiz-adv-x="819" 
d="M748 813l-84 -442l-23 -23l-442 -84l-47 180l204 52l-288 288l159 160l289 -289l51 207z" />
    <glyph glyph-name="uni2199" unicode="&#x2199;" horiz-adv-x="819" 
d="M145 371l-84 442l181 49l51 -207l289 289l159 -160l-288 -288l204 -52l-47 -180l-442 84z" />
    <glyph glyph-name="minus" unicode="&#x2212;" horiz-adv-x="731" 
d="M29 629v213h676v-213h-676z" />
    <glyph glyph-name="commaaccent" unicode="&#xf6c3;" horiz-adv-x="1024" 
d="M414 -51v229h200v-194q0 -63 -23 -114t-81 -132l-86 45q11 26 23 51.5t15.5 33t7.5 21.5t4.5 25t0.5 35h-61z" />
    <glyph glyph-name="abreve.alt" 
d="M336 1212h39q87 0 193 -2.5t168 -5.5l63 -2v-1202q-233 -8 -426 -8h-37q-77 0 -129.5 13t-90.5 44.5t-55.5 88t-17.5 141.5v647q0 165 68.5 225.5t224.5 60.5zM465 1253h-76q-72 0 -114 9.5t-64.5 36.5t-29.5 63t-7 100v27h186v-45q0 -23 8 -31t27 -8h62q19 0 27 8t8 31
v45h184v-27q0 -64 -6.5 -100t-29 -63t-64 -36.5t-111.5 -9.5zM406 262h83v678h-83q-32 0 -43 -13.5t-11 -49.5v-549q0 -36 11.5 -51t42.5 -15z" />
    <glyph glyph-name="guilsinglleft.case" horiz-adv-x="434" 
d="M211 338l-201 371v32l201 371h205l-146 -371v-32l146 -371h-205z" />
    <glyph glyph-name="gcommaaccent.alt" horiz-adv-x="878" 
d="M408 1212h460v-182l-71 -18q18 -52 18 -113v-254q0 -57 -4.5 -96t-18 -77t-38 -61.5t-64.5 -42t-98 -26.5t-137 -8h-47q-44 0 -60 4q-15 0 -27 -5.5t-12 -13.5q0 -18 10.5 -23t40.5 -5h136q66 0 106.5 -1t81.5 -6t62.5 -11t43 -21.5t30 -32.5t16 -47.5t9 -63t1.5 -83.5
v-9q0 -57 -5 -96.5t-18.5 -77.5t-38.5 -61.5t-64.5 -41.5t-97.5 -26t-137 -8h-172q-157 0 -223.5 26.5t-74.5 88.5t14 164q9 45 69 120q-25 7 -41 20t-24.5 26t-13 38t-5 42.5t-0.5 54.5q0 74 95 125q-34 36 -47 92.5t-13 142.5v254q0 69 4.5 112.5t18.5 82t37 58.5t65 35
t97 20t137 5zM551 1511v-229h-201v195q0 62 23 112.5t82 132.5l86 -45q-11 -26 -23 -51.5t-16 -33.5t-8 -21.5t-4.5 -25t-0.5 -34.5h62zM408 594h47q30 0 40.5 12t10.5 45v244q0 33 -10.5 44t-40.5 11h-47q-29 0 -39.5 -11t-10.5 -44v-244q0 -33 11 -45t39 -12zM371 -37h116
q30 0 41 11.5t11 43.5v15q0 28 -6.5 38.5t-32.5 10.5h-138q-13 -19 -20 -64q-5 -32 -1 -43.5t30 -11.5z" />
    <glyph glyph-name="gdotaccent.alt" horiz-adv-x="878" 
d="M408 1212h460v-182l-71 -18q18 -52 18 -113v-254q0 -57 -4.5 -96t-18 -77t-38 -61.5t-64.5 -42t-98 -26.5t-137 -8h-47q-44 0 -60 4q-15 0 -27 -5.5t-12 -13.5q0 -18 10.5 -23t40.5 -5h136q66 0 106.5 -1t81.5 -6t62.5 -11t43 -21.5t30 -32.5t16 -47.5t9 -63t1.5 -83.5
v-9q0 -57 -5 -96.5t-18.5 -77.5t-38.5 -61.5t-64.5 -41.5t-97.5 -26t-137 -8h-172q-157 0 -223.5 26.5t-74.5 88.5t14 164q9 45 69 120q-25 7 -41 20t-24.5 26t-13 38t-5 42.5t-0.5 54.5q0 74 95 125q-34 36 -47 92.5t-13 142.5v254q0 69 4.5 112.5t18.5 82t37 58.5t65 35
t97 20t137 5zM408 594h47q30 0 40.5 12t10.5 45v244q0 33 -10.5 44t-40.5 11h-47q-29 0 -39.5 -11t-10.5 -44v-244q0 -33 11 -45t39 -12zM358 1272v215h195v-215h-195zM371 -37h116q30 0 41 11.5t11 43.5v15q0 28 -6.5 38.5t-32.5 10.5h-138q-13 -19 -20 -64
q-5 -32 -1 -43.5t30 -11.5z" />
    <glyph glyph-name="g.alt" horiz-adv-x="878" 
d="M408 1212h460v-182l-71 -18q18 -52 18 -113v-254q0 -57 -4.5 -96t-18 -77t-38 -61.5t-64.5 -42t-98 -26.5t-137 -8h-47q-44 0 -60 4q-15 0 -27 -5.5t-12 -13.5q0 -18 10.5 -23t40.5 -5h136q66 0 106.5 -1t81.5 -6t62.5 -11t43 -21.5t30 -32.5t16 -47.5t9 -63t1.5 -83.5
v-9q0 -57 -5 -96.5t-18.5 -77.5t-38.5 -61.5t-64.5 -41.5t-97.5 -26t-137 -8h-172q-157 0 -223.5 26.5t-74.5 88.5t14 164q9 45 69 120q-25 7 -41 20t-24.5 26t-13 38t-5 42.5t-0.5 54.5q0 74 95 125q-34 36 -47 92.5t-13 142.5v254q0 69 4.5 112.5t18.5 82t37 58.5t65 35
t97 20t137 5zM408 594h47q30 0 40.5 12t10.5 45v244q0 33 -10.5 44t-40.5 11h-47q-29 0 -39.5 -11t-10.5 -44v-244q0 -33 11 -45t39 -12zM371 -37h116q30 0 41 11.5t11 43.5v15q0 28 -6.5 38.5t-32.5 10.5h-138q-13 -19 -20 -64q-5 -32 -1 -43.5t30 -11.5z" />
    <glyph glyph-name="yacute.alt" 
d="M100 -18h338q28 0 39.5 12t11.5 45v31h-180q-150 0 -208 59t-58 227v846h309v-796q0 -36 11 -50t43 -14h83v860h310v-1169q0 -68 -4.5 -112.5t-18.5 -83.5t-38 -60t-65 -36t-97.5 -19t-137.5 -1q-28 0 -112.5 4.5t-155.5 9.5l-70 5v242zM299 1262l115 223h309l-217 -223
h-207z" />
    <glyph glyph-name="gbreve.alt" horiz-adv-x="878" 
d="M408 1212h460v-182l-71 -18q18 -52 18 -113v-254q0 -57 -4.5 -96t-18 -77t-38 -61.5t-64.5 -42t-98 -26.5t-137 -8h-47q-44 0 -60 4q-15 0 -27 -5.5t-12 -13.5q0 -18 10.5 -23t40.5 -5h136q66 0 106.5 -1t81.5 -6t62.5 -11t43 -21.5t30 -32.5t16 -47.5t9 -63t1.5 -83.5
v-9q0 -57 -5 -96.5t-18.5 -77.5t-38.5 -61.5t-64.5 -41.5t-97.5 -26t-137 -8h-172q-157 0 -223.5 26.5t-74.5 88.5t14 164q9 45 69 120q-25 7 -41 20t-24.5 26t-13 38t-5 42.5t-0.5 54.5q0 74 95 125q-34 36 -47 92.5t-13 142.5v254q0 69 4.5 112.5t18.5 82t37 58.5t65 35
t97 20t137 5zM498 1253h-76q-72 0 -114 9.5t-64.5 36.5t-29.5 63t-7 100v27h186v-45q0 -23 8 -31t27 -8h61q19 0 27 8t8 31v45h185v-27q0 -64 -6.5 -100t-29 -63t-64 -36.5t-111.5 -9.5zM408 594h47q30 0 40.5 12t10.5 45v244q0 33 -10.5 44t-40.5 11h-47q-29 0 -39.5 -11
t-10.5 -44v-244q0 -33 11 -45t39 -12zM371 -37h116q30 0 41 11.5t11 43.5v15q0 28 -6.5 38.5t-32.5 10.5h-138q-13 -19 -20 -64q-5 -32 -1 -43.5t30 -11.5z" />
    <glyph glyph-name="y.alt" 
d="M100 -18h338q28 0 39.5 12t11.5 45v31h-180q-150 0 -208 59t-58 227v846h309v-796q0 -36 11 -50t43 -14h83v860h310v-1169q0 -68 -4.5 -112.5t-18.5 -83.5t-38 -60t-65 -36t-97.5 -19t-137.5 -1q-28 0 -112.5 4.5t-155.5 9.5l-70 5v242z" />
    <glyph glyph-name="ydieresis.alt" 
d="M100 -18h338q28 0 39.5 12t11.5 45v31h-180q-150 0 -208 59t-58 227v846h309v-796q0 -36 11 -50t43 -14h83v860h310v-1169q0 -68 -4.5 -112.5t-18.5 -83.5t-38 -60t-65 -36t-97.5 -19t-137.5 -1q-28 0 -112.5 4.5t-155.5 9.5l-70 5v242zM455 1268v217h204v-217h-204z
M184 1268v217h203v-217h-203z" />
    <glyph glyph-name="ycircumflex.alt" 
d="M100 -18h338q28 0 39.5 12t11.5 45v31h-180q-150 0 -208 59t-58 227v846h309v-796q0 -36 11 -50t43 -14h83v860h310v-1169q0 -68 -4.5 -112.5t-18.5 -83.5t-38 -60t-65 -36t-97.5 -19t-137.5 -1q-28 0 -112.5 4.5t-155.5 9.5l-70 5v242zM145 1262l134 223h286l133 -223
h-206l-72 94l-68 -94h-207z" />
    <glyph glyph-name="ygrave.alt" 
d="M100 -18h338q28 0 39.5 12t11.5 45v31h-180q-150 0 -208 59t-58 227v846h309v-796q0 -36 11 -50t43 -14h83v860h310v-1169q0 -68 -4.5 -112.5t-18.5 -83.5t-38 -60t-65 -36t-97.5 -19t-137.5 -1q-28 0 -112.5 4.5t-155.5 9.5l-70 5v242zM432 1485l115 -223h-207l-217 223
h309z" />
    <glyph glyph-name="RB" horiz-adv-x="1843" 
d="M922 1446q197 0 365 -98t266 -266t98 -365t-98 -365t-266 -266t-365 -98t-365 98t-266 266t-98 365t98 365t266 266t365 98zM860 494l-100 133q64 15 113 64t63 112q20 76 -20 130t-117 54h-185l-125 -493h371zM1323 864q13 46 -15.5 82t-78.5 41h-221l-121 -493h256
q56 0 106 39t62 94q12 48 -12.5 83.5t-75.5 41.5q37 13 64 43.5t36 68.5z" />
    <glyph glyph-name="registered.alt" horiz-adv-x="1093" 
d="M258 186v1053h313q90 0 142.5 -10t85 -40t43 -75.5t10.5 -124.5v-127q0 -106 -26.5 -142.5t-112.5 -43.5q85 -10 112 -50t27 -149v-291h-240v318q0 40 -11.5 55.5t-33.5 15.5h-69v-389h-240zM498 1042v-282h73q21 0 31 9.5t10 35.5v192q0 26 -9.5 35.5t-31.5 9.5h-73z
M395 1434h305q181 0 275 -85.5t94 -250.5v-762q0 -165 -94 -250.5t-275 -85.5h-305q-180 0 -274 87t-94 249v762q0 165 93.5 250.5t274.5 85.5zM395 53h305q156 0 232 75t76 208v762q0 282 -308 282h-305q-307 0 -307 -282v-762q0 -131 76 -207t231 -76z" />
    <glyph glyph-name="published" horiz-adv-x="1093" 
d="M279 186v1053h311q119 0 177.5 -22.5t80.5 -73.5t22 -154v-219q0 -105 -22 -156t-80.5 -72.5t-177.5 -21.5h-74v-334h-237zM516 1042v-325h74q21 0 31 9t10 36v235q0 26 -9.5 35.5t-31.5 9.5h-74zM395 1434h305q181 0 275 -85.5t94 -250.5v-762q0 -165 -94 -250.5
t-275 -85.5h-305q-180 0 -274 87t-94 249v762q0 165 93.5 250.5t274.5 85.5zM395 53h305q156 0 232 75t76 208v762q0 282 -308 282h-305q-307 0 -307 -282v-762q0 -131 76 -207t231 -76z" />
    <glyph glyph-name="parenleft.case" horiz-adv-x="464" 
d="M326 1255v-1081q0 -73 3 -106.5t15 -65.5q4 -12 13 -27.5t16.5 -27t23 -33.5t21.5 -31l-111 -94q-118 84 -176 150q-82 91 -82 235v1081q0 143 82 234q50 59 176 149l111 -94q-62 -86 -74 -119q-18 -48 -18 -170z" />
    <glyph glyph-name="parenright.case" horiz-adv-x="464" 
d="M137 174v1081q0 122 -18 170q-12 33 -74 119l111 94q126 -90 176 -149q82 -91 82 -234v-1081q0 -144 -82 -235q-58 -66 -176 -150l-111 94q6 9 21.5 31t23 33.5t16.5 27t13 27.5q12 32 15 65.5t3 106.5z" />
    <glyph glyph-name="hyphen.case" horiz-adv-x="604" 
d="M29 602v254h546v-254h-546z" />
    <glyph glyph-name="bracketleft.case" horiz-adv-x="595" 
d="M332 1352v-1239h243v-224h-518v1684h518v-221h-243z" />
    <glyph glyph-name="bracketright.case" horiz-adv-x="595" 
d="M262 113v1239h-244v221h519v-1684h-519v224h244z" />
    <glyph glyph-name="braceleft.case" horiz-adv-x="559" 
d="M12 637v162l12 5q11 4 24.5 10t31 19t31 29.5t23 43t9.5 57.5v292q0 140 84 234q20 25 53.5 54.5t55 46t65.5 48.5l109 -86q-57 -85 -70 -118q-20 -50 -20 -179v-292q0 -155 -123 -246q123 -91 123 -244v-299q0 -73 3.5 -109.5t16.5 -68.5q14 -36 70 -119l-109 -86
q-116 82 -174 148q-84 97 -84 235v299q0 35 -12.5 64t-26 44.5t-37 29.5t-32 17.5t-23.5 8.5z" />
    <glyph glyph-name="bar.case" horiz-adv-x="466" 
d="M113 -156v1712h241v-1712h-241z" />
    <glyph glyph-name="braceright.case" horiz-adv-x="559" 
d="M547 799v-162q-15 -5 -23.5 -8.5t-32 -17.5t-37 -29.5t-26 -44.5t-12.5 -64v-299q0 -138 -84 -235q-58 -66 -174 -148l-109 86q56 83 70 119q13 32 16.5 68.5t3.5 109.5v299q0 153 123 244q-123 91 -123 246v292q0 129 -20 179q-13 33 -70 118l109 86q44 -32 65.5 -48.5
t55 -46t53.5 -54.5q84 -94 84 -234v-292q0 -31 9.5 -57.5t23 -43t31 -29.5t31 -19t25.5 -10z" />
    <glyph glyph-name="gcircumflex.alt" horiz-adv-x="878" 
d="M408 1212h460v-182l-71 -18q18 -52 18 -113v-254q0 -57 -4.5 -96t-18 -77t-38 -61.5t-64.5 -42t-98 -26.5t-137 -8h-47q-44 0 -60 4q-15 0 -27 -5.5t-12 -13.5q0 -18 10.5 -23t40.5 -5h136q66 0 106.5 -1t81.5 -6t62.5 -11t43 -21.5t30 -32.5t16 -47.5t9 -63t1.5 -83.5
v-9q0 -57 -5 -96.5t-18.5 -77.5t-38.5 -61.5t-64.5 -41.5t-97.5 -26t-137 -8h-172q-157 0 -223.5 26.5t-74.5 88.5t14 164q9 45 69 120q-25 7 -41 20t-24.5 26t-13 38t-5 42.5t-0.5 54.5q0 74 95 125q-34 36 -47 92.5t-13 142.5v254q0 69 4.5 112.5t18.5 82t37 58.5t65 35
t97 20t137 5zM182 1262l133 223h287l133 -223h-207l-71 94l-68 -94h-207zM408 594h47q30 0 40.5 12t10.5 45v244q0 33 -10.5 44t-40.5 11h-47q-29 0 -39.5 -11t-10.5 -44v-244q0 -33 11 -45t39 -12zM371 -37h116q30 0 41 11.5t11 43.5v15q0 28 -6.5 38.5t-32.5 10.5h-138
q-13 -19 -20 -64q-5 -32 -1 -43.5t30 -11.5z" />
    <glyph glyph-name="guilsinglright.case" horiz-adv-x="434" 
d="M422 709l-201 -371h-205l146 371v32l-146 371h205l201 -371v-32z" />
    <glyph glyph-name="guillemotleft.case" horiz-adv-x="727" 
d="M489 338l-167 371v32l167 371h220l-129 -371v-32l129 -371h-220zM10 709v32l201 371h205l-146 -371v-32l146 -371h-205z" />
    <glyph glyph-name="guillemotright.case" horiz-adv-x="727" 
d="M406 709l-168 -371h-220l129 371v32l-129 371h220l168 -371v-32zM717 741v-32l-201 -371h-205l146 371v32l-146 371h205z" />
    <glyph glyph-name="endash.case" horiz-adv-x="827" 
d="M25 610v219h778v-219h-778z" />
    <glyph glyph-name="emdash.case" horiz-adv-x="1202" 
d="M25 610v219h1153v-219h-1153z" />
    <glyph glyph-name="bullet.case" horiz-adv-x="604" 
d="M279 1020h51q70 0 109.5 -8.5t60 -35.5t25.5 -60t5 -99v-192q0 -43 -2 -68.5t-8.5 -51t-19.5 -38.5t-35.5 -24t-55 -15t-79.5 -4h-51q-72 0 -112.5 9t-61.5 36t-26 59.5t-5 96.5v192q0 52 3.5 81.5t14 56.5t33.5 39t59.5 19t94.5 7z" />
    <glyph glyph-name="periodcentered.case" horiz-adv-x="366" 
d="M47 571v318h277v-318h-277z" />
    <glyph glyph-name="germandbls.case" horiz-adv-x="1736" 
d="M428 1442l369 -8v-271h-369q-34 0 -48.5 -12.5t-14.5 -52.5v-68q0 -67 21.5 -88t113.5 -55l127 -45q32 -12 48.5 -18.5t42 -18t38 -22t30 -26.5t26 -35t17 -45t12 -58t3.5 -72v-207q0 -110 -15 -174.5t-59.5 -106.5t-118 -55.5t-198.5 -11.5l-402 8v270h402q34 0 49.5 13
t15.5 53v115q0 19 -3.5 33t-6.5 22.5t-16 17t-19 12t-30 13t-35 14.5l-142 51q-43 17 -65 27t-53.5 28t-47.5 37.5t-33 49t-23.5 69t-6.5 90.5v179q0 111 15 175.5t60 106t118.5 55t197.5 11.5zM1282 1442l369 -8v-271h-369q-34 0 -48.5 -12.5t-14.5 -52.5v-68
q0 -67 21.5 -88t113.5 -55l127 -45q32 -12 48.5 -18.5t42 -18t38 -22t30 -26.5t26 -35t17 -45t12 -58t3.5 -72v-207q0 -110 -15 -174.5t-59.5 -106.5t-118 -55.5t-198.5 -11.5l-402 8v270h402q34 0 49.5 13t15.5 53v115q0 19 -3.5 33t-6.5 22.5t-16 17t-19 12t-30 13
t-35 14.5l-142 51q-43 17 -65 27t-53.5 28t-47.5 37.5t-33 49t-23.5 69t-6.5 90.5v179q0 111 15 175.5t60 106t118.5 55t197.5 11.5z" />
    <glyph glyph-name="i.dot" horiz-adv-x="395" 
d="M43 0v1202h309v-1202h-309zM47 1272v215h303v-215h-303z" />
    <glyph glyph-name="caron.alt" horiz-adv-x="1024" 
d="M430 1397v196h168v-168q0 -53 -20 -95t-72 -113l-72 34q11 27 23.5 51.5t16.5 33.5t6.5 23.5t2.5 37.5h-53z" />
    <glyph glyph-name="aring.alt" 
d="M336 1212h39q87 0 193 -2.5t168 -5.5l63 -2v-1202q-233 -8 -426 -8h-37q-77 0 -129.5 13t-90.5 44.5t-55.5 88t-17.5 141.5v647q0 165 68.5 225.5t224.5 60.5zM395 1585h51q99 0 126.5 -30t27.5 -121v-33q0 -46 -5 -72t-21 -46t-46 -27t-82 -7h-51q-52 0 -82 7t-46 27
t-20.5 45.5t-4.5 72.5v33q0 91 27 121t126 30zM406 262h83v678h-83q-32 0 -43 -13.5t-11 -49.5v-549q0 -36 11.5 -51t42.5 -15zM444 1501h-47q-43 0 -53 -10.5t-10 -48.5v-47q0 -39 10.5 -50.5t52.5 -11.5h47q43 0 54.5 12t11.5 50v47q0 38 -11.5 48.5t-54.5 10.5z" />
    <glyph glyph-name="atilde.alt" 
d="M336 1212h39q87 0 193 -2.5t168 -5.5l63 -2v-1202q-233 -8 -426 -8h-37q-77 0 -129.5 13t-90.5 44.5t-55.5 88t-17.5 141.5v647q0 165 68.5 225.5t224.5 60.5zM406 262h83v678h-83q-32 0 -43 -13.5t-11 -49.5v-549q0 -36 11.5 -51t42.5 -15zM498 1266l-160 106l-4 -104
h-139l2 217h141l160 -55l2 55h139l-2 -219h-139z" />
    <glyph glyph-name="aringacute.alt" 
d="M336 1212h39q87 0 193 -2.5t168 -5.5l63 -2v-1202q-233 -8 -426 -8h-37q-77 0 -129.5 13t-90.5 44.5t-55.5 88t-17.5 141.5v647q0 165 68.5 225.5t224.5 60.5zM397 1585h52q99 0 126 -30t27 -121v-33q0 -47 -4.5 -72.5t-20.5 -45.5t-46 -27t-82 -7h-52q-52 0 -82 7
t-46 27t-20.5 45.5t-4.5 72.5v33q0 91 27 121t126 30zM406 262h83v678h-83q-32 0 -43 -13.5t-11 -49.5v-549q0 -36 11.5 -51t42.5 -15zM311 1640l115 224h309l-217 -224h-207zM446 1501h-47q-43 0 -53 -10.5t-10 -48.5v-47q0 -39 10.5 -50.5t52.5 -11.5h47q43 0 54.5 12
t11.5 50v47q0 38 -11.5 48.5t-54.5 10.5z" />
    <glyph glyph-name="aogonek.alt" 
d="M797 -59v-35q0 -33 -1.5 -53.5t-8.5 -43t-20 -35t-37 -20.5t-58 -8h-131q-85 0 -108 25t-23 100v25q0 41 16 61.5t47 34.5h-100h-37q-77 0 -129.5 13t-90.5 44.5t-55.5 88t-17.5 141.5v647q0 165 68.5 225.5t224.5 60.5h39q87 0 193 -2.5t168 -5.5l63 -2v-1202
q-55 -2 -125 -4l-58 -33q-5 -3 -11.5 -7t-9.5 -5.5t-7 -4.5l-6 -4.5t-4.5 -4t-3 -4t-2 -4t-1.5 -5.5v-6v-6q0 -15 3 -20t16 -5h31q6 0 9.5 0.5t5 3.5t1.5 5v9v5v31h160zM406 262h83v678h-83q-32 0 -43 -13.5t-11 -49.5v-549q0 -36 11.5 -51t42.5 -15z" />
    <glyph glyph-name="idotaccent" horiz-adv-x="395" 
d="M43 0v1202h309v-1202h-309zM39 1268v198h317v-198h-317z" />
    <glyph glyph-name="aacute.alt" 
d="M336 1212h39q87 0 193 -2.5t168 -5.5l63 -2v-1202q-233 -8 -426 -8h-37q-77 0 -129.5 13t-90.5 44.5t-55.5 88t-17.5 141.5v647q0 165 68.5 225.5t224.5 60.5zM406 262h83v678h-83q-32 0 -43 -13.5t-11 -49.5v-549q0 -36 11.5 -51t42.5 -15zM295 1262l115 223h309
l-217 -223h-207z" />
    <glyph glyph-name="a.alt" 
d="M336 1212h39q87 0 193 -2.5t168 -5.5l63 -2v-1202q-233 -8 -426 -8h-37q-77 0 -129.5 13t-90.5 44.5t-55.5 88t-17.5 141.5v647q0 165 68.5 225.5t224.5 60.5zM406 262h83v678h-83q-32 0 -43 -13.5t-11 -49.5v-549q0 -36 11.5 -51t42.5 -15z" />
    <glyph glyph-name="acircumflex.alt" 
d="M336 1212h39q87 0 193 -2.5t168 -5.5l63 -2v-1202q-233 -8 -426 -8h-37q-77 0 -129.5 13t-90.5 44.5t-55.5 88t-17.5 141.5v647q0 165 68.5 225.5t224.5 60.5zM406 262h83v678h-83q-32 0 -43 -13.5t-11 -49.5v-549q0 -36 11.5 -51t42.5 -15zM150 1262l133 223h286
l133 -223h-206l-72 94l-68 -94h-206z" />
    <glyph glyph-name="adieresis.alt" 
d="M336 1212h39q87 0 193 -2.5t168 -5.5l63 -2v-1202q-233 -8 -426 -8h-37q-77 0 -129.5 13t-90.5 44.5t-55.5 88t-17.5 141.5v647q0 165 68.5 225.5t224.5 60.5zM406 262h83v678h-83q-32 0 -43 -13.5t-11 -49.5v-549q0 -36 11.5 -51t42.5 -15zM469 1268v217h205v-217h-205z
M199 1268v217h202v-217h-202z" />
    <glyph glyph-name="agrave.alt" 
d="M336 1212h39q87 0 193 -2.5t168 -5.5l63 -2v-1202q-233 -8 -426 -8h-37q-77 0 -129.5 13t-90.5 44.5t-55.5 88t-17.5 141.5v647q0 165 68.5 225.5t224.5 60.5zM406 262h83v678h-83q-32 0 -43 -13.5t-11 -49.5v-549q0 -36 11.5 -51t42.5 -15zM481 1485l115 -223h-207
l-217 223h309z" />
    <glyph glyph-name="amacron.alt" 
d="M336 1212h39q87 0 193 -2.5t168 -5.5l63 -2v-1202q-233 -8 -426 -8h-37q-77 0 -129.5 13t-90.5 44.5t-55.5 88t-17.5 141.5v647q0 165 68.5 225.5t224.5 60.5zM406 262h83v678h-83q-32 0 -43 -13.5t-11 -49.5v-549q0 -36 11.5 -51t42.5 -15zM180 1280v180h492v-180h-492z
" />
    </font>
</defs>
</svg>
