<?xml version="1.0" standalone="no"?>
<!DOCTYPE svg PUBLIC "-//W3C//DTD SVG 1.1//EN" "http://www.w3.org/Graphics/SVG/1.1/DTD/svg11.dtd" >
<svg xmlns="http://www.w3.org/2000/svg" xmlns:xlink="http://www.w3.org/1999/xlink" version="1.1">
<metadata>
Created by FontForge 20201107 at Wed Jan  8 01:16:17 2025
 By 
Copyright (c) 2012 by Rene Bieder. All rights reserved.
</metadata>
<defs>
<font id="RBNo2.1a-Medium" horiz-adv-x="796" >
  <font-face 
    font-family="RBNo2.1a Medium"
    font-weight="450"
    font-stretch="normal"
    units-per-em="2048"
    panose-1="2 0 0 0 0 0 0 0 0 0"
    ascent="1536"
    descent="-512"
    x-height="1157"
    cap-height="1434"
    bbox="-59 -440 1737 1890"
    underline-thickness="102"
    underline-position="-204"
    unicode-range="U+0020-FB02"
  />
<missing-glyph horiz-adv-x="921" 
d="M0 0v1434h922v-1434h-922zM494 717l370 -625v1247zM428 717l-369 622v-1247zM461 666l-361 -609h721zM100 1378l361 -610l360 610h-721z" />
    <glyph glyph-name="fi" unicode="fi" horiz-adv-x="817" 
d="M512 1464v-174h-158q-33 0 -44 -16.5t-11 -48.5v-68h442v-1157h-194v993h-248v-993h-195v993h-84v164h84v82q0 72 11 114.5t41.5 68t75.5 34t122 8.5h158z" />
    <glyph glyph-name="fl" unicode="fl" horiz-adv-x="815" 
d="M354 1464h387v-1464h-194v1311h-193q-32 0 -43.5 -17t-11.5 -49v-88h131v-164h-131v-993h-195v993h-84v164h84v82q0 72 11 114.5t41.5 68t75.5 34t122 8.5z" />
    <glyph glyph-name=".notdef" horiz-adv-x="921" 
d="M0 0v1434h922v-1434h-922zM494 717l370 -625v1247zM428 717l-369 622v-1247zM461 666l-361 -609h721zM100 1378l361 -610l360 610h-721z" />
    <glyph glyph-name=".null" horiz-adv-x="0" 
 />
    <glyph glyph-name="nonmarkingreturn" horiz-adv-x="682" 
 />
    <glyph glyph-name="space" unicode=" " horiz-adv-x="307" 
 />
    <glyph glyph-name="exclam" unicode="!" horiz-adv-x="391" 
d="M145 428l-47 625v381h195v-381l-47 -625h-101zM109 0v260h174v-260h-174z" />
    <glyph glyph-name="quotedbl" unicode="&#x22;" horiz-adv-x="612" 
d="M84 850l-4 584h174v-228l-51 -356h-119zM362 850l-4 584h174v-228l-51 -356h-119z" />
    <glyph glyph-name="numbersign" unicode="#" horiz-adv-x="1181" 
d="M147 944l23 143h166l55 347h152l-54 -347h289l53 347h154l-55 -347h200l-24 -143h-201l-74 -481h199l-24 -141h-199l-49 -322h-152l49 322h-290l-48 -322h-151l49 322h-168l23 141h170l71 481h-164zM463 944l-72 -481h289l72 481h-289z" />
    <glyph glyph-name="dollar" unicode="$" horiz-adv-x="823" 
d="M344 -176v170q-110 3 -169 29.5t-86.5 90t-27.5 181.5v188h205v-202q0 -73 28 -93t93 -20h51q64 0 92.5 20t28.5 93v211q0 22 -2.5 38t-10 29t-13.5 21t-21.5 17t-23.5 13t-30.5 13t-33.5 14l-150 51q-44 18 -68.5 29.5t-56.5 34t-48 48.5t-28 68t-12 97v174
q0 117 27.5 181t87 90.5t168.5 29.5v141h166v-145q139 -9 192.5 -72t53.5 -225v-187h-205v203q0 39 -7.5 62t-26 33.5t-36.5 13t-51 2.5h-43q-32 0 -50 -2.5t-36.5 -13t-26.5 -34t-8 -61.5v-139q0 -39 6 -63.5t28.5 -42.5t39 -26t63.5 -26l15 -6l141 -49q41 -15 67 -27.5
t55 -35t45.5 -50t27 -70.5t10.5 -98v-227q0 -112 -25 -175t-78.5 -91t-150.5 -33v-172h-166z" />
    <glyph glyph-name="percent" unicode="%" horiz-adv-x="1292" 
d="M266 1438h78q104 0 146 -43t42 -146v-415q0 -104 -41.5 -147.5t-146.5 -43.5h-78q-105 0 -146.5 43.5t-41.5 147.5v415q0 103 42 146t146 43zM948 791h78q104 0 146 -43t42 -146v-416q0 -104 -42 -148t-146 -44h-78q-104 0 -146 44t-42 148v416q0 103 42 146t146 43z
M1020 692h-66q-36 0 -53.5 -16.5t-17.5 -59.5v-444q0 -43 17.5 -59.5t53.5 -16.5h66q36 0 54 16.5t18 59.5v444q0 43 -18 59.5t-54 16.5zM338 1339h-66q-36 0 -53.5 -16t-17.5 -59v-445q0 -43 17.5 -59.5t53.5 -16.5h66q36 0 54 16.5t18 59.5v445q0 43 -17.5 59t-54.5 16z
M303 0l553 1434h123l-553 -1434h-123z" />
    <glyph glyph-name="ampersand" unicode="&#x26;" horiz-adv-x="983" 
d="M649 1372v-174h-209q-53 0 -81.5 -24.5t-28.5 -90.5v-149q0 -65 27 -89t79 -26h531v-133l-205 -41v-645h-367q-66 0 -107 3t-80.5 13.5t-60.5 29t-38 51.5t-23 80t-6 114v209q0 219 174 235q-129 19 -129 230v118q0 91 14.5 146t53.5 87.5t96 44t151 11.5h209zM571 166
v467h-172q-54 0 -84 -24.5t-30 -90.5v-248q0 -66 26 -85t84 -19h176z" />
    <glyph glyph-name="quotesingle" unicode="'" horiz-adv-x="333" 
d="M84 850l-4 584h174v-228l-51 -356h-119z" />
    <glyph glyph-name="parenleft" unicode="(" horiz-adv-x="425" 
d="M254 1200v-1147q0 -58 5 -85.5t20 -59.5q8 -18 45.5 -64t42.5 -53l-80 -76q-31 22 -75 62.5t-69 72.5q-63 75 -63 203v1147q0 126 63 201q25 32 69 72.5t75 62.5l78 -76q-4 -7 -41 -53t-45 -64q-15 -31 -20 -58.5t-5 -84.5z" />
    <glyph glyph-name="parenright" unicode=")" horiz-adv-x="425" 
d="M172 53v1147q0 57 -5 84.5t-20 58.5q-8 18 -45 64t-41 53l78 76q31 -22 75 -62.5t69 -72.5q63 -75 63 -201v-1147q0 -128 -63 -203q-25 -32 -69 -72.5t-75 -62.5l-80 76q5 7 42.5 53t45.5 64q15 32 20 59.5t5 85.5z" />
    <glyph glyph-name="asterisk" unicode="*" horiz-adv-x="684" 
d="M588 899l-99 62l-116 112l18 33l152 -57l96 -60zM293 1120l-152 58l-96 61l51 90l99 -61l116 -115zM311 1073l-116 -112l-99 -62l-51 90l96 60l152 57zM639 1239l-96 -61l-152 -58l-18 33l116 115l99 61zM291 793v114l33 160h36l33 -160v-114h-102zM324 1159l-33 160v115
h102v-115l-33 -160h-36z" />
    <glyph glyph-name="plus" unicode="+" horiz-adv-x="686" 
d="M43 668v135h231v231h136v-231h235v-135h-235v-236h-136v236h-231z" />
    <glyph glyph-name="comma" unicode="," horiz-adv-x="333" 
d="M78 0v250h178v-199q0 -88 -24.5 -142.5t-88.5 -135.5l-59 43q41 66 51 97.5t10 86.5h-67z" />
    <glyph glyph-name="hyphen" unicode="-" horiz-adv-x="585" 
d="M43 535v159h500v-159h-500z" />
    <glyph glyph-name="period" unicode="." horiz-adv-x="372" 
d="M98 0v250h176v-250h-176z" />
    <glyph glyph-name="slash" unicode="/" horiz-adv-x="518" 
d="M43 -74l287 1587h125l-289 -1587h-123z" />
    <glyph glyph-name="zero" unicode="0" horiz-adv-x="862" 
d="M397 1440h68q185 0 255.5 -68t70.5 -254v-803q0 -184 -70.5 -252.5t-255.5 -68.5h-68q-184 0 -254.5 69t-70.5 252v803q0 186 70 254t255 68zM397 168h68q63 0 92 21t29 94v868q0 73 -29 94t-92 21h-68q-63 0 -92 -21t-29 -94v-868q0 -73 29 -94t92 -21z" />
    <glyph glyph-name="one" unicode="1" horiz-adv-x="669" 
d="M-8 1315l276 119h197v-1268h199v-166h-603v166h209v1073l-227 -59z" />
    <glyph glyph-name="two" unicode="2" horiz-adv-x="765" 
d="M57 0v360q0 107 36.5 172t107.5 125l186 164q75 59 107 116.5t32 135.5v88q0 73 -27.5 93t-92.5 20h-35q-64 0 -92.5 -20t-28.5 -93v-170h-189v148q0 93 18 152.5t59.5 92t96.5 44.5t142 12h51q161 0 223 -67t62 -234v-95q0 -61 -11 -109t-36 -86.5t-49 -63.5t-64 -60
l-172 -152q-11 -10 -33 -28.5t-30 -26t-23 -23t-20.5 -26.5t-12.5 -28t-9.5 -36.5t-2.5 -44.5v-194h471v-166h-664z" />
    <glyph glyph-name="three" unicode="3" horiz-adv-x="778" 
d="M213 651v166h236q44 0 67 22t23 81v239q0 73 -29 94t-92 21h-66q-64 0 -92.5 -21t-28.5 -94v-123h-180v103q0 96 15 153.5t54.5 91t97.5 45t155 11.5h55q87 0 140.5 -11.5t92.5 -44.5t55.5 -92t16.5 -153v-172q0 -116 -29.5 -166.5t-93.5 -61.5q65 -9 94 -57t29 -166
v-221q0 -69 -9 -119t-29 -83t-43.5 -53t-61.5 -30t-73 -13t-89 -3h-55q-97 0 -155 11.5t-97.5 45t-54.5 91t-15 153.5v113h185v-134q0 -73 28 -93.5t92 -20.5h62q63 0 92 20.5t29 93.5v273q0 59 -22.5 80.5t-67.5 23.5h-236z" />
    <glyph glyph-name="four" unicode="4" horiz-adv-x="901" 
d="M2 457l358 977h330v-957h187v-166h-187v-311h-194v311h-494v146zM477 1266l-268 -789h287v789h-19z" />
    <glyph glyph-name="five" unicode="5" horiz-adv-x="772" 
d="M88 1434h598v-174h-410v-367h211q50 0 84 -5t67 -20.5t51.5 -43.5t30 -75.5t11.5 -115.5v-338q0 -60 -5.5 -104.5t-15.5 -77t-30.5 -54t-42.5 -35t-60.5 -20t-75.5 -8.5t-95 -2h-84q-86 0 -135 11t-81.5 45.5t-43.5 91t-11 153.5v139h189v-180q0 -16 1.5 -28.5t3.5 -22
t7 -16.5t8.5 -12t12 -8t13 -4.5t16 -2t17.5 -0.5h20h21h56h20.5h19.5t17.5 0.5t16.5 2t13.5 4.5t12 8t8.5 12t7.5 16.5t4 22t1.5 28.5v354q0 62 -25.5 83.5t-75.5 21.5h-358z" />
    <glyph glyph-name="six" unicode="6" horiz-adv-x="780" 
d="M371 838h86q59 0 95.5 -3.5t72 -15t55 -32.5t35 -57.5t21 -88t5.5 -125.5v-221q0 -64 -6 -110t-21.5 -80t-38 -55t-59.5 -34t-81.5 -17.5t-108.5 -4.5h-53q-183 0 -252.5 66t-69.5 235v833q0 96 16 155.5t56 95t99.5 48.5t154.5 13h45q76 0 125.5 -12t88.5 -44t57 -92
t18 -153v-127h-189v147q0 40 -7.5 64.5t-25.5 35t-34.5 13t-48.5 2.5h-44q-61 0 -88.5 -21t-27.5 -94v-352q50 31 125 31zM426 672h-86q-46 0 -70 -16t-24 -66v-316q0 -38 8.5 -62t26.5 -35t36.5 -14t49.5 -3h59q31 0 49.5 3t36.5 14t26.5 35t8.5 62v273q0 76 -30 100.5
t-91 24.5z" />
    <glyph glyph-name="seven" unicode="7" horiz-adv-x="706" 
d="M31 1260v174h643v-187l-357 -1247h-200l356 1227v33h-442z" />
    <glyph glyph-name="eight" unicode="8" horiz-adv-x="798" 
d="M385 -6q-79 0 -130.5 6t-96 23.5t-68.5 50t-37.5 84t-13.5 127.5v227q0 133 37.5 184t128.5 60q-71 13 -104.5 61.5t-34.5 159.5v158q0 77 10 128.5t31.5 87t60.5 54.5t89.5 27t127.5 8h33q97 0 155.5 -12t98.5 -46t55.5 -92.5t15.5 -154.5v-138q0 -124 -33.5 -176.5
t-111.5 -64.5q88 -9 125 -60.5t37 -183.5v-227q0 -94 -18.5 -151.5t-64.5 -88.5t-105 -41t-158 -10h-29zM434 168h30t26 1.5t26 5t19 11t17 18t8.5 27.5t4.5 39v279q0 73 -28.5 93t-92.5 20h-94q-31 -1 -48.5 -4t-35.5 -14t-25.5 -34t-7.5 -61v-279q0 -30 7.5 -50t16.5 -30
t28.5 -15.5t32.5 -6t40 -0.5h7h69zM428 1266h-47q-33 0 -50 -2.5t-36 -12t-27 -33t-8 -61.5v-215q0 -29 5.5 -49t13 -30.5t24 -16t29 -6.5t37.5 -2h67q33 1 47.5 3t33 11t25.5 31t7 59v215q0 39 -7.5 62t-26.5 32.5t-36 12t-51 2.5z" />
    <glyph glyph-name="nine" unicode="9" horiz-adv-x="790" 
d="M410 561h-76q-59 0 -96.5 3.5t-74 15t-57.5 32.5t-37.5 57t-23 88t-6.5 126v256q0 95 15.5 153.5t56.5 91.5t99 44.5t155 11.5h43q183 0 252 -65.5t69 -235.5v-834q0 -77 -9.5 -129t-30.5 -89t-59 -56.5t-89 -28t-127 -8.5h-45q-96 0 -152 11t-93.5 45t-51 91t-13.5 154
v102h185v-112q0 -74 30 -99.5t91 -25.5h49q62 0 91.5 25.5t29.5 99.5v305q-50 -29 -125 -29zM354 727h86q50 0 72.5 19t22.5 81v338q0 38 -8 61.5t-27 33t-36.5 12t-49.5 2.5h-60q-32 0 -49.5 -2.5t-36.5 -12t-27 -33t-8 -61.5v-323q0 -73 29.5 -94t91.5 -21z" />
    <glyph glyph-name="colon" unicode=":" horiz-adv-x="333" 
d="M80 0v250h176v-250h-176zM80 907v250h176v-250h-176z" />
    <glyph glyph-name="semicolon" unicode=";" horiz-adv-x="333" 
d="M78 0v250h178v-199q0 -88 -24.5 -142.5t-88.5 -135.5l-59 43q41 66 51 97.5t10 86.5h-67zM80 907v250h176v-250h-176z" />
    <glyph glyph-name="less" unicode="&#x3c;" horiz-adv-x="665" 
d="M623 936l-392 -197l392 -194v-162l-580 287v141l580 287v-162z" />
    <glyph glyph-name="equal" unicode="=" horiz-adv-x="686" 
d="M43 827v129h602v-129h-602zM43 500v129h602v-129h-602z" />
    <glyph glyph-name="greater" unicode="&#x3e;" horiz-adv-x="665" 
d="M434 739l-391 197v162l580 -287v-141l-580 -287v162z" />
    <glyph glyph-name="question" unicode="?" horiz-adv-x="800" 
d="M377 1440h51q86 0 141.5 -12t96.5 -44.5t59 -92t18 -152.5v-125q0 -20 -2.5 -38t-4.5 -32.5t-10 -30t-11.5 -25t-16 -24.5t-17.5 -21.5t-21.5 -21.5l-22 -20t-26.5 -22.5l-27 -22.5q-25 -21 -57.5 -47.5t-44 -36.5t-26.5 -25t-18.5 -27.5t-6.5 -30t-3 -44.5v-117h-160
v190q0 25 5.5 45.5t21.5 41.5t26 32t38 36.5t38 35.5q14 13 44.5 42t39.5 39t27.5 32t24 36.5t11 37t5.5 48.5v121q0 39 -7.5 62t-26.5 32.5t-36 12t-51 2.5h-51q-63 0 -92 -22t-29 -95v-186h-195v168q0 93 18 152.5t59.5 92t96.5 44.5t142 12zM258 0v260h174v-260h-174z
" />
    <glyph glyph-name="at" unicode="@" horiz-adv-x="1101" 
d="M567 1075q78 0 127 -12t77.5 -41.5t39 -71.5t10.5 -110v-607q0 -60 13 -81t61 -21q61 0 77.5 25t16.5 88v743q0 131 -48 187.5t-179 56.5h-422q-130 0 -178.5 -57t-48.5 -187v-835q0 -130 48.5 -187t178.5 -57h555v-45h-555q-154 0 -217.5 61.5t-63.5 227.5v835
q0 166 63.5 227.5t217.5 61.5h422q155 0 217.5 -61.5t62.5 -227.5v-754q0 -99 -35.5 -132t-111.5 -33q-109 0 -147.5 8t-81.5 43q-32 -25 -58 -35t-80 -10h-39q-225 0 -225 205v206q0 109 51.5 157t153.5 48h186v154q0 33 -6 52.5t-20 28.5t-27 11t-37 2h-28
q-26 0 -38.5 -1.5t-27.5 -9t-21 -26t-6 -49.5v-94h-153v82q0 67 10 108.5t37 71.5t74.5 42t124.5 13h30zM510 219h29q63 0 116 39v305h-145q-47 0 -62.5 -25.5t-15.5 -72.5v-160q0 -40 20.5 -63t57.5 -23z" />
    <glyph glyph-name="A" unicode="A" horiz-adv-x="901" 
d="M614 1434l277 -1434h-205l-61 289h-351l-59 -289h-205l277 1434h327zM438 1272l-135 -789h293l-135 789h-23z" />
    <glyph glyph-name="B" unicode="B" horiz-adv-x="831" 
d="M76 0v1434h362q94 0 151 -11.5t96 -44t54 -87.5t15 -146v-180q0 -117 -30.5 -169t-94.5 -65q67 -11 99 -61t32 -170v-209q0 -67 -6 -114t-23 -80t-38 -51.5t-61 -29t-81 -13.5t-107 -3h-368zM281 643v-469h163q56 0 83.5 19.5t27.5 85.5v262q0 64 -29 83t-88 19h-157z
M281 1260v-443h165q52 0 77.5 20.5t25.5 84.5v233q0 65 -27 85t-84 20h-157z" />
    <glyph glyph-name="C" unicode="C" horiz-adv-x="835" 
d="M397 1440h62q97 0 155.5 -11.5t98.5 -45.5t55.5 -91.5t15.5 -152.5v-260h-204v272q0 73 -28.5 94t-92.5 21h-62q-63 0 -92 -21t-29 -94v-868q0 -73 29 -94t92 -21h62q64 0 92.5 21t28.5 94v313h204v-301q0 -94 -15.5 -151.5t-55.5 -91.5t-98.5 -46t-155.5 -12h-62
q-96 0 -154.5 12t-99 45.5t-56 91.5t-15.5 152v844q0 95 15.5 153t56 91.5t99 45t154.5 11.5z" />
    <glyph glyph-name="D" unicode="D" horiz-adv-x="839" 
d="M76 0v1434h381q94 0 151 -11.5t95.5 -44.5t53.5 -88t15 -145v-854q0 -90 -15 -145.5t-53.5 -88.5t-95.5 -45t-151 -12h-381zM457 1260h-174l-2 -1086h176q57 0 83.5 20.5t26.5 86.5v880q0 64 -25.5 81.5t-84.5 17.5z" />
    <glyph glyph-name="E" unicode="E" horiz-adv-x="720" 
d="M285 647v-473h391v-174h-596v1434h596v-174h-391v-439h360v-174h-360z" />
    <glyph glyph-name="F" unicode="F" horiz-adv-x="690" 
d="M285 623v-623h-205v1434h586v-174h-381v-463h350v-174h-350z" />
    <glyph glyph-name="G" unicode="G" horiz-adv-x="843" 
d="M397 1440h58q96 0 154.5 -11.5t99 -45t56 -91.5t15.5 -153v-168h-205v180q0 73 -29 94t-91 21h-58q-62 0 -91.5 -21t-29.5 -94v-879q0 -38 7.5 -60.5t27.5 -31.5t35 -10.5t51 -1.5h58h30t25 2t23 5.5t16.5 11t14.5 18.5t7.5 28t3.5 39v310h-157v174h362v-461
q0 -94 -15.5 -152t-56 -91.5t-99 -45.5t-154.5 -12h-58q-96 0 -154.5 12t-99 45.5t-56 91.5t-15.5 152v844q0 95 15.5 153t56 91.5t99 45t154.5 11.5z" />
    <glyph glyph-name="H" unicode="H" horiz-adv-x="866" 
d="M80 0v1434h205v-613h299v613h204v-1434h-204v627h-299v-627h-205z" />
    <glyph glyph-name="I" unicode="I" horiz-adv-x="364" 
d="M80 0v1434h205v-1434h-205z" />
    <glyph glyph-name="J" unicode="J" horiz-adv-x="546" 
d="M14 0v168h144q56 0 83 19t27 83v1166h205v-1112q0 -77 -6.5 -131t-21.5 -92.5t-39.5 -59.5t-59.5 -33.5t-81.5 -13.5t-106.5 0z" />
    <glyph glyph-name="K" unicode="K" horiz-adv-x="851" 
d="M285 600v-600h-205v1434h205v-639h129l190 639h215l-225 -721l246 -713h-226l-188 600h-141z" />
    <glyph glyph-name="L" unicode="L" horiz-adv-x="661" 
d="M80 0v1434h205v-1260h360v-174h-565z" />
    <glyph glyph-name="M" unicode="M" horiz-adv-x="1136" 
d="M80 1434h299l184 -1026h8l185 1026h301v-1434h-211l10 981h-2l-184 -981h-201l-186 979h-4l10 -979h-209v1434z" />
    <glyph glyph-name="N" unicode="N" horiz-adv-x="882" 
d="M80 1434h217l305 -920h2v920h201v-1434h-223l-287 891h-10v-891h-205v1434z" />
    <glyph glyph-name="O" unicode="O" horiz-adv-x="862" 
d="M397 1440h68q96 0 154.5 -11.5t99 -45t56.5 -91.5t16 -153v-844q0 -94 -16 -152t-56.5 -91.5t-99 -45.5t-154.5 -12h-68q-96 0 -154.5 12t-98.5 46t-56 92t-16 151v844q0 95 15.5 153t56 91.5t99 45t154.5 11.5zM401 168h60q64 0 94.5 21t30.5 94v868q0 73 -30.5 94
t-94.5 21h-60q-64 0 -94.5 -21t-30.5 -94v-868q0 -73 30.5 -94t94.5 -21z" />
    <glyph glyph-name="P" unicode="P" horiz-adv-x="790" 
d="M76 0v1434h377q91 0 146.5 -11.5t92.5 -43.5t51.5 -85t14.5 -139v-389q0 -87 -14 -140.5t-51.5 -85t-93 -42.5t-146.5 -11h-172v-487h-205zM444 1260h-163v-598h163q26 0 42.5 2.5t33.5 11t25 28.5t8 52v409q0 60 -27.5 77.5t-81.5 17.5z" />
    <glyph glyph-name="Q" unicode="Q" horiz-adv-x="862" 
d="M397 1440h68q96 0 154.5 -11.5t99 -45t56.5 -91.5t16 -153v-844q0 -114 -25.5 -176.5t-83.5 -91.5l82 -197h-154l-98 166q-14 -2 -47 -2h-68q-96 0 -154.5 12t-98.5 46t-56 92t-16 151v844q0 95 15.5 153t56 91.5t99 45t154.5 11.5zM401 168h60q64 0 94.5 21t30.5 94v868
q0 73 -30.5 94t-94.5 21h-60q-64 0 -94.5 -21t-30.5 -94v-868q0 -73 30.5 -94t94.5 -21z" />
    <glyph glyph-name="R" unicode="R" horiz-adv-x="811" 
d="M76 0v1434h387q91 0 146.5 -11t93 -42.5t51.5 -85t14 -140.5v-242q0 -203 -129 -223q67 -14 98 -67t31 -174v-449h-205v479q0 63 -27.5 88t-76.5 27h-178v-594h-205zM281 1260v-492h182q26 0 41 2.5t30.5 11.5t22 28.5t6.5 51.5v307q0 32 -7.5 51.5t-24.5 27.5t-32 10
t-42 2h-176z" />
    <glyph glyph-name="S" unicode="S" horiz-adv-x="823" 
d="M387 1440h43q97 0 155.5 -11.5t99 -45.5t56 -91.5t15.5 -152.5v-187h-205v203q0 39 -7.5 62t-26 33.5t-36.5 13t-51 2.5h-43q-32 0 -50 -2.5t-36.5 -13t-26.5 -34t-8 -61.5v-139q0 -39 6 -63.5t28.5 -42.5t39 -26t63.5 -26l15 -6l141 -49q41 -15 67 -27.5t55 -35
t45.5 -50t27 -70.5t10.5 -98v-227q0 -94 -16 -152t-56.5 -91.5t-99 -45.5t-154.5 -12h-51q-97 0 -155.5 12t-99 46t-56 91.5t-15.5 151.5v188h205v-202q0 -73 28 -93t93 -20h51q64 0 92.5 20t28.5 93v211q0 22 -2.5 38t-10 29t-13.5 21t-21.5 17t-23.5 13t-30.5 13t-33.5 14
l-150 51q-44 18 -68.5 29.5t-56.5 34t-48 48.5t-28 68t-12 97v174q0 95 16 153t56.5 91.5t99 45t154.5 11.5z" />
    <glyph glyph-name="T" unicode="T" horiz-adv-x="770" 
d="M487 1260v-1260h-204v1260h-271v174h746v-174h-271z" />
    <glyph glyph-name="U" unicode="U" horiz-adv-x="862" 
d="M72 1434h204v-1145q0 -76 21.5 -98.5t79.5 -22.5h108q58 0 79.5 22.5t21.5 98.5v1145h205v-1139q0 -94 -16 -152t-56.5 -91.5t-99 -45.5t-154.5 -12h-68q-96 0 -154.5 12t-99 45.5t-56 91.5t-15.5 152v1139z" />
    <glyph glyph-name="V" unicode="V" horiz-adv-x="935" 
d="M913 1434l-266 -1434h-358l-266 1434h204l222 -1211h36l224 1211h204z" />
    <glyph glyph-name="W" unicode="W" horiz-adv-x="1241" 
d="M18 1434h211l127 -1176h9l124 1176h265l123 -1176h8l129 1176h211l-164 -1434h-359l-75 961h-13l-73 -961h-359z" />
    <glyph glyph-name="X" unicode="X" horiz-adv-x="804" 
d="M780 1434l-248 -709l259 -725h-205l-185 543l-182 -543h-205l258 725l-247 709h204l172 -523l174 523h205z" />
    <glyph glyph-name="Y" unicode="Y" horiz-adv-x="843" 
d="M319 0v561l-305 873h205l201 -633l203 633h206l-305 -873v-561h-205z" />
    <glyph glyph-name="Z" unicode="Z" horiz-adv-x="720" 
d="M55 1257v177h625v-174l-426 -1086h426v-174h-639v176l446 1081h-432z" />
    <glyph glyph-name="bracketleft" unicode="[" horiz-adv-x="532" 
d="M258 1358v-1395h256v-147h-430v1689h430v-147h-256z" />
    <glyph glyph-name="backslash" unicode="\" horiz-adv-x="518" 
d="M188 1513l287 -1587h-123l-289 1587h125z" />
    <glyph glyph-name="bracketright" unicode="]" horiz-adv-x="532" 
d="M274 -37v1395h-256v147h431v-1689h-431v147h256z" />
    <glyph glyph-name="asciicircum" unicode="^" horiz-adv-x="870" 
d="M610 956l-174 338l-176 -338h-151l256 478h141l256 -478h-152z" />
    <glyph glyph-name="underscore" unicode="_" horiz-adv-x="866" 
d="M-8 -223v135h882v-135h-882z" />
    <glyph glyph-name="grave" unicode="`" horiz-adv-x="1024" 
d="M539 1425l82 -188h-132l-149 188h199z" />
    <glyph glyph-name="a" unicode="a" horiz-adv-x="774" 
d="M379 1163h37q116 0 177.5 -27t84 -81t22.5 -154v-891q-218 -16 -335 -16h-62q-118 0 -180 54t-62 177v279q0 122 62 175.5t180 53.5h203v170q0 34 -6 54.5t-21 29t-28 10.5t-39 2h-37q-27 0 -39 -1.5t-27.5 -9.5t-21.5 -27t-6 -52v-96h-181v88q0 76 11 122t41.5 79.5
t84.5 47t142 13.5zM256 502v-246q0 -90 74 -90h176v420h-176q-74 0 -74 -84z" />
    <glyph glyph-name="b" unicode="b" 
d="M74 0v1475h194v-318h215q119 0 180.5 -50.5t61.5 -172.5v-709q0 -123 -62 -177t-180 -54h-63q-101 0 -187.5 1.5t-122.5 2.5zM449 993h-181v-827h181q39 0 60 23.5t21 66.5v647q0 42 -21 66t-60 24z" />
    <glyph glyph-name="c" unicode="c" horiz-adv-x="768" 
d="M362 1163h64q118 0 181 -27t86.5 -81t23.5 -154v-194h-195v192q0 60 -23.5 80t-72.5 20h-64q-49 0 -72.5 -20t-23.5 -80v-641q0 -59 23.5 -79.5t72.5 -20.5h64q49 0 72.5 20.5t23.5 79.5v213h195v-215q0 -74 -12 -121t-45 -80t-89 -47t-145 -14h-64q-117 0 -180.5 27.5
t-86.5 81.5t-23 153v645q0 100 23.5 154t86 81t180.5 27z" />
    <glyph glyph-name="d" unicode="d" 
d="M72 225v709q0 122 61 172.5t180 50.5h215v318h195v-1475q-211 -6 -344 -6h-66q-118 0 -179.5 54t-61.5 177zM528 166v827h-180q-39 0 -60.5 -24t-21.5 -66v-647q0 -43 21 -66.5t61 -23.5h180z" />
    <glyph glyph-name="e" unicode="e" horiz-adv-x="784" 
d="M362 1163h62q116 0 179.5 -27t87.5 -81.5t24 -153.5v-401l-449 -4v-238q0 -60 23.5 -80t72.5 -20h72q49 0 72.5 20t23.5 80v107h185v-109q0 -74 -12 -121t-45 -80t-89 -47t-145 -14h-62q-117 0 -180.5 27.5t-86.5 81.5t-23 153v645q0 100 23.5 154t86 81t180.5 27z
M362 999q-49 0 -72.5 -20.5t-23.5 -79.5v-237h254v237q0 59 -23.5 79.5t-72.5 20.5h-62z" />
    <glyph glyph-name="f" unicode="f" horiz-adv-x="473" 
d="M461 1157v-164h-162v-993h-195v993h-84v164h84v72q0 72 11 114.5t41.5 68t75.5 34t122 8.5q18 0 46.5 -2.5t47.5 -5.5l19 -2v-154h-113q-33 0 -44 -16.5t-11 -48.5v-68h162z" />
    <glyph glyph-name="g" unicode="g" 
d="M72 913q0 123 72 186.5t190 63.5h47l342 -6v-1157q0 -84 -11.5 -133t-46 -79t-87.5 -40t-146 -10h-57q-88 0 -142.5 14.5t-85.5 51.5t-42 89t-11 138v30h180v-71q0 -55 20 -71.5t66 -16.5h80q49 0 68.5 18t19.5 78v111h-215q-118 0 -179.5 53t-61.5 176v575zM528 279v714
h-180q-39 0 -60.5 -24t-21.5 -66v-534q0 -43 21 -66.5t61 -23.5h180z" />
    <glyph glyph-name="h" unicode="h" 
d="M528 0v903q0 42 -21.5 66t-60.5 24h-178v-993h-194v1475h194v-318h213q119 0 180.5 -50.5t61.5 -172.5v-934h-195z" />
    <glyph glyph-name="i" unicode="i" horiz-adv-x="344" 
d="M76 0v1157h194v-1157h-194zM72 1260v184h200v-184h-200z" />
    <glyph glyph-name="j" unicode="j" horiz-adv-x="342" 
d="M61 -244l-104 101q62 76 78 104q39 70 39 193v1003h194v-1024q0 -246 -207 -377zM72 1260v184h200v-184h-200z" />
    <glyph glyph-name="k" unicode="k" horiz-adv-x="786" 
d="M580 0l-181 524h-131v-524h-194v1475h194v-762h129l168 444h197l-203 -536l217 -621h-196z" />
    <glyph glyph-name="l" unicode="l" horiz-adv-x="342" 
d="M74 0v1475h194v-1475h-194z" />
    <glyph glyph-name="m" unicode="m" horiz-adv-x="1228" 
d="M74 0v1157l786 6h55q118 0 180 -53.5t62 -175.5v-934h-194v903q0 42 -21.5 66t-60.5 24h-168v-993h-195v944q0 37 -5 43t-36 6h-209v-993h-194z" />
    <glyph glyph-name="n" unicode="n" 
d="M528 0v903q0 42 -21.5 66t-60.5 24h-178v-993h-194v1157q194 6 344 6h63q118 0 180 -53.5t62 -175.5v-934h-195z" />
    <glyph glyph-name="o" unicode="o" horiz-adv-x="792" 
d="M362 1163h70q116 0 179.5 -27t87.5 -81.5t24 -153.5v-645q0 -146 -60.5 -204t-230.5 -58h-70q-117 0 -180.5 27.5t-86.5 81.5t-23 153v645q0 100 23.5 154t86 81t180.5 27zM362 158h70q49 0 72.5 20.5t23.5 79.5l2 643q0 60 -23.5 80t-72.5 20h-69q-50 0 -73.5 -20
t-23.5 -80l-2 -643q0 -59 23.5 -79.5t72.5 -20.5z" />
    <glyph glyph-name="p" unicode="p" 
d="M74 -246v1403q162 6 344 6h65q115 0 178.5 -62.5t63.5 -187.5v-688q0 -123 -62 -177t-180 -54h-63l-152 6v-246h-194zM449 993h-181v-827h181q39 0 60 23.5t21 66.5v647q0 42 -21 66t-60 24z" />
    <glyph glyph-name="q" unicode="q" 
d="M72 225v688q0 123 72 186.5t190 63.5h47l342 -6v-1403h-195v246q-106 -6 -149 -6h-66q-118 0 -179.5 54t-61.5 177zM528 166v827h-180q-39 0 -60.5 -24t-21.5 -66v-647q0 -43 21 -66.5t61 -23.5h180z" />
    <glyph glyph-name="r" unicode="r" horiz-adv-x="559" 
d="M74 0v956q0 91 53.5 149t161.5 58h20q36 0 97 -3t104 -6l43 -3v-143q-144 -9 -203 -13q-52 -3 -66 -21t-16 -69v-905h-194z" />
    <glyph glyph-name="s" unicode="s" horiz-adv-x="706" 
d="M338 1163h20q88 0 142.5 -13.5t85.5 -47t42 -80t11 -121.5v-92h-184v102q0 58 -22.5 73t-74.5 15h-20q-52 0 -74 -15t-22 -73v-92q0 -12 2 -22t4 -17.5t9 -14.5t10.5 -11t15.5 -10.5t17.5 -9t23 -10.5t24.5 -11l137 -54q44 -17 70.5 -32t53 -40.5t38.5 -63.5t12 -91v-166
q0 -75 -12 -123t-44.5 -82.5t-89 -49.5t-144.5 -15h-31q-118 0 -181 27t-86.5 81t-23.5 154v107h195v-115q0 -58 22.5 -74t73.5 -16h31q49 0 72.5 19.5t23.5 78.5v141q0 18 -2.5 31.5t-10 25t-11.5 18t-19 15t-19 11t-24 11t-23 9.5l-135 55q-26 11 -34.5 14.5t-31 14
t-30.5 17.5t-24.5 20.5t-23 27.5t-15.5 34t-12 44.5t-3 53.5v100q0 100 23.5 154t86.5 81t181 27z" />
    <glyph glyph-name="t" unicode="t" horiz-adv-x="487" 
d="M463 1157v-164h-162v-762q0 -32 11 -48.5t44 -16.5h123v-166l-123 -6q-147 -5 -198.5 41t-51.5 186v772h-83v164h83v256h195v-256h162z" />
    <glyph glyph-name="u" unicode="u" horiz-adv-x="792" 
d="M264 1157v-901q0 -43 21 -66.5t61 -23.5h178v991h195v-1157q-266 -6 -342 -6h-66q-118 0 -179.5 54t-61.5 177v932h194z" />
    <glyph glyph-name="v" unicode="v" horiz-adv-x="770" 
d="M762 1157l-225 -1157h-304l-225 1157h205l166 -915h12l166 915h205z" />
    <glyph glyph-name="w" unicode="w" horiz-adv-x="1114" 
d="M633 0l-74 680h-6l-72 -680h-307l-166 1157h205l113 -901h10l108 901h226l108 -901h8l115 901h205l-166 -1157h-307z" />
    <glyph glyph-name="x" unicode="x" horiz-adv-x="743" 
d="M725 1157l-199 -565l199 -592h-205l-147 455l-148 -455h-205l199 592l-199 565h205l148 -426l147 426h205z" />
    <glyph glyph-name="y" unicode="y" horiz-adv-x="763" 
d="M213 10l-219 1147h211l162 -964h16l172 964h195l-258 -1415h-187l49 268h-141z" />
    <glyph glyph-name="z" unicode="z" horiz-adv-x="684" 
d="M655 172v-172h-626v166l405 819h-395v172h612v-172l-401 -813h405z" />
    <glyph glyph-name="braceleft" unicode="{" horiz-adv-x="485" 
d="M16 582v104q2 1 18.5 10t31.5 20t32.5 28.5t28 45t10.5 60.5v350q0 121 64 201q24 31 68 71.5t75 63.5l70 -55q-6 -10 -37.5 -55t-40.5 -62q-25 -54 -25 -164v-350q0 -135 -118 -217q118 -82 118 -215v-365q0 -112 25 -166q9 -16 40 -60t38 -56l-70 -56
q-29 21 -73.5 62.5t-69.5 72.5q-64 80 -64 203v365q0 16 -3 31t-7 27t-11.5 23.5t-13.5 20t-16 17t-15.5 13.5t-16.5 11.5t-15 8.5t-13 7z" />
    <glyph glyph-name="bar" unicode="|" horiz-adv-x="483" 
d="M166 -143v1699h153v-1699h-153z" />
    <glyph glyph-name="braceright" unicode="}" horiz-adv-x="485" 
d="M467 686v-104l-9 -5l-14 -7t-15 -8.5t-16.5 -11.5t-15.5 -13.5t-16 -17t-13.5 -20t-11.5 -23.5t-7 -27t-3 -31v-365q0 -124 -63 -203q-25 -31 -69.5 -72t-74.5 -63l-69 56q7 12 37.5 56t39.5 60q25 54 25 166v365q0 132 119 215q-119 83 -119 217v350q0 110 -25 164
q-9 17 -40 62t-37 55l69 55q32 -23 76 -63.5t68 -71.5q63 -79 63 -201v-350q0 -33 10.5 -60.5t28 -45t32.5 -28.5t31.5 -20t18.5 -10z" />
    <glyph glyph-name="asciitilde" unicode="~" horiz-adv-x="819" 
d="M528 639l-239 125l-2 -119h-109l2 207h111l239 -86l2 80h107l-2 -207h-109z" />
    <glyph glyph-name="uni00A0" unicode="&#xa0;" horiz-adv-x="276" 
 />
    <glyph glyph-name="exclamdown" unicode="&#xa1;" horiz-adv-x="354" 
d="M80 381l47 625h100l47 -625v-381h-194v381zM90 1174v260h174v-260h-174z" />
    <glyph glyph-name="cent" unicode="&#xa2;" horiz-adv-x="727" 
d="M301 -158v156q-134 9 -181.5 67.5t-47.5 192.5v645q0 134 47.5 192.5t181.5 67.5v142h166v-142q146 -6 198 -64t52 -196v-194h-195v192q0 60 -23.5 80t-72.5 20h-64q-49 0 -72.5 -20t-23.5 -80v-641q0 -59 23.5 -79.5t72.5 -20.5h64q49 0 72.5 20.5t23.5 79.5v213h195
v-215q0 -139 -52 -197.5t-198 -62.5v-156h-166z" />
    <glyph glyph-name="sterling" unicode="&#xa3;" horiz-adv-x="851" 
d="M438 1272q-63 0 -92 -21t-29 -94v-422h359v-164h-359v-407h504v-164h-798v164h90v407h-90v164h90v383q0 186 70 254t255 68h31q97 0 155.5 -11.5t99 -45.5t56 -91.5t15.5 -152.5v-199h-185v217q0 73 -28.5 94t-92.5 21h-51z" />
    <glyph glyph-name="yen" unicode="&#xa5;" horiz-adv-x="843" 
d="M82 586v98h194l-262 750h205l201 -633l203 633h206l-262 -750h189v-98h-224l-8 -25v-82h232v-98h-232v-381h-205v381h-237v98h237v82l-8 25h-229z" />
    <glyph glyph-name="section" unicode="&#xa7;" horiz-adv-x="868" 
d="M709 1294h-318q-63 0 -92 -20.5t-29 -93.5v-19q0 -19 3.5 -34.5t8.5 -26.5t15.5 -20t18.5 -14t24.5 -11t27 -8.5t31.5 -8t33 -8.5l176 -35q107 -20 154.5 -69.5t48.5 -159.5v-172q0 -86 -80 -145q41 -59 41 -175v-10q0 -52 -8.5 -93t-22.5 -69t-38 -48t-48.5 -31.5
t-61 -18t-69 -8.5t-78.5 -2l-327 6v139h327h32.5t29.5 2t29.5 6t23.5 12.5t20.5 20.5t11.5 31t5 43v20q0 25 -7.5 44t-15.5 30t-29.5 21t-32 13t-43 10.5t-42.5 10.5l-176 35q-107 20 -155 70t-48 160v168q0 94 76 151q-39 64 -39 174v8q0 80 23.5 135t70 84t101.5 40.5
t131 11.5q75 0 149 -1.5t111 -2.5l37 -2v-140zM356 881q-48 9 -76 17t-37 13t-20 15q-16 -26 -16 -49v-168q0 -15 1 -25.5t1.5 -19.5t4.5 -16t5 -12t9 -9t11 -6.5t15 -6t18 -5t23.5 -5.5t26.5 -6l176 -41q28 -6 76.5 -22t60.5 -27q16 21 16 51v166q0 37 -5 57.5t-22.5 33
t-37.5 18t-64 12.5z" />
    <glyph glyph-name="dieresis" unicode="&#xa8;" horiz-adv-x="1024" 
d="M324 1253v172h131v-172h-131zM569 1253v172h131v-172h-131z" />
    <glyph glyph-name="copyright" unicode="&#xa9;" horiz-adv-x="1073" 
d="M381 1434h311q145 0 226 -70t81 -219v-854q0 -151 -81 -221t-226 -70h-311q-143 0 -224 71t-81 220v854q0 149 80.5 219t224.5 70zM381 33h311q271 0 271 258v854q0 258 -271 258h-311q-268 0 -268 -258v-854q0 -130 69 -194t199 -64zM500 1249h69q138 0 188 -52.5
t50 -195.5v-178h-152v211q0 30 -6 48.5t-21 26t-28 9.5t-39 2h-49q-25 0 -35.5 -1.5t-27 -8.5t-23 -26t-6.5 -50v-639q0 -56 22 -74t70 -18h49q48 0 71 17t23 75v238h152v-211q0 -142 -50.5 -195t-187.5 -53h-69q-134 0 -183 57t-49 201v559q0 145 49 201.5t183 56.5z" />
    <glyph glyph-name="ordfeminine" unicode="&#xaa;" horiz-adv-x="522" 
d="M281 1339h-29q-29 0 -41 -10t-12 -47v-53h-111v53q0 84 35 120.5t127 37.5h33q103 0 137.5 -34t34.5 -124v-532q-75 -11 -179 -11h-36q-74 0 -121 32.5t-47 105.5v176q0 78 37 107.5t110 29.5h117v90q0 38 -13 48.5t-42 10.5zM453 643v-113h-385v113h385zM236 844h100
v256h-100q-46 0 -46 -60v-145q0 -51 46 -51z" />
    <glyph glyph-name="guillemotleft" unicode="&#xab;" horiz-adv-x="626" 
d="M451 227l-175 346v23l175 348h139l-150 -348v-23l150 -346h-139zM23 573v23l194 348h131l-160 -348v-23l160 -346h-131z" />
    <glyph glyph-name="registered" unicode="&#xae;" horiz-adv-x="720" 
d="M434 614h-147q-109 0 -160 43t-51 160v416q0 116 51 158.5t160 42.5h147q109 0 161 -42.5t52 -158.5v-416q0 -117 -52 -160t-161 -43zM287 637h147q101 0 145 38.5t44 141.5v416q0 104 -45 141t-144 37h-147q-97 0 -142 -37t-45 -141v-416q0 -102 44.5 -141t142.5 -39z
M313 967v-211h-86v542h152q73 0 101 -23t28 -93v-88q0 -49 -14.5 -68.5t-51.5 -24.5q37 -6 51.5 -26.5t14.5 -67.5v-151h-86v159q0 23 -10 37.5t-27 14.5h-72zM379 1225h-66v-185h72q37 0 37 41v101q0 43 -43 43z" />
    <glyph glyph-name="macron" unicode="&#xaf;" horiz-adv-x="1024" 
d="M301 1274v115h422v-115h-422z" />
    <glyph glyph-name="degree" unicode="&#xb0;" horiz-adv-x="524" 
d="M225 1440h76q59 0 95 -12t53.5 -41t22.5 -62t5 -90v-268q0 -56 -5 -89t-22.5 -62t-53.5 -41.5t-95 -12.5h-76q-59 0 -95 12.5t-53.5 41.5t-22.5 62t-5 89v268q0 57 5 90t22.5 62t53.5 41t95 12zM297 1333h-68q-40 0 -50.5 -16.5t-10.5 -59.5v-311q0 -44 10.5 -60
t50.5 -16h68q40 0 50.5 16t10.5 60v311q0 43 -10.5 59.5t-50.5 16.5z" />
    <glyph glyph-name="plusminus" unicode="&#xb1;" horiz-adv-x="686" 
d="M43 809v135h231v232h136v-232h235v-135h-235v-236h-136v236h-231zM43 328v135h602v-135h-602z" />
    <glyph glyph-name="acute" unicode="&#xb4;" horiz-adv-x="1024" 
d="M401 1237l84 188h199l-152 -188h-131z" />
    <glyph glyph-name="paragraph" unicode="&#xb6;" horiz-adv-x="890" 
d="M397 0v655h-147q-87 0 -134.5 61.5t-47.5 141.5v373q0 82 45.5 142.5t136.5 60.5h561v-1434h-119v1296h-176v-1296h-119z" />
    <glyph glyph-name="periodcentered" unicode="&#xb7;" horiz-adv-x="360" 
d="M92 547v250h176v-250h-176z" />
    <glyph glyph-name="cedilla" unicode="&#xb8;" horiz-adv-x="1024" 
d="M575 0l-51 -242h-147l88 242h110z" />
    <glyph glyph-name="ordmasculine" unicode="&#xba;" horiz-adv-x="538" 
d="M246 1440h47q102 0 138 -38.5t36 -129.5v-367q0 -89 -36.5 -127.5t-137.5 -38.5h-47q-100 0 -137 38.5t-37 127.5v367q0 90 37 129t137 39zM246 844h47q28 0 41.5 11.5t13.5 45.5v375q0 36 -13 46.5t-42 10.5h-47q-27 0 -40 -11t-13 -46v-375q0 -34 13.5 -45.5
t39.5 -11.5zM72 530v113h395v-113h-395z" />
    <glyph glyph-name="guillemotright" unicode="&#xbb;" horiz-adv-x="626" 
d="M352 573l-174 -346h-141l149 346v23l-149 348h141l174 -348v-23zM604 596v-23l-194 -346h-129l159 346v23l-159 348h129z" />
    <glyph glyph-name="questiondown" unicode="&#xbf;" horiz-adv-x="729" 
d="M373 -6h-51q-87 0 -142 12t-96.5 44.5t-59.5 92t-18 152.5v125q0 22 1.5 41t8.5 37t10 30.5t16 29t17.5 24t23.5 25t24 22t29.5 24.5t29.5 25q25 21 57.5 47.5t44 36.5t26.5 25t18.5 27.5t6.5 30t3 44.5v117h159v-191q0 -25 -5.5 -45.5t-21.5 -41t-26 -31.5t-37.5 -36
t-38.5 -36t-44 -42t-40 -39.5t-26.5 -31.5t-24.5 -37t-10.5 -37t-5.5 -49v-121q0 -39 7.5 -61.5t26.5 -32.5t36 -12t51 -2h51q63 0 92 21.5t29 94.5v187h194v-168q0 -93 -18 -152.5t-59 -92t-96.5 -44.5t-141.5 -12zM492 1434v-260h-175v260h175z" />
    <glyph glyph-name="Agrave" unicode="&#xc0;" horiz-adv-x="833" 
d="M582 1434l276 -1434h-205l-61 289h-350l-60 -289h-205l277 1434h328zM406 1272l-136 -789h293l-135 789h-22zM403 1702l82 -189h-131l-149 189h198z" />
    <glyph glyph-name="Aacute" unicode="&#xc1;" horiz-adv-x="833" 
d="M582 1434l276 -1434h-205l-61 289h-350l-60 -289h-205l277 1434h328zM406 1272l-136 -789h293l-135 789h-22zM338 1513l84 189h199l-152 -189h-131z" />
    <glyph glyph-name="Acircumflex" unicode="&#xc2;" horiz-adv-x="833" 
d="M582 1434l276 -1434h-205l-61 289h-350l-60 -289h-205l277 1434h328zM406 1272l-136 -789h293l-135 789h-22zM190 1513l134 189h188l133 -189h-131l-96 107l-96 -107h-132z" />
    <glyph glyph-name="Atilde" unicode="&#xc3;" horiz-adv-x="833" 
d="M582 1434l276 -1434h-205l-61 289h-350l-60 -289h-205l277 1434h328zM406 1272l-136 -789h293l-135 789h-22zM518 1524l-199 102l-6 -98h-88l4 172h90l199 -72l6 70h88l-4 -174h-90z" />
    <glyph glyph-name="Adieresis" unicode="&#xc4;" horiz-adv-x="833" 
d="M582 1434l276 -1434h-205l-61 289h-350l-60 -289h-205l277 1434h328zM406 1272l-136 -789h293l-135 789h-22zM229 1530v172h131v-172h-131zM475 1530v172h131v-172h-131z" />
    <glyph glyph-name="Aring" unicode="&#xc5;" horiz-adv-x="833" 
d="M582 1434l276 -1434h-205l-61 289h-350l-60 -289h-205l277 1434h328zM406 1272l-136 -789h293l-135 789h-22zM397 1761h39q79 0 104 -26.5t25 -98.5v-28q0 -72 -25 -98.5t-104 -26.5h-39q-77 0 -103 27t-26 98v28q0 71 26 98t103 27zM432 1698h-31q-42 0 -52.5 -9.5
t-10.5 -46.5v-38q0 -38 11 -48t52 -10h31q42 0 54 10t12 48v38q0 37 -11 46.5t-55 9.5z" />
    <glyph glyph-name="AE" unicode="&#xc6;" horiz-adv-x="1288" 
d="M647 0v309h-323l-99 -309h-202l473 1434h747v-174h-391v-439h360v-176h-360v-469h391v-176h-596zM616 1260l-239 -777h270v777h-31z" />
    <glyph glyph-name="Ccedilla" unicode="&#xc7;" horiz-adv-x="794" 
d="M397 1440h62q97 0 155.5 -11.5t98.5 -45.5t55.5 -91.5t15.5 -152.5v-260h-204v272q0 73 -28.5 94t-92.5 21h-62q-63 0 -92 -21t-29 -94v-868q0 -73 29 -94t92 -21h62q64 0 92.5 21t28.5 94v313h204v-301q0 -91 -14.5 -148t-51.5 -91t-91 -47t-142 -15l-49 -236h-147
l86 236q-89 2 -144 15t-92 47t-52 91t-15 148v844q0 95 15.5 153t56 91.5t99 45t154.5 11.5z" />
    <glyph glyph-name="Egrave" unicode="&#xc8;" horiz-adv-x="720" 
d="M285 647v-473h391v-174h-596v1434h596v-174h-391v-439h360v-174h-360zM406 1702l81 -189h-131l-149 189h199z" />
    <glyph glyph-name="Eacute" unicode="&#xc9;" horiz-adv-x="720" 
d="M276 1513l84 189h199l-151 -189h-132zM285 647v-473h391v-174h-596v1434h596v-174h-391v-439h360v-174h-360z" />
    <glyph glyph-name="Ecircumflex" unicode="&#xca;" horiz-adv-x="720" 
d="M150 1513l133 189h188l133 -189h-131l-96 107l-96 -107h-131zM285 647v-473h391v-174h-596v1434h596v-174h-391v-439h360v-174h-360z" />
    <glyph glyph-name="Edieresis" unicode="&#xcb;" horiz-adv-x="720" 
d="M199 1530v172h131v-172h-131zM444 1530v172h131v-172h-131zM285 647v-473h391v-174h-596v1434h596v-174h-391v-439h360v-174h-360z" />
    <glyph glyph-name="Igrave" unicode="&#xcc;" horiz-adv-x="364" 
d="M80 0v1434h205v-1434h-205zM174 1702l82 -189h-131l-150 189h199z" />
    <glyph glyph-name="Iacute" unicode="&#xcd;" horiz-adv-x="364" 
d="M80 0v1434h205v-1434h-205zM111 1513l84 189h198l-151 -189h-131z" />
    <glyph glyph-name="Icircumflex" unicode="&#xce;" horiz-adv-x="364" 
d="M80 0v1434h205v-1434h-205zM-45 1513l133 189h188l134 -189h-131l-97 107l-96 -107h-131z" />
    <glyph glyph-name="Idieresis" unicode="&#xcf;" horiz-adv-x="364" 
d="M80 0v1434h205v-1434h-205zM-6 1530v172h131v-172h-131zM240 1530v172h131v-172h-131z" />
    <glyph glyph-name="Eth" unicode="&#xd0;" horiz-adv-x="868" 
d="M4 659v144h100v631h381q94 0 151.5 -11.5t96 -44.5t53.5 -88t15 -145v-854q0 -90 -15 -145.5t-53.5 -88.5t-96 -45t-151.5 -12h-381v659h-100zM485 1260h-174l-2 -457h121v-144h-121v-485h176q57 0 84 20.5t27 86.5v880q0 64 -26 81.5t-85 17.5z" />
    <glyph glyph-name="Ntilde" unicode="&#xd1;" horiz-adv-x="882" 
d="M80 1434h217l305 -920h2v920h201v-1434h-223l-287 891h-10v-891h-205v1434zM539 1524l-199 102l-6 -98h-88l4 172h90l199 -72l6 70h88l-4 -174h-90z" />
    <glyph glyph-name="Ograve" unicode="&#xd2;" horiz-adv-x="862" 
d="M397 1440h68q96 0 154.5 -11.5t99 -45t56.5 -91.5t16 -153v-844q0 -94 -16 -152t-56.5 -91.5t-99 -45.5t-154.5 -12h-68q-96 0 -154.5 12t-98.5 46t-56 92t-16 151v844q0 95 15.5 153t56 91.5t99 45t154.5 11.5zM401 168h60q64 0 94.5 21t30.5 94v868q0 73 -30.5 94
t-94.5 21h-60q-64 0 -94.5 -21t-30.5 -94v-868q0 -73 30.5 -94t94.5 -21zM430 1702l82 -189h-131l-150 189h199z" />
    <glyph glyph-name="Oacute" unicode="&#xd3;" horiz-adv-x="862" 
d="M342 1513l84 189h199l-152 -189h-131zM397 1440h68q96 0 154.5 -11.5t99 -45t56.5 -91.5t16 -153v-844q0 -94 -16 -152t-56.5 -91.5t-99 -45.5t-154.5 -12h-68q-96 0 -154.5 12t-98.5 46t-56 92t-16 151v844q0 95 15.5 153t56 91.5t99 45t154.5 11.5zM401 168h60
q64 0 94.5 21t30.5 94v868q0 73 -30.5 94t-94.5 21h-60q-64 0 -94.5 -21t-30.5 -94v-868q0 -73 30.5 -94t94.5 -21z" />
    <glyph glyph-name="Ocircumflex" unicode="&#xd4;" horiz-adv-x="862" 
d="M205 1513l133 189h188l133 -189h-131l-96 107l-96 -107h-131zM397 1440h68q96 0 154.5 -11.5t99 -45t56.5 -91.5t16 -153v-844q0 -94 -16 -152t-56.5 -91.5t-99 -45.5t-154.5 -12h-68q-96 0 -154.5 12t-98.5 46t-56 92t-16 151v844q0 95 15.5 153t56 91.5t99 45
t154.5 11.5zM401 168h60q64 0 94.5 21t30.5 94v868q0 73 -30.5 94t-94.5 21h-60q-64 0 -94.5 -21t-30.5 -94v-868q0 -73 30.5 -94t94.5 -21z" />
    <glyph glyph-name="Otilde" unicode="&#xd5;" horiz-adv-x="862" 
d="M397 1440h68q96 0 154.5 -11.5t99 -45t56.5 -91.5t16 -153v-844q0 -94 -16 -152t-56.5 -91.5t-99 -45.5t-154.5 -12h-68q-96 0 -154.5 12t-98.5 46t-56 92t-16 151v844q0 95 15.5 153t56 91.5t99 45t154.5 11.5zM401 168h60q64 0 94.5 21t30.5 94v868q0 73 -30.5 94
t-94.5 21h-60q-64 0 -94.5 -21t-30.5 -94v-868q0 -73 30.5 -94t94.5 -21zM530 1524l-198 102l-6 -98h-88l4 172h90l198 -72l7 70h88l-4 -174h-91z" />
    <glyph glyph-name="Odieresis" unicode="&#xd6;" horiz-adv-x="862" 
d="M244 1530v172h131v-172h-131zM489 1530v172h132v-172h-132zM397 1440h68q96 0 154.5 -11.5t99 -45t56.5 -91.5t16 -153v-844q0 -94 -16 -152t-56.5 -91.5t-99 -45.5t-154.5 -12h-68q-96 0 -154.5 12t-98.5 46t-56 92t-16 151v844q0 95 15.5 153t56 91.5t99 45t154.5 11.5
zM401 168h60q64 0 94.5 21t30.5 94v868q0 73 -30.5 94t-94.5 21h-60q-64 0 -94.5 -21t-30.5 -94v-868q0 -73 30.5 -94t94.5 -21z" />
    <glyph glyph-name="multiply" unicode="&#xd7;" horiz-adv-x="665" 
d="M510 1006l96 -95l-178 -178l172 -172l-94 -96l-174 172l-176 -174l-95 96l177 174l-172 174l96 94l170 -172z" />
    <glyph glyph-name="Oslash" unicode="&#xd8;" horiz-adv-x="862" 
d="M397 1440h68q110 0 174 -17l35 93h110l-55 -144q62 -65 62 -233v-844q0 -94 -16 -152t-56.5 -91.5t-99 -45.5t-154.5 -12h-68q-109 0 -180 18l-33 -86h-108l55 137q-59 64 -59 232v844q0 95 15.5 153t56 91.5t99 45t154.5 11.5zM276 1151v-729l289 811q-26 33 -104 33
h-60q-64 0 -94.5 -21t-30.5 -94zM401 168h60q64 0 94.5 21t30.5 94v700l-281 -793q25 -22 96 -22z" />
    <glyph glyph-name="Ugrave" unicode="&#xd9;" horiz-adv-x="862" 
d="M72 1434h204v-1145q0 -76 21.5 -98.5t79.5 -22.5h108q58 0 79.5 22.5t21.5 98.5v1145h205v-1139q0 -94 -16 -152t-56.5 -91.5t-99 -45.5t-154.5 -12h-68q-96 0 -154.5 12t-99 45.5t-56 91.5t-15.5 152v1139zM451 1702l81 -189h-131l-149 189h199z" />
    <glyph glyph-name="Uacute" unicode="&#xda;" horiz-adv-x="862" 
d="M348 1513l84 189h199l-152 -189h-131zM72 1434h204v-1145q0 -76 21.5 -98.5t79.5 -22.5h108q58 0 79.5 22.5t21.5 98.5v1145h205v-1139q0 -94 -16 -152t-56.5 -91.5t-99 -45.5t-154.5 -12h-68q-96 0 -154.5 12t-99 45.5t-56 91.5t-15.5 152v1139z" />
    <glyph glyph-name="Ucircumflex" unicode="&#xdb;" horiz-adv-x="862" 
d="M205 1513l133 189h188l133 -189h-131l-96 107l-96 -107h-131zM72 1434h204v-1145q0 -76 21.5 -98.5t79.5 -22.5h108q58 0 79.5 22.5t21.5 98.5v1145h205v-1139q0 -94 -16 -152t-56.5 -91.5t-99 -45.5t-154.5 -12h-68q-96 0 -154.5 12t-99 45.5t-56 91.5t-15.5 152v1139z
" />
    <glyph glyph-name="Udieresis" unicode="&#xdc;" horiz-adv-x="862" 
d="M244 1530v172h131v-172h-131zM489 1530v172h132v-172h-132zM72 1434h204v-1145q0 -76 21.5 -98.5t79.5 -22.5h108q58 0 79.5 22.5t21.5 98.5v1145h205v-1139q0 -94 -16 -152t-56.5 -91.5t-99 -45.5t-154.5 -12h-68q-96 0 -154.5 12t-99 45.5t-56 91.5t-15.5 152v1139z
" />
    <glyph glyph-name="Yacute" unicode="&#xdd;" horiz-adv-x="843" 
d="M319 0v561l-305 873h205l201 -633l203 633h206l-305 -873v-561h-205zM342 1513l84 189h199l-152 -189h-131z" />
    <glyph glyph-name="Thorn" unicode="&#xde;" horiz-adv-x="790" 
d="M76 0v1434h205v-242h172q91 0 146.5 -11.5t92.5 -43.5t51.5 -85t14.5 -139v-378q0 -87 -14 -140.5t-51.5 -85t-93 -42.5t-146.5 -11h-172v-256h-205zM453 1020h-172v-592h172q50 0 75 21.5t25 82.5v383q0 61 -25 83t-75 22z" />
    <glyph glyph-name="germandbls" unicode="&#xdf;" horiz-adv-x="856" 
d="M414 1270q-58 0 -84.5 -19t-26.5 -84v-1167h-194v1016l-99 20v121h105v55q0 106 71 164t176 58h93q94 0 151 -11.5t96 -44t53.5 -87.5t14.5 -146v-150q0 -119 -34.5 -169t-123.5 -62q100 -8 141.5 -57.5t41.5 -176.5v-239q0 -67 -6 -114t-23 -80t-38 -51.5t-61 -29
t-81 -13.5t-107 -3h-104v154h114q55 0 83 23.5t28 90.5v293q0 65 -30.5 89t-84.5 24h-110v174h90q55 0 82.5 24t27.5 91v204q0 65 -26.5 84t-83.5 19h-51z" />
    <glyph glyph-name="agrave" unicode="&#xe0;" horiz-adv-x="774" 
d="M379 1163h37q116 0 177.5 -27t84 -81t22.5 -154v-891q-218 -16 -335 -16h-62q-118 0 -180 54t-62 177v279q0 122 62 175.5t180 53.5h203v170q0 34 -6 54.5t-21 29t-28 10.5t-39 2h-37q-27 0 -39 -1.5t-27.5 -9.5t-21.5 -27t-6 -52v-96h-181v88q0 76 11 122t41.5 79.5
t84.5 47t142 13.5zM256 502v-246q0 -90 74 -90h176v420h-176q-74 0 -74 -84zM406 1425l81 -188h-131l-149 188h199z" />
    <glyph glyph-name="aacute" unicode="&#xe1;" horiz-adv-x="774" 
d="M379 1163h37q116 0 177.5 -27t84 -81t22.5 -154v-891q-218 -16 -335 -16h-62q-118 0 -180 54t-62 177v279q0 122 62 175.5t180 53.5h203v170q0 34 -6 54.5t-21 29t-28 10.5t-39 2h-37q-27 0 -39 -1.5t-27.5 -9.5t-21.5 -27t-6 -52v-96h-181v88q0 76 11 122t41.5 79.5
t84.5 47t142 13.5zM256 502v-246q0 -90 74 -90h176v420h-176q-74 0 -74 -84zM309 1237l84 188h199l-152 -188h-131z" />
    <glyph glyph-name="acircumflex" unicode="&#xe2;" horiz-adv-x="774" 
d="M379 1163h37q116 0 177.5 -27t84 -81t22.5 -154v-891q-218 -16 -335 -16h-62q-118 0 -180 54t-62 177v279q0 122 62 175.5t180 53.5h203v170q0 34 -6 54.5t-21 29t-28 10.5t-39 2h-37q-27 0 -39 -1.5t-27.5 -9.5t-21.5 -27t-6 -52v-96h-181v88q0 76 11 122t41.5 79.5
t84.5 47t142 13.5zM256 502v-246q0 -90 74 -90h176v420h-176q-74 0 -74 -84zM166 1237l133 188h188l134 -188h-132l-96 106l-96 -106h-131z" />
    <glyph glyph-name="atilde" unicode="&#xe3;" horiz-adv-x="774" 
d="M379 1163h37q116 0 177.5 -27t84 -81t22.5 -154v-891q-218 -16 -335 -16h-62q-118 0 -180 54t-62 177v279q0 122 62 175.5t180 53.5h203v170q0 34 -6 54.5t-21 29t-28 10.5t-39 2h-37q-27 0 -39 -1.5t-27.5 -9.5t-21.5 -27t-6 -52v-96h-181v88q0 76 11 122t41.5 79.5
t84.5 47t142 13.5zM256 502v-246q0 -90 74 -90h176v420h-176q-74 0 -74 -84zM492 1247l-199 103l-6 -99h-88l4 172h90l199 -71l6 69h88l-4 -174h-90z" />
    <glyph glyph-name="adieresis" unicode="&#xe4;" horiz-adv-x="774" 
d="M379 1163h37q116 0 177.5 -27t84 -81t22.5 -154v-891q-218 -16 -335 -16h-62q-118 0 -180 54t-62 177v279q0 122 62 175.5t180 53.5h203v170q0 34 -6 54.5t-21 29t-28 10.5t-39 2h-37q-27 0 -39 -1.5t-27.5 -9.5t-21.5 -27t-6 -52v-96h-181v88q0 76 11 122t41.5 79.5
t84.5 47t142 13.5zM256 502v-246q0 -90 74 -90h176v420h-176q-74 0 -74 -84zM201 1253v172h131v-172h-131zM446 1253v172h132v-172h-132z" />
    <glyph glyph-name="aring" unicode="&#xe5;" horiz-adv-x="774" 
d="M379 1163h37q116 0 177.5 -27t84 -81t22.5 -154v-891q-218 -16 -335 -16h-62q-118 0 -180 54t-62 177v279q0 122 62 175.5t180 53.5h203v170q0 34 -6 54.5t-21 29t-28 10.5t-39 2h-37q-27 0 -39 -1.5t-27.5 -9.5t-21.5 -27t-6 -52v-96h-181v88q0 76 11 122t41.5 79.5
t84.5 47t142 13.5zM256 502v-246q0 -90 74 -90h176v420h-176q-74 0 -74 -84zM362 1501h39q79 0 104 -26.5t25 -98.5v-28q0 -72 -25 -98.5t-104 -26.5h-39q-77 0 -103 27t-26 98v28q0 71 26 98t103 27zM397 1438h-30q-43 0 -53.5 -9.5t-10.5 -46.5v-39q0 -38 11 -47.5
t53 -9.5h30q42 0 54 10t12 47v39q0 37 -11 46.5t-55 9.5z" />
    <glyph glyph-name="ae" unicode="&#xe6;" horiz-adv-x="1228" 
d="M807 1163h61q116 0 179.5 -27t87.5 -81.5t24 -153.5v-422l-448 -4v-223q0 -60 23.5 -80t72.5 -20h82q49 0 72.5 20t23.5 80v113h174v-109q0 -97 -23.5 -151.5t-85.5 -82t-176 -28.5h-67q-119 0 -176.5 15.5t-81.5 70.5q-5 -4 -24 -19.5t-32 -24t-34 -20t-44.5 -17
t-49.5 -5.5h-62q-118 0 -180 54t-62 177v258q0 123 62 176.5t180 53.5h213v194q-1 57 -23.5 75.5t-66.5 18.5h-80q-39 -3 -57.5 -23.5t-18.5 -76.5v-88h-170v88q0 74 10.5 120t40 79.5t82 47.5t136.5 15h57q71 0 116.5 -14t71.5 -53q27 39 74 53t119 14zM516 227v332h-178
q-38 0 -60 -29.5t-22 -72.5v-201q0 -43 21 -66.5t61 -23.5h49q47 0 129 61zM807 1008q-47 0 -71.5 -18.5t-24.5 -71.5v-285h254v274q0 59 -24 80t-73 21h-61z" />
    <glyph glyph-name="ccedilla" unicode="&#xe7;" horiz-adv-x="727" 
d="M362 1163h64q118 0 181 -27t86.5 -81t23.5 -154v-194h-195v192q0 60 -23.5 80t-72.5 20h-64q-49 0 -72.5 -20t-23.5 -80v-641q0 -59 23.5 -79.5t72.5 -20.5h64q49 0 72.5 20.5t23.5 79.5v213h195v-215q0 -143 -56.5 -201t-216.5 -61l-49 -236h-147l86 236
q-79 2 -130 17.5t-80 49t-40.5 79t-11.5 116.5v645q0 100 23.5 154t86 81t180.5 27z" />
    <glyph glyph-name="egrave" unicode="&#xe8;" horiz-adv-x="784" 
d="M362 1163h62q116 0 179.5 -27t87.5 -81.5t24 -153.5v-401l-449 -4v-238q0 -60 23.5 -80t72.5 -20h72q49 0 72.5 20t23.5 80v107h185v-109q0 -74 -12 -121t-45 -80t-89 -47t-145 -14h-62q-117 0 -180.5 27.5t-86.5 81.5t-23 153v645q0 100 23.5 154t86 81t180.5 27z
M362 999q-49 0 -72.5 -20.5t-23.5 -79.5v-237h254v237q0 59 -23.5 79.5t-72.5 20.5h-62zM391 1425l82 -188h-131l-149 188h198z" />
    <glyph glyph-name="eacute" unicode="&#xe9;" horiz-adv-x="784" 
d="M324 1237l84 188h198l-151 -188h-131zM362 1163h62q116 0 179.5 -27t87.5 -81.5t24 -153.5v-401l-449 -4v-238q0 -60 23.5 -80t72.5 -20h72q49 0 72.5 20t23.5 80v107h185v-109q0 -74 -12 -121t-45 -80t-89 -47t-145 -14h-62q-117 0 -180.5 27.5t-86.5 81.5t-23 153v645
q0 100 23.5 154t86 81t180.5 27zM362 999q-49 0 -72.5 -20.5t-23.5 -79.5v-237h254v237q0 59 -23.5 79.5t-72.5 20.5h-62z" />
    <glyph glyph-name="ecircumflex" unicode="&#xea;" horiz-adv-x="784" 
d="M166 1237l133 188h188l134 -188h-132l-96 106l-96 -106h-131zM362 1163h62q116 0 179.5 -27t87.5 -81.5t24 -153.5v-401l-449 -4v-238q0 -60 23.5 -80t72.5 -20h72q49 0 72.5 20t23.5 80v107h185v-109q0 -74 -12 -121t-45 -80t-89 -47t-145 -14h-62q-117 0 -180.5 27.5
t-86.5 81.5t-23 153v645q0 100 23.5 154t86 81t180.5 27zM362 999q-49 0 -72.5 -20.5t-23.5 -79.5v-237h254v237q0 59 -23.5 79.5t-72.5 20.5h-62z" />
    <glyph glyph-name="edieresis" unicode="&#xeb;" horiz-adv-x="784" 
d="M205 1253v172h131v-172h-131zM451 1253v172h131v-172h-131zM362 1163h62q116 0 179.5 -27t87.5 -81.5t24 -153.5v-401l-449 -4v-238q0 -60 23.5 -80t72.5 -20h72q49 0 72.5 20t23.5 80v107h185v-109q0 -74 -12 -121t-45 -80t-89 -47t-145 -14h-62q-117 0 -180.5 27.5
t-86.5 81.5t-23 153v645q0 100 23.5 154t86 81t180.5 27zM362 999q-49 0 -72.5 -20.5t-23.5 -79.5v-237h254v237q0 59 -23.5 79.5t-72.5 20.5h-62z" />
    <glyph glyph-name="igrave" unicode="&#xec;" horiz-adv-x="344" 
d="M76 0v1157h194v-1157h-194zM160 1425l82 -188h-131l-150 188h199z" />
    <glyph glyph-name="iacute" unicode="&#xed;" horiz-adv-x="344" 
d="M102 1237l84 188h199l-152 -188h-131zM76 0v1157h194v-1157h-194z" />
    <glyph glyph-name="icircumflex" unicode="&#xee;" horiz-adv-x="344" 
d="M-53 1237l133 188h188l133 -188h-131l-96 106l-96 -106h-131zM76 0v1157h194v-1157h-194z" />
    <glyph glyph-name="idieresis" unicode="&#xef;" horiz-adv-x="344" 
d="M-14 1253v172h131v-172h-131zM231 1253v172h131v-172h-131zM76 0v1157h194v-1157h-194z" />
    <glyph glyph-name="eth" unicode="&#xf0;" horiz-adv-x="792" 
d="M432 -6h-70q-89 0 -145 13t-88.5 45t-44.5 78t-12 120v684q0 123 61.5 176t179.5 53h66q20 0 149 -6v10q0 98 -16 129l-135 -51l-35 78l131 49q-29 37 -104 109l129 45q10 -7 30 -22l32 -24t28 -22.5t28 -25.5l121 45l35 -78l-102 -39q53 -75 53 -182v-928
q0 -145 -60 -200.5t-231 -55.5zM362 156h70q49 0 72.5 20.5t23.5 79.5v737h-180q-39 0 -60.5 -24t-21.5 -66v-647q0 -59 23.5 -79.5t72.5 -20.5z" />
    <glyph glyph-name="ntilde" unicode="&#xf1;" 
d="M528 0v903q0 42 -21.5 66t-60.5 24h-178v-993h-194v1157q194 6 344 6h63q118 0 180 -53.5t62 -175.5v-934h-195zM494 1247l-199 103l-6 -99h-88l4 172h90l199 -71l6 69h88l-4 -174h-90z" />
    <glyph glyph-name="ograve" unicode="&#xf2;" horiz-adv-x="792" 
d="M362 1163h70q116 0 179.5 -27t87.5 -81.5t24 -153.5v-645q0 -146 -60.5 -204t-230.5 -58h-70q-117 0 -180.5 27.5t-86.5 81.5t-23 153v645q0 100 23.5 154t86 81t180.5 27zM362 158h70q49 0 72.5 20.5t23.5 79.5l2 643q0 60 -23.5 80t-72.5 20h-69q-50 0 -73.5 -20
t-23.5 -80l-2 -643q0 -59 23.5 -79.5t72.5 -20.5zM416 1425l82 -188h-131l-150 188h199z" />
    <glyph glyph-name="oacute" unicode="&#xf3;" horiz-adv-x="792" 
d="M319 1237l84 188h199l-151 -188h-132zM362 1163h70q116 0 179.5 -27t87.5 -81.5t24 -153.5v-645q0 -146 -60.5 -204t-230.5 -58h-70q-117 0 -180.5 27.5t-86.5 81.5t-23 153v645q0 100 23.5 154t86 81t180.5 27zM362 158h70q49 0 72.5 20.5t23.5 79.5l2 643
q0 60 -23.5 80t-72.5 20h-69q-50 0 -73.5 -20t-23.5 -80l-2 -643q0 -59 23.5 -79.5t72.5 -20.5z" />
    <glyph glyph-name="ocircumflex" unicode="&#xf4;" horiz-adv-x="792" 
d="M170 1237l133 188h189l133 -188h-131l-97 106l-96 -106h-131zM362 1163h70q116 0 179.5 -27t87.5 -81.5t24 -153.5v-645q0 -146 -60.5 -204t-230.5 -58h-70q-117 0 -180.5 27.5t-86.5 81.5t-23 153v645q0 100 23.5 154t86 81t180.5 27zM362 158h70q49 0 72.5 20.5
t23.5 79.5l2 643q0 60 -23.5 80t-72.5 20h-69q-50 0 -73.5 -20t-23.5 -80l-2 -643q0 -59 23.5 -79.5t72.5 -20.5z" />
    <glyph glyph-name="otilde" unicode="&#xf5;" horiz-adv-x="792" 
d="M362 1163h70q116 0 179.5 -27t87.5 -81.5t24 -153.5v-645q0 -146 -60.5 -204t-230.5 -58h-70q-117 0 -180.5 27.5t-86.5 81.5t-23 153v645q0 100 23.5 154t86 81t180.5 27zM362 158h70q49 0 72.5 20.5t23.5 79.5l2 643q0 60 -23.5 80t-72.5 20h-69q-50 0 -73.5 -20
t-23.5 -80l-2 -643q0 -59 23.5 -79.5t72.5 -20.5zM498 1247l-199 103l-6 -99h-88l4 172h90l199 -71l6 69h88l-4 -174h-90z" />
    <glyph glyph-name="odieresis" unicode="&#xf6;" horiz-adv-x="792" 
d="M209 1253v172h131v-172h-131zM455 1253v172h131v-172h-131zM362 1163h70q116 0 179.5 -27t87.5 -81.5t24 -153.5v-645q0 -146 -60.5 -204t-230.5 -58h-70q-117 0 -180.5 27.5t-86.5 81.5t-23 153v645q0 100 23.5 154t86 81t180.5 27zM362 158h70q49 0 72.5 20.5
t23.5 79.5l2 643q0 60 -23.5 80t-72.5 20h-69q-50 0 -73.5 -20t-23.5 -80l-2 -643q0 -59 23.5 -79.5t72.5 -20.5z" />
    <glyph glyph-name="divide" unicode="&#xf7;" horiz-adv-x="677" 
d="M43 668v135h602v-135h-602zM281 905v162h131v-162h-131zM281 401v162h131v-162h-131z" />
    <glyph glyph-name="oslash" unicode="&#xf8;" horiz-adv-x="792" 
d="M362 1163h70q67 0 125 -10l37 92h102l-55 -123q45 -30 63.5 -82.5t18.5 -138.5v-645q0 -146 -60.5 -204t-230.5 -58h-70q-91 0 -153 16l-37 -76h-100l55 121q-55 55 -55 201v645q0 100 23.5 154t86 81t180.5 27zM362 158h70q49 0 72.5 20.5t23.5 79.5l2 584l-245 -660
q19 -24 77 -24zM268 901l-2 -508l221 600q-19 8 -53 8h-69q-50 0 -73.5 -20t-23.5 -80z" />
    <glyph glyph-name="ugrave" unicode="&#xf9;" horiz-adv-x="792" 
d="M264 1157v-901q0 -43 21 -66.5t61 -23.5h178v991h195v-1157q-266 -6 -342 -6h-66q-118 0 -179.5 54t-61.5 177v932h194zM416 1425l82 -188h-131l-150 188h199z" />
    <glyph glyph-name="uacute" unicode="&#xfa;" horiz-adv-x="792" 
d="M264 1157v-901q0 -43 21 -66.5t61 -23.5h178v991h195v-1157q-266 -6 -342 -6h-66q-118 0 -179.5 54t-61.5 177v932h194zM307 1237l84 188h199l-152 -188h-131z" />
    <glyph glyph-name="ucircumflex" unicode="&#xfb;" horiz-adv-x="792" 
d="M264 1157v-901q0 -43 21 -66.5t61 -23.5h178v991h195v-1157q-266 -6 -342 -6h-66q-118 0 -179.5 54t-61.5 177v932h194zM168 1237l133 188h188l134 -188h-131l-97 106l-96 -106h-131z" />
    <glyph glyph-name="udieresis" unicode="&#xfc;" horiz-adv-x="792" 
d="M264 1157v-901q0 -43 21 -66.5t61 -23.5h178v991h195v-1157q-266 -6 -342 -6h-66q-118 0 -179.5 54t-61.5 177v932h194zM209 1253v172h131v-172h-131zM455 1253v172h131v-172h-131z" />
    <glyph glyph-name="yacute" unicode="&#xfd;" horiz-adv-x="763" 
d="M213 10l-219 1147h211l162 -964h16l172 964h195l-258 -1415h-187l49 268h-141zM303 1237l84 188h199l-152 -188h-131z" />
    <glyph glyph-name="thorn" unicode="&#xfe;" 
d="M74 -246v1682h194v-279h236q113 0 167 -58.5t54 -185.5v-647q0 -130 -55.5 -201t-165.5 -71h-64l-172 6v-246h-194zM449 993h-181v-827h181q39 0 60 23.5t21 66.5v647q0 42 -21 66t-60 24z" />
    <glyph glyph-name="ydieresis" unicode="&#xff;" horiz-adv-x="763" 
d="M213 10l-219 1147h211l162 -964h16l172 964h195l-258 -1415h-187l49 268h-141zM186 1253v172h131v-172h-131zM432 1253v172h131v-172h-131z" />
    <glyph glyph-name="Amacron" unicode="&#x100;" horiz-adv-x="833" 
d="M582 1434l276 -1434h-205l-61 289h-350l-60 -289h-205l277 1434h328zM406 1272l-136 -789h293l-135 789h-22zM207 1550v115h422v-115h-422z" />
    <glyph glyph-name="amacron" unicode="&#x101;" horiz-adv-x="774" 
d="M379 1163h37q116 0 177.5 -27t84 -81t22.5 -154v-891q-218 -16 -335 -16h-62q-118 0 -180 54t-62 177v279q0 122 62 175.5t180 53.5h203v170q0 34 -6 54.5t-21 29t-28 10.5t-39 2h-37q-27 0 -39 -1.5t-27.5 -9.5t-21.5 -27t-6 -52v-96h-181v88q0 76 11 122t41.5 79.5
t84.5 47t142 13.5zM256 502v-246q0 -90 74 -90h176v420h-176q-74 0 -74 -84zM188 1274v115h422v-115h-422z" />
    <glyph glyph-name="Abreve" unicode="&#x102;" horiz-adv-x="833" 
d="M582 1434l276 -1434h-205l-61 289h-350l-60 -289h-205l277 1434h328zM406 1272l-136 -789h293l-135 789h-22zM457 1509h-78q-104 0 -141 37.5t-37 139.5v22h118v-35q0 -38 17 -51.5t47 -13.5h70q30 0 46.5 13.5t16.5 51.5v35h117v-22q0 -102 -37 -139.5t-139 -37.5z" />
    <glyph glyph-name="abreve" unicode="&#x103;" horiz-adv-x="774" 
d="M379 1163h37q116 0 177.5 -27t84 -81t22.5 -154v-891q-218 -16 -335 -16h-62q-118 0 -180 54t-62 177v279q0 122 62 175.5t180 53.5h203v170q0 34 -6 54.5t-21 29t-28 10.5t-39 2h-37q-27 0 -39 -1.5t-27.5 -9.5t-21.5 -27t-6 -52v-96h-181v88q0 76 11 122t41.5 79.5
t84.5 47t142 13.5zM256 502v-246q0 -90 74 -90h176v420h-176q-74 0 -74 -84zM438 1233h-78q-104 0 -141 37t-37 139v23h119v-35q0 -38 17 -52t47 -14h69q30 0 47 14t17 52v35h116v-23q0 -102 -37 -139t-139 -37z" />
    <glyph glyph-name="Aogonek" unicode="&#x104;" horiz-adv-x="833" 
d="M846 -104v-31q0 -69 -19.5 -99t-85.5 -30h-102q-70 0 -93.5 23t-23.5 85v25q0 32 9.5 51.5t21.5 28t45 28.5q11 4 53 27l-59 285h-350l-60 -289h-205l277 1434h328l276 -1434h-86l-88 -53q-7 -5 -17 -11.5t-14 -9.5l-10 -7.5t-8 -7t-4.5 -7.5t-3 -9.5t-0.5 -11.5v-14
q0 -19 1 -26t7.5 -12t21.5 -5h60q22 0 25 5.5t3 31.5v33h101zM406 1272l-136 -789h293l-135 789h-22z" />
    <glyph glyph-name="aogonek" unicode="&#x105;" horiz-adv-x="774" 
d="M700 -84v-31q0 -69 -19 -99t-85 -30h-102q-70 0 -93.5 23.5t-23.5 85.5v24q0 44 14 63.5t55 43.5q-16 0 -42.5 -1t-38.5 -1h-62q-118 0 -180 54t-62 177v279q0 122 62 175.5t180 53.5h203v170q0 34 -6 54.5t-21 29t-28 10.5t-39 2h-37q-27 0 -39 -1.5t-27.5 -9.5
t-21.5 -27t-6 -52v-96h-181v88q0 76 11 122t41.5 79.5t84.5 47t142 13.5h37q116 0 177.5 -27t84 -81t22.5 -154v-891q-47 -4 -102 -8l-59 -35q-9 -6 -23 -15t-17.5 -12t-9.5 -9t-7 -12t-1 -15v-15q0 -26 4.5 -34.5t26.5 -8.5h59q12 0 17.5 0.5t8.5 7t3 10v19.5v33h100z
M256 502v-246q0 -90 74 -90h176v420h-176q-74 0 -74 -84z" />
    <glyph glyph-name="Cacute" unicode="&#x106;" horiz-adv-x="794" 
d="M371 1513l84 189h198l-151 -189h-131zM397 1440h62q97 0 155.5 -11.5t98.5 -45.5t55.5 -91.5t15.5 -152.5v-260h-204v272q0 73 -28.5 94t-92.5 21h-62q-63 0 -92 -21t-29 -94v-868q0 -73 29 -94t92 -21h62q64 0 92.5 21t28.5 94v313h204v-301q0 -94 -15.5 -151.5
t-55.5 -91.5t-98.5 -46t-155.5 -12h-62q-96 0 -154.5 12t-99 45.5t-56 91.5t-15.5 152v844q0 95 15.5 153t56 91.5t99 45t154.5 11.5z" />
    <glyph glyph-name="cacute" unicode="&#x107;" horiz-adv-x="727" 
d="M340 1237l84 188h199l-152 -188h-131zM362 1163h64q118 0 181 -27t86.5 -81t23.5 -154v-194h-195v192q0 60 -23.5 80t-72.5 20h-64q-49 0 -72.5 -20t-23.5 -80v-641q0 -59 23.5 -79.5t72.5 -20.5h64q49 0 72.5 20.5t23.5 79.5v213h195v-215q0 -74 -12 -121t-45 -80
t-89 -47t-145 -14h-64q-117 0 -180.5 27.5t-86.5 81.5t-23 153v645q0 100 23.5 154t86 81t180.5 27z" />
    <glyph glyph-name="Cdotaccent" unicode="&#x10a;" horiz-adv-x="794" 
d="M397 1440h62q97 0 155.5 -11.5t98.5 -45.5t55.5 -91.5t15.5 -152.5v-260h-204v272q0 73 -28.5 94t-92.5 21h-62q-63 0 -92 -21t-29 -94v-868q0 -73 29 -94t92 -21h62q64 0 92.5 21t28.5 94v313h204v-301q0 -94 -15.5 -151.5t-55.5 -91.5t-98.5 -46t-155.5 -12h-62
q-96 0 -154.5 12t-99 45.5t-56 91.5t-15.5 152v844q0 95 15.5 153t56 91.5t99 45t154.5 11.5zM367 1542v162h127v-162h-127z" />
    <glyph glyph-name="cdotaccent" unicode="&#x10b;" horiz-adv-x="727" 
d="M362 1163h64q118 0 181 -27t86.5 -81t23.5 -154v-194h-195v192q0 60 -23.5 80t-72.5 20h-64q-49 0 -72.5 -20t-23.5 -80v-641q0 -59 23.5 -79.5t72.5 -20.5h64q49 0 72.5 20.5t23.5 79.5v213h195v-215q0 -74 -12 -121t-45 -80t-89 -47t-145 -14h-64q-117 0 -180.5 27.5
t-86.5 81.5t-23 153v645q0 100 23.5 154t86 81t180.5 27zM332 1266v161h127v-161h-127z" />
    <glyph glyph-name="Ccaron" unicode="&#x10c;" horiz-adv-x="794" 
d="M336 1513l-133 189h131l96 -107l96 107h131l-133 -189h-188zM397 1440h62q97 0 155.5 -11.5t98.5 -45.5t55.5 -91.5t15.5 -152.5v-260h-204v272q0 73 -28.5 94t-92.5 21h-62q-63 0 -92 -21t-29 -94v-868q0 -73 29 -94t92 -21h62q64 0 92.5 21t28.5 94v313h204v-301
q0 -94 -15.5 -151.5t-55.5 -91.5t-98.5 -46t-155.5 -12h-62q-96 0 -154.5 12t-99 45.5t-56 91.5t-15.5 152v844q0 95 15.5 153t56 91.5t99 45t154.5 11.5z" />
    <glyph glyph-name="ccaron" unicode="&#x10d;" horiz-adv-x="727" 
d="M301 1237l-133 188h131l96 -106l97 106h131l-134 -188h-188zM362 1163h64q118 0 181 -27t86.5 -81t23.5 -154v-194h-195v192q0 60 -23.5 80t-72.5 20h-64q-49 0 -72.5 -20t-23.5 -80v-641q0 -59 23.5 -79.5t72.5 -20.5h64q49 0 72.5 20.5t23.5 79.5v213h195v-215
q0 -74 -12 -121t-45 -80t-89 -47t-145 -14h-64q-117 0 -180.5 27.5t-86.5 81.5t-23 153v645q0 100 23.5 154t86 81t180.5 27z" />
    <glyph glyph-name="Dcaron" unicode="&#x10e;" horiz-adv-x="839" 
d="M326 1513l-133 189h131l96 -107l96 107h131l-133 -189h-188zM76 0v1434h381q94 0 151 -11.5t95.5 -44.5t53.5 -88t15 -145v-854q0 -90 -15 -145.5t-53.5 -88.5t-95.5 -45t-151 -12h-381zM457 1260h-174l-2 -1086h176q57 0 83.5 20.5t26.5 86.5v880q0 64 -25.5 81.5
t-84.5 17.5z" />
    <glyph glyph-name="dcaron" unicode="&#x10f;" horiz-adv-x="802" 
d="M72 225v709q0 122 61 172.5t180 50.5h215v318h195v-1475q-211 -6 -344 -6h-66q-118 0 -179.5 54t-61.5 177zM528 166v827h-180q-39 0 -60.5 -24t-21.5 -66v-647q0 -43 21 -66.5t61 -23.5h180zM780 1307v168h111v-150q0 -30 -4.5 -53t-19 -48t-23 -36.5t-33.5 -44.5
l-47 22q10 19 22.5 40.5t17.5 31.5t9 27.5t4 42.5h-37z" />
    <glyph glyph-name="Dcroat" unicode="&#x110;" horiz-adv-x="868" 
d="M4 659v144h100v631h381q94 0 151.5 -11.5t96 -44.5t53.5 -88t15 -145v-854q0 -90 -15 -145.5t-53.5 -88.5t-96 -45t-151.5 -12h-381v659h-100zM485 1260h-174l-2 -457h121v-144h-121v-485h176q57 0 84 20.5t27 86.5v880q0 64 -26 81.5t-85 17.5z" />
    <glyph glyph-name="dcroat" unicode="&#x111;" horiz-adv-x="808" 
d="M362 1288v92h166v95h195v-95h68v-92h-68v-1288q-211 -6 -344 -6h-66q-118 0 -179.5 54t-61.5 177v709q0 122 61 172.5t180 50.5h215v131h-166zM528 166v827h-180q-39 0 -60.5 -24t-21.5 -66v-647q0 -43 21 -66.5t61 -23.5h180z" />
    <glyph glyph-name="Emacron" unicode="&#x112;" horiz-adv-x="720" 
d="M164 1550v115h422v-115h-422zM285 647v-473h391v-174h-596v1434h596v-174h-391v-439h360v-174h-360z" />
    <glyph glyph-name="emacron" unicode="&#x113;" horiz-adv-x="784" 
d="M362 1163h62q116 0 179.5 -27t87.5 -81.5t24 -153.5v-401l-449 -4v-238q0 -60 23.5 -80t72.5 -20h72q49 0 72.5 20t23.5 80v107h185v-109q0 -74 -12 -121t-45 -80t-89 -47t-145 -14h-62q-117 0 -180.5 27.5t-86.5 81.5t-23 153v645q0 100 23.5 154t86 81t180.5 27z
M362 999q-49 0 -72.5 -20.5t-23.5 -79.5v-237h254v237q0 59 -23.5 79.5t-72.5 20.5h-62zM182 1274v115h422v-115h-422z" />
    <glyph glyph-name="Ebreve" unicode="&#x114;" horiz-adv-x="720" 
d="M285 647v-473h391v-174h-596v1434h596v-174h-391v-439h360v-174h-360zM418 1509h-78q-104 0 -141 37.5t-37 139.5v22h119v-35q0 -38 16.5 -51.5t46.5 -13.5h70q30 0 46.5 13.5t16.5 51.5v35h117v-22q0 -102 -37 -139.5t-139 -37.5z" />
    <glyph glyph-name="ebreve" unicode="&#x115;" horiz-adv-x="784" 
d="M362 1163h62q116 0 179.5 -27t87.5 -81.5t24 -153.5v-401l-449 -4v-238q0 -60 23.5 -80t72.5 -20h72q49 0 72.5 20t23.5 80v107h185v-109q0 -74 -12 -121t-45 -80t-89 -47t-145 -14h-62q-117 0 -180.5 27.5t-86.5 81.5t-23 153v645q0 100 23.5 154t86 81t180.5 27z
M362 999q-49 0 -72.5 -20.5t-23.5 -79.5v-237h254v237q0 59 -23.5 79.5t-72.5 20.5h-62zM432 1233h-78q-104 0 -141 37t-37 139v23h119v-35q0 -38 16.5 -52t46.5 -14h70q30 0 47 14t17 52v35h116v-23q0 -102 -37 -139t-139 -37z" />
    <glyph glyph-name="Edotaccent" unicode="&#x116;" horiz-adv-x="720" 
d="M285 647v-473h391v-174h-596v1434h596v-174h-391v-439h360v-174h-360zM317 1542v162h127v-162h-127z" />
    <glyph glyph-name="edotaccent" unicode="&#x117;" horiz-adv-x="784" 
d="M362 1163h62q116 0 179.5 -27t87.5 -81.5t24 -153.5v-401l-449 -4v-238q0 -60 23.5 -80t72.5 -20h72q49 0 72.5 20t23.5 80v107h185v-109q0 -74 -12 -121t-45 -80t-89 -47t-145 -14h-62q-117 0 -180.5 27.5t-86.5 81.5t-23 153v645q0 100 23.5 154t86 81t180.5 27z
M362 999q-49 0 -72.5 -20.5t-23.5 -79.5v-237h254v237q0 59 -23.5 79.5t-72.5 20.5h-62zM330 1266v161h127v-161h-127z" />
    <glyph glyph-name="Eogonek" unicode="&#x118;" horiz-adv-x="720" 
d="M285 647v-473h391v-186l-103 -62q-8 -6 -19.5 -13.5t-15.5 -10t-10 -7.5t-7.5 -9t-3 -9.5t-1.5 -13.5v-15q0 -26 4.5 -34.5t26.5 -8.5h59q12 0 17.5 0.5t8.5 7t3 10v19.5v33h100v-31q0 -69 -19 -99t-85 -30h-103q-70 0 -93 23.5t-23 85.5v24q0 46 14.5 64t60.5 45
q10 4 31 14.5t37 19.5l16 9h-491v1434h596v-174h-391v-439h360v-174h-360z" />
    <glyph glyph-name="eogonek" unicode="&#x119;" horiz-adv-x="784" 
d="M362 1163h62q116 0 179.5 -27t87.5 -81.5t24 -153.5v-401l-449 -4v-238q0 -60 23.5 -80t72.5 -20h72q49 0 72.5 20t23.5 80v107h185v-109q0 -128 -43.5 -186.5t-161.5 -71.5l-102 -61q-8 -5 -19.5 -13t-15.5 -11t-10.5 -8t-8 -9t-3 -9.5t-1.5 -13.5v-14q0 -26 4.5 -34.5
t26.5 -8.5h59q12 0 17.5 0.5t8.5 7t3 10v19.5v32h100v-30q0 -69 -19 -99t-85 -30h-103q-70 0 -93 23t-23 85v25q0 32 9.5 51.5t21.5 28t45 28.5q3 1 55 27h-15q-117 0 -180.5 27.5t-86.5 81.5t-23 153v645q0 100 23.5 154t86 81t180.5 27zM362 999q-49 0 -72.5 -20.5
t-23.5 -79.5v-237h254v237q0 59 -23.5 79.5t-72.5 20.5h-62z" />
    <glyph glyph-name="Ecaron" unicode="&#x11a;" horiz-adv-x="720" 
d="M289 1513l-133 189h131l96 -107l96 107h131l-133 -189h-188zM285 647v-473h391v-174h-596v1434h596v-174h-391v-439h360v-174h-360z" />
    <glyph glyph-name="ecaron" unicode="&#x11b;" horiz-adv-x="784" 
d="M299 1237l-133 188h131l96 -106l96 106h132l-134 -188h-188zM362 1163h62q116 0 179.5 -27t87.5 -81.5t24 -153.5v-401l-449 -4v-238q0 -60 23.5 -80t72.5 -20h72q49 0 72.5 20t23.5 80v107h185v-109q0 -74 -12 -121t-45 -80t-89 -47t-145 -14h-62q-117 0 -180.5 27.5
t-86.5 81.5t-23 153v645q0 100 23.5 154t86 81t180.5 27zM362 999q-49 0 -72.5 -20.5t-23.5 -79.5v-237h254v237q0 59 -23.5 79.5t-72.5 20.5h-62z" />
    <glyph glyph-name="gcircumflex" unicode="&#x11d;" 
d="M72 913q0 123 72 186.5t190 63.5h47l342 -6v-1157q0 -84 -11.5 -133t-46 -79t-87.5 -40t-146 -10h-57q-88 0 -142.5 14.5t-85.5 51.5t-42 89t-11 138v30h180v-71q0 -55 20 -71.5t66 -16.5h80q49 0 68.5 18t19.5 78v111h-215q-118 0 -179.5 53t-61.5 176v575zM528 279v714
h-180q-39 0 -60.5 -24t-21.5 -66v-534q0 -43 21 -66.5t61 -23.5h180zM182 1237l133 188h189l133 -188h-131l-96 106l-97 -106h-131z" />
    <glyph glyph-name="Gbreve" unicode="&#x11e;" horiz-adv-x="843" 
d="M397 1440h58q96 0 154.5 -11.5t99 -45t56 -91.5t15.5 -153v-168h-205v180q0 73 -29 94t-91 21h-58q-62 0 -91.5 -21t-29.5 -94v-879q0 -38 7.5 -60.5t27.5 -31.5t35 -10.5t51 -1.5h58h30t25 2t23 5.5t16.5 11t14.5 18.5t7.5 28t3.5 39v310h-157v174h362v-461
q0 -94 -15.5 -152t-56 -91.5t-99 -45.5t-154.5 -12h-58q-96 0 -154.5 12t-99 45.5t-56 91.5t-15.5 152v844q0 95 15.5 153t56 91.5t99 45t154.5 11.5zM463 1509h-78q-104 0 -141 37.5t-37 139.5v22h119v-35q0 -38 16.5 -51.5t46.5 -13.5h70q30 0 46.5 13.5t16.5 51.5v35h117
v-22q0 -102 -37 -139.5t-139 -37.5z" />
    <glyph glyph-name="gbreve" unicode="&#x11f;" 
d="M72 913q0 123 72 186.5t190 63.5h47l342 -6v-1157q0 -84 -11.5 -133t-46 -79t-87.5 -40t-146 -10h-57q-88 0 -142.5 14.5t-85.5 51.5t-42 89t-11 138v30h180v-71q0 -55 20 -71.5t66 -16.5h80q49 0 68.5 18t19.5 78v111h-215q-118 0 -179.5 53t-61.5 176v575zM528 279v714
h-180q-39 0 -60.5 -24t-21.5 -66v-534q0 -43 21 -66.5t61 -23.5h180zM438 1233h-78q-104 0 -141 37t-37 139v23h119v-35q0 -38 17 -52t47 -14h69q30 0 47 14t17 52v35h116v-23q0 -102 -37 -139t-139 -37z" />
    <glyph glyph-name="Gdotaccent" unicode="&#x120;" horiz-adv-x="843" 
d="M397 1440h58q96 0 154.5 -11.5t99 -45t56 -91.5t15.5 -153v-168h-205v180q0 73 -29 94t-91 21h-58q-62 0 -91.5 -21t-29.5 -94v-879q0 -38 7.5 -60.5t27.5 -31.5t35 -10.5t51 -1.5h58h30t25 2t23 5.5t16.5 11t14.5 18.5t7.5 28t3.5 39v310h-157v174h362v-461
q0 -94 -15.5 -152t-56 -91.5t-99 -45.5t-154.5 -12h-58q-96 0 -154.5 12t-99 45.5t-56 91.5t-15.5 152v844q0 95 15.5 153t56 91.5t99 45t154.5 11.5zM360 1542v162h127v-162h-127z" />
    <glyph glyph-name="gdotaccent" unicode="&#x121;" 
d="M72 913q0 123 72 186.5t190 63.5h47l342 -6v-1157q0 -84 -11.5 -133t-46 -79t-87.5 -40t-146 -10h-57q-88 0 -142.5 14.5t-85.5 51.5t-42 89t-11 138v30h180v-71q0 -55 20 -71.5t66 -16.5h80q49 0 68.5 18t19.5 78v111h-215q-118 0 -179.5 53t-61.5 176v575zM528 279v714
h-180q-39 0 -60.5 -24t-21.5 -66v-534q0 -43 21 -66.5t61 -23.5h180zM336 1266v161h127v-161h-127z" />
    <glyph glyph-name="Gcommaaccent" unicode="&#x122;" horiz-adv-x="843" 
d="M358 -256v180h131v-160q0 -61 -17 -101.5t-62 -102.5l-56 28q8 17 19.5 39.5t14.5 29t7.5 21.5t5 28.5t0.5 37.5h-43zM397 1440h58q96 0 154.5 -11.5t99 -45t56 -91.5t15.5 -153v-168h-205v180q0 73 -29 94t-91 21h-58q-62 0 -91.5 -21t-29.5 -94v-879q0 -38 7.5 -60.5
t27.5 -31.5t35 -10.5t51 -1.5h58h30t25 2t23 5.5t16.5 11t14.5 18.5t7.5 28t3.5 39v310h-157v174h362v-461q0 -94 -15.5 -152t-56 -91.5t-99 -45.5t-154.5 -12h-58q-96 0 -154.5 12t-99 45.5t-56 91.5t-15.5 152v844q0 95 15.5 153t56 91.5t99 45t154.5 11.5z" />
    <glyph glyph-name="gcommaaccent" unicode="&#x123;" 
d="M72 913q0 123 72 186.5t190 63.5h47l342 -6v-1157q0 -84 -11.5 -133t-46 -79t-87.5 -40t-146 -10h-57q-88 0 -142.5 14.5t-85.5 51.5t-42 89t-11 138v30h180v-71q0 -55 20 -71.5t66 -16.5h80q49 0 68.5 18t19.5 78v111h-215q-118 0 -179.5 53t-61.5 176v575zM528 279v714
h-180q-39 0 -60.5 -24t-21.5 -66v-534q0 -43 21 -66.5t61 -23.5h180zM469 1425v-180h-131v160q0 61 17.5 101.5t62.5 103.5l55 -29q-8 -17 -19.5 -39.5t-14.5 -29t-7.5 -21.5t-5 -28.5t-0.5 -37.5h43z" />
    <glyph glyph-name="Hbar" unicode="&#x126;" horiz-adv-x="888" 
d="M2 1100v133h88v201h205v-201h299v201h205v-201h88v-133h-88v-1100h-205v627h-299v-627h-205v1100h-88zM295 821h299v279h-299v-279z" />
    <glyph glyph-name="hbar" unicode="&#x127;" horiz-adv-x="806" 
d="M2 1233v113h82v129h195v-129h180v-113h-180v-76h213q119 0 180 -50.5t61 -172.5v-934h-194v903q0 42 -21.5 66t-60.5 24h-178v-993h-195v1233h-82z" />
    <glyph glyph-name="Imacron" unicode="&#x12a;" horiz-adv-x="364" 
d="M80 0v1434h205v-1434h-205zM-29 1550v115h422v-115h-422z" />
    <glyph glyph-name="imacron" unicode="&#x12b;" horiz-adv-x="344" 
d="M76 0v1157h194v-1157h-194zM-37 1274v115h422v-115h-422z" />
    <glyph glyph-name="Ibreve" unicode="&#x12c;" horiz-adv-x="364" 
d="M80 0v1434h205v-1434h-205zM223 1509h-78q-104 0 -141 37.5t-37 139.5v22h119v-35q0 -38 17 -51.5t47 -13.5h69q30 0 47 13.5t17 51.5v35h116v-22q0 -102 -37 -139.5t-139 -37.5z" />
    <glyph glyph-name="ibreve" unicode="&#x12d;" horiz-adv-x="344" 
d="M76 0v1157h194v-1157h-194zM213 1233h-78q-104 0 -141 37t-37 139v23h119v-35q0 -38 16.5 -52t46.5 -14h70q30 0 46.5 14t16.5 52v35h117v-23q0 -102 -37 -139t-139 -37z" />
    <glyph glyph-name="Iogonek" unicode="&#x12e;" horiz-adv-x="364" 
d="M80 0v1434h205v-1434h-37l-103 -61q-7 -5 -17 -11.5t-14 -9.5l-10 -7.5t-8 -7t-4.5 -7.5t-3 -9.5t-0.5 -11.5v-14q0 -26 4.5 -34.5t26.5 -8.5h59q12 0 17.5 0.5t8.5 7t3 10v19.5v32h100v-30q0 -69 -19 -99t-85 -30h-103q-70 0 -93 23t-23 85v25q0 24 3.5 39.5t15.5 28.5
t21 19t35 21l62 31h-41z" />
    <glyph glyph-name="iogonek" unicode="&#x12f;" horiz-adv-x="344" 
d="M76 0v1157h194v-1157h-22l-103 -61q-7 -5 -17 -11.5t-14 -9.5l-10 -7.5t-8 -7t-4.5 -7.5t-3 -9.5t-0.5 -11.5v-14q0 -26 4.5 -34.5t26.5 -8.5h59q12 0 17.5 0.5t8.5 7t3 10v19.5v32h100v-30q0 -69 -19 -99t-85 -30h-103q-70 0 -93 23t-23 85v25q0 24 3.5 39.5t15.5 28.5
t21 19t35 21l62 31h-45zM72 1260v184h200v-184h-200z" />
    <glyph glyph-name="Idotaccent" unicode="&#x130;" horiz-adv-x="364" 
d="M80 0v1434h205v-1434h-205zM119 1542v162h127v-162h-127z" />
    <glyph glyph-name="dotlessi" unicode="&#x131;" horiz-adv-x="344" 
d="M76 0v1157h194v-1157h-194z" />
    <glyph glyph-name="Kcommaaccent" unicode="&#x136;" horiz-adv-x="851" 
d="M358 -256v180h131v-160q0 -61 -17 -101.5t-62 -102.5l-56 28q8 17 19.5 39.5t14.5 29t7.5 21.5t5 28.5t0.5 37.5h-43zM285 600v-600h-205v1434h205v-639h129l190 639h215l-225 -721l246 -713h-226l-188 600h-141z" />
    <glyph glyph-name="kcommaaccent" unicode="&#x137;" horiz-adv-x="786" 
d="M322 -256v180h131v-160q0 -61 -17.5 -101t-62.5 -103l-56 28q8 18 19.5 39.5t15 29t7.5 22t5 28t1 37.5h-43zM580 0l-181 524h-131v-524h-194v1475h194v-762h129l168 444h197l-203 -536l217 -621h-196z" />
    <glyph glyph-name="Lacute" unicode="&#x139;" horiz-adv-x="661" 
d="M106 1513l84 189h199l-151 -189h-132zM80 0v1434h205v-1260h360v-174h-565z" />
    <glyph glyph-name="lacute" unicode="&#x13a;" horiz-adv-x="342" 
d="M102 1524l84 188h199l-152 -188h-131zM74 0v1475h194v-1475h-194z" />
    <glyph glyph-name="Lcommaaccent" unicode="&#x13b;" horiz-adv-x="661" 
d="M287 -256v180h131v-160q0 -61 -17.5 -101t-62.5 -103l-55 28q8 17 19.5 39.5t14.5 29t7.5 21.5t5 28.5t0.5 37.5h-43zM80 0v1434h205v-1260h360v-174h-565z" />
    <glyph glyph-name="lcommaaccent" unicode="&#x13c;" horiz-adv-x="342" 
d="M106 -256v180h132v-160q0 -61 -17.5 -101t-62.5 -103l-56 28q8 18 19.5 39.5t15 29t7.5 22t5 28t1 37.5h-44zM74 0v1475h194v-1475h-194z" />
    <glyph glyph-name="Lcaron" unicode="&#x13d;" horiz-adv-x="661" 
d="M463 1266v168h110v-150q0 -39 -12 -72.5t-24 -51.5t-43 -58l-48 22q10 20 22.5 41t18 31t9.5 27.5t4 42.5h-37zM80 0v1434h205v-1260h360v-174h-565z" />
    <glyph glyph-name="lcaron" unicode="&#x13e;" horiz-adv-x="342" 
d="M365 1307v168h110v-150q0 -30 -4.5 -53t-19 -48t-23 -36.5t-33.5 -44.5l-47 22q10 19 22.5 40.5t17.5 31.5t9 27.5t4 42.5h-36zM74 0v1475h194v-1475h-194z" />
    <glyph glyph-name="Ldot" unicode="&#x13f;" horiz-adv-x="661" 
d="M80 0v1434h205v-1260h360v-174h-565zM410 657v162h127v-162h-127z" />
    <glyph glyph-name="ldot" unicode="&#x140;" horiz-adv-x="473" 
d="M74 0v1475h194v-1475h-194zM330 655v162h127v-162h-127z" />
    <glyph glyph-name="Lslash" unicode="&#x141;" horiz-adv-x="686" 
d="M6 532v173l100 51v678h205v-574l154 80v-172l-154 -80v-514h361v-174h-566v584z" />
    <glyph glyph-name="lslash" unicode="&#x142;" horiz-adv-x="366" 
d="M0 573v172l84 46v684h195v-582l88 47v-192l-88 -43v-705h-195v612z" />
    <glyph glyph-name="Nacute" unicode="&#x143;" horiz-adv-x="882" 
d="M383 1513l84 189h199l-152 -189h-131zM80 1434h217l305 -920h2v920h201v-1434h-223l-287 891h-10v-891h-205v1434z" />
    <glyph glyph-name="nacute" unicode="&#x144;" 
d="M528 0v903q0 42 -21.5 66t-60.5 24h-178v-993h-194v1157q194 6 344 6h63q118 0 180 -53.5t62 -175.5v-934h-195zM299 1237l84 188h199l-152 -188h-131z" />
    <glyph glyph-name="Ncommaaccent" unicode="&#x145;" horiz-adv-x="882" 
d="M362 -256v180h132v-160q0 -61 -17.5 -101t-62.5 -103l-56 28q8 18 19.5 39.5t15 29t7.5 22t5 28t1 37.5h-44zM80 1434h217l305 -920h2v920h201v-1434h-223l-287 891h-10v-891h-205v1434z" />
    <glyph glyph-name="ncommaaccent" unicode="&#x146;" 
d="M528 0v903q0 42 -21.5 66t-60.5 24h-178v-993h-194v1157q194 6 344 6h63q118 0 180 -53.5t62 -175.5v-934h-195zM334 -256v180h131v-160q0 -61 -17.5 -101t-62.5 -103l-55 28q8 17 19.5 39.5t14.5 29t7.5 21.5t5 28.5t0.5 37.5h-43z" />
    <glyph glyph-name="Ncaron" unicode="&#x147;" horiz-adv-x="882" 
d="M348 1513l-133 189h131l96 -107l97 107h131l-133 -189h-189zM80 1434h217l305 -920h2v920h201v-1434h-223l-287 891h-10v-891h-205v1434z" />
    <glyph glyph-name="ncaron" unicode="&#x148;" 
d="M528 0v903q0 42 -21.5 66t-60.5 24h-178v-993h-194v1157q194 6 344 6h63q118 0 180 -53.5t62 -175.5v-934h-195zM305 1237l-133 188h131l96 -106l97 106h131l-133 -188h-189z" />
    <glyph glyph-name="Omacron" unicode="&#x14c;" horiz-adv-x="862" 
d="M221 1550v115h422v-115h-422zM397 1440h68q96 0 154.5 -11.5t99 -45t56.5 -91.5t16 -153v-844q0 -94 -16 -152t-56.5 -91.5t-99 -45.5t-154.5 -12h-68q-96 0 -154.5 12t-98.5 46t-56 92t-16 151v844q0 95 15.5 153t56 91.5t99 45t154.5 11.5zM401 168h60q64 0 94.5 21
t30.5 94v868q0 73 -30.5 94t-94.5 21h-60q-64 0 -94.5 -21t-30.5 -94v-868q0 -73 30.5 -94t94.5 -21z" />
    <glyph glyph-name="omacron" unicode="&#x14d;" horiz-adv-x="792" 
d="M186 1274v115h422v-115h-422zM362 1163h70q116 0 179.5 -27t87.5 -81.5t24 -153.5v-645q0 -146 -60.5 -204t-230.5 -58h-70q-117 0 -180.5 27.5t-86.5 81.5t-23 153v645q0 100 23.5 154t86 81t180.5 27zM362 158h70q49 0 72.5 20.5t23.5 79.5l2 643q0 60 -23.5 80
t-72.5 20h-69q-50 0 -73.5 -20t-23.5 -80l-2 -643q0 -59 23.5 -79.5t72.5 -20.5z" />
    <glyph glyph-name="Obreve" unicode="&#x14e;" horiz-adv-x="862" 
d="M397 1440h68q96 0 154.5 -11.5t99 -45t56.5 -91.5t16 -153v-844q0 -94 -16 -152t-56.5 -91.5t-99 -45.5t-154.5 -12h-68q-96 0 -154.5 12t-98.5 46t-56 92t-16 151v844q0 95 15.5 153t56 91.5t99 45t154.5 11.5zM401 168h60q64 0 94.5 21t30.5 94v868q0 73 -30.5 94
t-94.5 21h-60q-64 0 -94.5 -21t-30.5 -94v-868q0 -73 30.5 -94t94.5 -21zM471 1509h-78q-104 0 -141 37.5t-37 139.5v22h119v-35q0 -38 16.5 -51.5t46.5 -13.5h70q30 0 46.5 13.5t16.5 51.5v35h117v-22q0 -102 -37 -139.5t-139 -37.5z" />
    <glyph glyph-name="obreve" unicode="&#x14f;" horiz-adv-x="792" 
d="M362 1163h70q116 0 179.5 -27t87.5 -81.5t24 -153.5v-645q0 -146 -60.5 -204t-230.5 -58h-70q-117 0 -180.5 27.5t-86.5 81.5t-23 153v645q0 100 23.5 154t86 81t180.5 27zM362 158h70q49 0 72.5 20.5t23.5 79.5l2 643q0 60 -23.5 80t-72.5 20h-69q-50 0 -73.5 -20
t-23.5 -80l-2 -643q0 -59 23.5 -79.5t72.5 -20.5zM438 1233h-78q-104 0 -141 37t-37 139v23h119v-35q0 -38 17 -52t47 -14h69q30 0 47 14t17 52v35h116v-23q0 -102 -37 -139t-139 -37z" />
    <glyph glyph-name="Ohungarumlaut" unicode="&#x150;" horiz-adv-x="862" 
d="M262 1513l125 189h168l-162 -189h-131zM467 1513l125 189h199l-193 -189h-131zM397 1440h68q96 0 154.5 -11.5t99 -45t56.5 -91.5t16 -153v-844q0 -94 -16 -152t-56.5 -91.5t-99 -45.5t-154.5 -12h-68q-96 0 -154.5 12t-98.5 46t-56 92t-16 151v844q0 95 15.5 153
t56 91.5t99 45t154.5 11.5zM401 168h60q64 0 94.5 21t30.5 94v868q0 73 -30.5 94t-94.5 21h-60q-64 0 -94.5 -21t-30.5 -94v-868q0 -73 30.5 -94t94.5 -21z" />
    <glyph glyph-name="ohungarumlaut" unicode="&#x151;" horiz-adv-x="792" 
d="M231 1237l125 188h168l-162 -188h-131zM436 1237l125 188h199l-193 -188h-131zM362 1163h70q116 0 179.5 -27t87.5 -81.5t24 -153.5v-645q0 -146 -60.5 -204t-230.5 -58h-70q-117 0 -180.5 27.5t-86.5 81.5t-23 153v645q0 100 23.5 154t86 81t180.5 27zM362 158h70
q49 0 72.5 20.5t23.5 79.5l2 643q0 60 -23.5 80t-72.5 20h-69q-50 0 -73.5 -20t-23.5 -80l-2 -643q0 -59 23.5 -79.5t72.5 -20.5z" />
    <glyph glyph-name="OE" unicode="&#x152;" horiz-adv-x="1196" 
d="M1159 0h-762q-184 0 -254.5 69t-70.5 253v792q0 184 70 252t255 68h762v-174h-391v-439h360v-174h-360v-473h391v-174zM397 1270q-59 0 -88.5 -24.5t-29.5 -98.5v-858q0 -74 29.5 -99.5t88.5 -25.5h166v1106h-166z" />
    <glyph glyph-name="oe" unicode="&#x153;" horiz-adv-x="1241" 
d="M362 1163h70q128 0 193 -33q62 33 194 33h62q116 0 179 -27t87 -81.5t24 -153.5v-401l-448 -4v-238q0 -60 23.5 -80t72.5 -20h72q49 0 72.5 20t23.5 80v107h184v-109q0 -99 -23 -153t-86.5 -81.5t-180.5 -27.5h-62q-136 0 -194 31q-61 -31 -193 -31h-70
q-117 0 -180.5 27.5t-86.5 81.5t-23 153v645q0 100 23.5 154t86 81t180.5 27zM362 158h70q49 0 72.5 20.5t23.5 79.5v643v31q-6 40 -29 54.5t-65 14.5h-69q-50 0 -73.5 -20t-23.5 -80l-2 -643q0 -59 23.5 -79.5t72.5 -20.5zM819 999q-47 0 -71 -18t-25 -70v-10v-239h254v237
q0 59 -23.5 79.5t-72.5 20.5h-62z" />
    <glyph glyph-name="Racute" unicode="&#x154;" horiz-adv-x="811" 
d="M317 1513l84 189h199l-151 -189h-132zM76 0v1434h387q91 0 146.5 -11t93 -42.5t51.5 -85t14 -140.5v-242q0 -203 -129 -223q67 -14 98 -67t31 -174v-449h-205v479q0 63 -27.5 88t-76.5 27h-178v-594h-205zM281 1260v-492h182q26 0 41 2.5t30.5 11.5t22 28.5t6.5 51.5v307
q0 32 -7.5 51.5t-24.5 27.5t-32 10t-42 2h-176z" />
    <glyph glyph-name="racute" unicode="&#x155;" horiz-adv-x="559" 
d="M211 1237l84 188h199l-152 -188h-131zM74 0v956q0 91 53.5 149t161.5 58h20q36 0 97 -3t104 -6l43 -3v-143q-144 -9 -203 -13q-52 -3 -66 -21t-16 -69v-905h-194z" />
    <glyph glyph-name="Rcommaaccent" unicode="&#x156;" horiz-adv-x="811" 
d="M362 -256v180h132v-160q0 -61 -17.5 -101t-62.5 -103l-56 28q8 18 19.5 39.5t15 29t7.5 22t5 28t1 37.5h-44zM76 0v1434h387q91 0 146.5 -11t93 -42.5t51.5 -85t14 -140.5v-242q0 -203 -129 -223q67 -14 98 -67t31 -174v-449h-205v479q0 63 -27.5 88t-76.5 27h-178v-594
h-205zM281 1260v-492h182q26 0 41 2.5t30.5 11.5t22 28.5t6.5 51.5v307q0 32 -7.5 51.5t-24.5 27.5t-32 10t-42 2h-176z" />
    <glyph glyph-name="rcommaaccent" unicode="&#x157;" horiz-adv-x="559" 
d="M106 -256v180h132v-160q0 -61 -17.5 -101t-62.5 -103l-56 28q8 18 19.5 39.5t15 29t7.5 22t5 28t1 37.5h-44zM74 0v956q0 91 53.5 149t161.5 58h20q36 0 97 -3t104 -6l43 -3v-143q-144 -9 -203 -13q-52 -3 -66 -21t-16 -69v-905h-194z" />
    <glyph glyph-name="Rcaron" unicode="&#x158;" horiz-adv-x="811" 
d="M313 1513l-133 189h131l97 -107l96 107h131l-133 -189h-189zM76 0v1434h387q91 0 146.5 -11t93 -42.5t51.5 -85t14 -140.5v-242q0 -203 -129 -223q67 -14 98 -67t31 -174v-449h-205v479q0 63 -27.5 88t-76.5 27h-178v-594h-205zM281 1260v-492h182q26 0 41 2.5t30.5 11.5
t22 28.5t6.5 51.5v307q0 32 -7.5 51.5t-24.5 27.5t-32 10t-42 2h-176z" />
    <glyph glyph-name="rcaron" unicode="&#x159;" horiz-adv-x="559" 
d="M186 1237l-133 188h131l97 -106l96 106h131l-133 -188h-189zM74 0v956q0 91 53.5 149t161.5 58h20q36 0 97 -3t104 -6l43 -3v-143q-144 -9 -203 -13q-52 -3 -66 -21t-16 -69v-905h-194z" />
    <glyph glyph-name="Sacute" unicode="&#x15a;" horiz-adv-x="823" 
d="M344 1513l84 189h199l-152 -189h-131zM387 1440h43q97 0 155.5 -11.5t99 -45.5t56 -91.5t15.5 -152.5v-187h-205v203q0 39 -7.5 62t-26 33.5t-36.5 13t-51 2.5h-43q-32 0 -50 -2.5t-36.5 -13t-26.5 -34t-8 -61.5v-139q0 -39 6 -63.5t28.5 -42.5t39 -26t63.5 -26l15 -6
l141 -49q41 -15 67 -27.5t55 -35t45.5 -50t27 -70.5t10.5 -98v-227q0 -94 -16 -152t-56.5 -91.5t-99 -45.5t-154.5 -12h-51q-97 0 -155.5 12t-99 46t-56 91.5t-15.5 151.5v188h205v-202q0 -73 28 -93t93 -20h51q64 0 92.5 20t28.5 93v211q0 22 -2.5 38t-10 29t-13.5 21
t-21.5 17t-23.5 13t-30.5 13t-33.5 14l-150 51q-44 18 -68.5 29.5t-56.5 34t-48 48.5t-28 68t-12 97v174q0 95 16 153t56.5 91.5t99 45t154.5 11.5z" />
    <glyph glyph-name="sacute" unicode="&#x15b;" horiz-adv-x="706" 
d="M268 1237l84 188h199l-152 -188h-131zM338 1163h20q88 0 142.5 -13.5t85.5 -47t42 -80t11 -121.5v-92h-184v102q0 58 -22.5 73t-74.5 15h-20q-52 0 -74 -15t-22 -73v-92q0 -12 2 -22t4 -17.5t9 -14.5t10.5 -11t15.5 -10.5t17.5 -9t23 -10.5t24.5 -11l137 -54
q44 -17 70.5 -32t53 -40.5t38.5 -63.5t12 -91v-166q0 -75 -12 -123t-44.5 -82.5t-89 -49.5t-144.5 -15h-31q-118 0 -181 27t-86.5 81t-23.5 154v107h195v-115q0 -58 22.5 -74t73.5 -16h31q49 0 72.5 19.5t23.5 78.5v141q0 18 -2.5 31.5t-10 25t-11.5 18t-19 15t-19 11
t-24 11t-23 9.5l-135 55q-26 11 -34.5 14.5t-31 14t-30.5 17.5t-24.5 20.5t-23 27.5t-15.5 34t-12 44.5t-3 53.5v100q0 100 23.5 154t86.5 81t181 27z" />
    <glyph glyph-name="Scedilla" unicode="&#x15e;" horiz-adv-x="823" 
d="M387 1440h43q97 0 155.5 -11.5t99 -45.5t56 -91.5t15.5 -152.5v-187h-205v203q0 39 -7.5 62t-26 33.5t-36.5 13t-51 2.5h-43q-32 0 -50 -2.5t-36.5 -13t-26.5 -34t-8 -61.5v-139q0 -39 6 -63.5t28.5 -42.5t39 -26t63.5 -26l15 -6l141 -49q41 -15 67 -27.5t55 -35
t45.5 -50t27 -70.5t10.5 -98v-227q0 -93 -16 -150.5t-56 -91.5t-97 -46t-151 -13l-49 -236h-147l86 238q-156 5 -214.5 67t-58.5 232v188h205v-202q0 -73 28 -93t93 -20h51q64 0 92.5 20t28.5 93v211q0 22 -2.5 38t-10 29t-13.5 21t-21.5 17t-23.5 13t-30.5 13t-33.5 14
l-150 51q-44 18 -68.5 29.5t-56.5 34t-48 48.5t-28 68t-12 97v174q0 95 16 153t56.5 91.5t99 45t154.5 11.5z" />
    <glyph glyph-name="scedilla" unicode="&#x15f;" horiz-adv-x="706" 
d="M338 1163h20q88 0 142.5 -13.5t85.5 -47t42 -80t11 -121.5v-92h-184v102q0 58 -22.5 73t-74.5 15h-20q-52 0 -74 -15t-22 -73v-92q0 -12 2 -22t4 -17.5t9 -14.5t10.5 -11t15.5 -10.5t17.5 -9t23 -10.5t24.5 -11l137 -54q44 -17 70.5 -32t53 -40.5t38.5 -63.5t12 -91v-166
q0 -140 -50.5 -200.5t-192.5 -67.5l-49 -240h-148l86 238q-152 4 -205 62t-53 200v107h195v-115q0 -58 22.5 -74t73.5 -16h31q49 0 72.5 19.5t23.5 78.5v141q0 18 -2.5 31.5t-10 25t-11.5 18t-19 15t-19 11t-24 11t-23 9.5l-135 55q-26 11 -34.5 14.5t-31 14t-30.5 17.5
t-24.5 20.5t-23 27.5t-15.5 34t-12 44.5t-3 53.5v100q0 100 23.5 154t86.5 81t181 27z" />
    <glyph glyph-name="Scaron" unicode="&#x160;" horiz-adv-x="823" 
d="M319 1513l-133 189h131l97 -107l96 107h131l-133 -189h-189zM387 1440h43q97 0 155.5 -11.5t99 -45.5t56 -91.5t15.5 -152.5v-187h-205v203q0 39 -7.5 62t-26 33.5t-36.5 13t-51 2.5h-43q-32 0 -50 -2.5t-36.5 -13t-26.5 -34t-8 -61.5v-139q0 -39 6 -63.5t28.5 -42.5
t39 -26t63.5 -26l15 -6l141 -49q41 -15 67 -27.5t55 -35t45.5 -50t27 -70.5t10.5 -98v-227q0 -94 -16 -152t-56.5 -91.5t-99 -45.5t-154.5 -12h-51q-97 0 -155.5 12t-99 46t-56 91.5t-15.5 151.5v188h205v-202q0 -73 28 -93t93 -20h51q64 0 92.5 20t28.5 93v211
q0 22 -2.5 38t-10 29t-13.5 21t-21.5 17t-23.5 13t-30.5 13t-33.5 14l-150 51q-44 18 -68.5 29.5t-56.5 34t-48 48.5t-28 68t-12 97v174q0 95 16 153t56.5 91.5t99 45t154.5 11.5z" />
    <glyph glyph-name="scaron" unicode="&#x161;" horiz-adv-x="706" 
d="M270 1237l-133 188h131l97 -106l96 106h131l-133 -188h-189zM338 1163h20q88 0 142.5 -13.5t85.5 -47t42 -80t11 -121.5v-92h-184v102q0 58 -22.5 73t-74.5 15h-20q-52 0 -74 -15t-22 -73v-92q0 -12 2 -22t4 -17.5t9 -14.5t10.5 -11t15.5 -10.5t17.5 -9t23 -10.5
t24.5 -11l137 -54q44 -17 70.5 -32t53 -40.5t38.5 -63.5t12 -91v-166q0 -75 -12 -123t-44.5 -82.5t-89 -49.5t-144.5 -15h-31q-118 0 -181 27t-86.5 81t-23.5 154v107h195v-115q0 -58 22.5 -74t73.5 -16h31q49 0 72.5 19.5t23.5 78.5v141q0 18 -2.5 31.5t-10 25t-11.5 18
t-19 15t-19 11t-24 11t-23 9.5l-135 55q-26 11 -34.5 14.5t-31 14t-30.5 17.5t-24.5 20.5t-23 27.5t-15.5 34t-12 44.5t-3 53.5v100q0 100 23.5 154t86.5 81t181 27z" />
    <glyph glyph-name="Tcommaaccent" unicode="&#x162;" horiz-adv-x="770" 
d="M317 -256v180h132v-160q0 -61 -17.5 -101t-62.5 -103l-56 28q8 17 19.5 39.5t14.5 29t7.5 21.5t5 28.5t0.5 37.5h-43zM487 1260v-1260h-204v1260h-271v174h746v-174h-271z" />
    <glyph glyph-name="tcommaaccent" unicode="&#x163;" horiz-adv-x="487" 
d="M213 -256v180h131v-160q0 -61 -17.5 -101t-62.5 -103l-55 28q8 17 19.5 39.5t14.5 29t7.5 21.5t5 28.5t0.5 37.5h-43zM463 1157v-164h-162v-762q0 -32 11 -48.5t44 -16.5h123v-166l-123 -6q-147 -5 -198.5 41t-51.5 186v772h-83v164h83v256h195v-256h162z" />
    <glyph glyph-name="Tcaron" unicode="&#x164;" horiz-adv-x="770" 
d="M291 1513l-133 189h131l96 -107l96 107h131l-133 -189h-188zM487 1260v-1260h-204v1260h-271v174h746v-174h-271z" />
    <glyph glyph-name="tcaron" unicode="&#x165;" horiz-adv-x="497" 
d="M371 1399v168h110v-150q0 -30 -4.5 -53t-19 -48t-23 -36.5t-33.5 -44.5l-47 22q10 20 22.5 41t18 31t9.5 27.5t4 42.5h-37zM463 1157v-164h-162v-762q0 -32 11 -48.5t44 -16.5h123v-166l-123 -6q-147 -5 -198.5 41t-51.5 186v772h-83v164h83v256h195v-256h162z" />
    <glyph glyph-name="Umacron" unicode="&#x16a;" horiz-adv-x="862" 
d="M72 1434h204v-1145q0 -76 21.5 -98.5t79.5 -22.5h108q58 0 79.5 22.5t21.5 98.5v1145h205v-1139q0 -94 -16 -152t-56.5 -91.5t-99 -45.5t-154.5 -12h-68q-96 0 -154.5 12t-99 45.5t-56 91.5t-15.5 152v1139zM221 1550v115h422v-115h-422z" />
    <glyph glyph-name="umacron" unicode="&#x16b;" horiz-adv-x="792" 
d="M264 1157v-901q0 -43 21 -66.5t61 -23.5h178v991h195v-1157q-266 -6 -342 -6h-66q-118 0 -179.5 54t-61.5 177v932h194zM186 1274v115h422v-115h-422z" />
    <glyph glyph-name="Ubreve" unicode="&#x16c;" horiz-adv-x="862" 
d="M72 1434h204v-1145q0 -76 21.5 -98.5t79.5 -22.5h108q58 0 79.5 22.5t21.5 98.5v1145h205v-1139q0 -94 -16 -152t-56.5 -91.5t-99 -45.5t-154.5 -12h-68q-96 0 -154.5 12t-99 45.5t-56 91.5t-15.5 152v1139zM471 1509h-78q-104 0 -141 37.5t-37 139.5v22h119v-35
q0 -38 16.5 -51.5t46.5 -13.5h70q30 0 46.5 13.5t16.5 51.5v35h117v-22q0 -102 -37 -139.5t-139 -37.5z" />
    <glyph glyph-name="ubreve" unicode="&#x16d;" horiz-adv-x="792" 
d="M264 1157v-901q0 -43 21 -66.5t61 -23.5h178v991h195v-1157q-266 -6 -342 -6h-66q-118 0 -179.5 54t-61.5 177v932h194zM436 1233h-78q-104 0 -141 37t-37 139v23h119v-35q0 -38 16.5 -52t46.5 -14h70q30 0 47 14t17 52v35h116v-23q0 -102 -37 -139t-139 -37z" />
    <glyph glyph-name="Uring" unicode="&#x16e;" horiz-adv-x="862" 
d="M412 1778h39q79 0 104 -26.5t25 -98.5v-29q0 -72 -25 -98.5t-104 -26.5h-39q-77 0 -103 27t-26 98v29q0 71 26 98t103 27zM446 1714h-30q-43 0 -53.5 -9t-10.5 -46v-39q0 -38 11 -47.5t53 -9.5h30q42 0 54 9.5t12 47.5v39q0 37 -11 46t-55 9zM72 1434h204v-1145
q0 -76 21.5 -98.5t79.5 -22.5h108q58 0 79.5 22.5t21.5 98.5v1145h205v-1139q0 -94 -16 -152t-56.5 -91.5t-99 -45.5t-154.5 -12h-68q-96 0 -154.5 12t-99 45.5t-56 91.5t-15.5 152v1139z" />
    <glyph glyph-name="uring" unicode="&#x16f;" horiz-adv-x="792" 
d="M264 1157v-901q0 -43 21 -66.5t61 -23.5h178v991h195v-1157q-266 -6 -342 -6h-66q-118 0 -179.5 54t-61.5 177v932h194zM377 1501h39q79 0 104 -26.5t25 -98.5v-28q0 -72 -25 -98.5t-104 -26.5h-39q-77 0 -103 27t-26 98v28q0 71 26 98t103 27zM412 1438h-31
q-43 0 -53.5 -9.5t-10.5 -46.5v-39q0 -38 11 -47.5t53 -9.5h31q42 0 53.5 9.5t11.5 47.5v39q0 37 -10.5 46.5t-54.5 9.5z" />
    <glyph glyph-name="Uhungarumlaut" unicode="&#x170;" horiz-adv-x="862" 
d="M72 1434h204v-1145q0 -76 21.5 -98.5t79.5 -22.5h108q58 0 79.5 22.5t21.5 98.5v1145h205v-1139q0 -94 -16 -152t-56.5 -91.5t-99 -45.5t-154.5 -12h-68q-96 0 -154.5 12t-99 45.5t-56 91.5t-15.5 152v1139zM258 1513l125 189h168l-162 -189h-131zM463 1513l125 189h198
l-192 -189h-131z" />
    <glyph glyph-name="uhungarumlaut" unicode="&#x171;" horiz-adv-x="792" 
d="M264 1157v-901q0 -43 21 -66.5t61 -23.5h178v991h195v-1157q-266 -6 -342 -6h-66q-118 0 -179.5 54t-61.5 177v932h194zM430 1237l125 188h199l-193 -188h-131zM225 1237l125 188h168l-162 -188h-131z" />
    <glyph glyph-name="Uogonek" unicode="&#x172;" horiz-adv-x="862" 
d="M72 1434h204v-1145q0 -76 21.5 -98.5t79.5 -22.5h108q58 0 79.5 22.5t21.5 98.5v1145h205v-1139q0 -115 -26.5 -178.5t-83.5 -90.5t-161 -30v-4l-102 -62q-9 -6 -23 -15t-17.5 -12t-9.5 -9t-7 -12t-1 -15v-14q0 -26 4.5 -34.5t26.5 -8.5h60q22 0 25 5t3 31v33h101v-31
q0 -69 -19.5 -99t-85.5 -30h-102q-70 0 -93.5 23.5t-23.5 85.5v25q0 32 9.5 51.5t21.5 28t45 28.5l65 33q-96 0 -154.5 12t-99 45.5t-56 91.5t-15.5 152v1139z" />
    <glyph glyph-name="uogonek" unicode="&#x173;" horiz-adv-x="792" 
d="M264 1157v-901q0 -43 21 -66.5t61 -23.5h178v991h195v-1157l-103 -61q-7 -5 -17 -11.5t-14 -9.5l-10 -7.5t-8 -7t-4.5 -7.5t-3 -9.5t-0.5 -11.5v-14q0 -26 4.5 -34.5t26.5 -8.5h59q12 0 17.5 0.5t8.5 7t3 10v19.5v32h100v-30q0 -69 -19 -99t-85 -30h-103q-70 0 -93 23
t-23 85v25q0 24 3.5 39.5t15.5 28.5t21 19t35 21q9 3 56 29q-160 -4 -209 -4h-66q-118 0 -179.5 54t-61.5 177v932h194z" />
    <glyph glyph-name="Wcircumflex" unicode="&#x174;" horiz-adv-x="1241" 
d="M393 1513l133 189h189l133 -189h-131l-96 107l-97 -107h-131zM18 1434h211l127 -1176h9l124 1176h265l123 -1176h8l129 1176h211l-164 -1434h-359l-75 961h-13l-73 -961h-359z" />
    <glyph glyph-name="wcircumflex" unicode="&#x175;" horiz-adv-x="1114" 
d="M330 1237l133 188h188l133 -188h-131l-96 106l-96 -106h-131zM633 0l-74 680h-6l-72 -680h-307l-166 1157h205l113 -901h10l108 901h226l108 -901h8l115 901h205l-166 -1157h-307z" />
    <glyph glyph-name="Ycircumflex" unicode="&#x176;" horiz-adv-x="843" 
d="M319 0v561l-305 873h205l201 -633l203 633h206l-305 -873v-561h-205zM195 1513l133 189h188l133 -189h-131l-96 107l-96 -107h-131z" />
    <glyph glyph-name="ycircumflex" unicode="&#x177;" horiz-adv-x="763" 
d="M213 10l-219 1147h211l162 -964h16l172 964h195l-258 -1415h-187l49 268h-141zM156 1237l133 188h188l133 -188h-131l-96 106l-96 -106h-131z" />
    <glyph glyph-name="Ydieresis" unicode="&#x178;" horiz-adv-x="843" 
d="M319 0v561l-305 873h205l201 -633l203 633h206l-305 -873v-561h-205zM233 1530v172h132v-172h-132zM479 1530v172h131v-172h-131z" />
    <glyph glyph-name="Zacute" unicode="&#x179;" horiz-adv-x="720" 
d="M266 1513l84 189h199l-152 -189h-131zM55 1257v177h625v-174l-426 -1086h426v-174h-639v176l446 1081h-432z" />
    <glyph glyph-name="zacute" unicode="&#x17a;" horiz-adv-x="684" 
d="M244 1237l84 188h198l-151 -188h-131zM655 172v-172h-626v166l405 819h-395v172h612v-172l-401 -813h405z" />
    <glyph glyph-name="Zdotaccent" unicode="&#x17b;" horiz-adv-x="720" 
d="M55 1257v177h625v-174l-426 -1086h426v-174h-639v176l446 1081h-432zM319 1542v162h127v-162h-127z" />
    <glyph glyph-name="zdotaccent" unicode="&#x17c;" horiz-adv-x="684" 
d="M655 172v-172h-626v166l405 819h-395v172h612v-172l-401 -813h405zM301 1266v161h127v-161h-127z" />
    <glyph glyph-name="Zcaron" unicode="&#x17d;" horiz-adv-x="720" 
d="M268 1513l-133 189h131l96 -107l97 107h131l-133 -189h-189zM55 1257v177h625v-174l-426 -1086h426v-174h-639v176l446 1081h-432z" />
    <glyph glyph-name="zcaron" unicode="&#x17e;" horiz-adv-x="684" 
d="M250 1237l-133 188h131l96 -106l96 106h131l-133 -188h-188zM655 172v-172h-626v166l405 819h-395v172h612v-172l-401 -813h405z" />
    <glyph glyph-name="Aringacute" unicode="&#x1fa;" horiz-adv-x="833" 
d="M397 1659h39q79 0 104 -26.5t25 -98.5v-29q0 -49 -10 -71h27l276 -1434h-205l-61 289h-350l-60 -289h-205l277 1434h22q-8 24 -8 71v29q0 71 26 98t103 27zM406 1272l-136 -789h293l-135 789h-22zM348 1702l84 188h199l-152 -188h-131zM432 1595h-31q-43 0 -53 -9
t-10 -46v-39q0 -38 10.5 -47.5t52.5 -9.5h31q42 0 54 10t12 47v39q0 37 -11 46t-55 9z" />
    <glyph glyph-name="aringacute" unicode="&#x1fb;" horiz-adv-x="774" 
d="M379 1163h37q116 0 177.5 -27t84 -81t22.5 -154v-891q-218 -16 -335 -16h-62q-118 0 -180 54t-62 177v279q0 122 62 175.5t180 53.5h203v170q0 34 -6 54.5t-21 29t-28 10.5t-39 2h-37q-27 0 -39 -1.5t-27.5 -9.5t-21.5 -27t-6 -52v-96h-181v88q0 76 11 122t41.5 79.5
t84.5 47t142 13.5zM256 502v-246q0 -90 74 -90h176v420h-176q-74 0 -74 -84zM334 1550l84 189h198l-151 -189h-131zM383 1497h39q79 0 104 -26.5t25 -98.5v-29q0 -72 -25 -98t-104 -26h-39q-77 0 -103 26.5t-26 97.5v29q0 71 26 98t103 27zM418 1434h-31q-42 0 -52.5 -9.5
t-10.5 -46.5v-39q0 -38 10.5 -47.5t52.5 -9.5h31q42 0 53.5 9.5t11.5 47.5v39q0 37 -10.5 46.5t-54.5 9.5z" />
    <glyph glyph-name="AEacute" unicode="&#x1fc;" horiz-adv-x="1288" 
d="M719 1513l84 189h198l-151 -189h-131zM647 0v309h-323l-99 -309h-202l473 1434h747v-174h-391v-439h360v-176h-360v-469h391v-176h-596zM616 1260l-239 -777h270v777h-31z" />
    <glyph glyph-name="aeacute" unicode="&#x1fd;" horiz-adv-x="1228" 
d="M565 1237l84 188h199l-152 -188h-131zM807 1163h61q116 0 179.5 -27t87.5 -81.5t24 -153.5v-422l-448 -4v-223q0 -60 23.5 -80t72.5 -20h82q49 0 72.5 20t23.5 80v113h174v-109q0 -97 -23.5 -151.5t-85.5 -82t-176 -28.5h-67q-119 0 -176.5 15.5t-81.5 70.5
q-5 -4 -24 -19.5t-32 -24t-34 -20t-44.5 -17t-49.5 -5.5h-62q-118 0 -180 54t-62 177v258q0 123 62 176.5t180 53.5h213v194q-1 57 -23.5 75.5t-66.5 18.5h-80q-39 -3 -57.5 -23.5t-18.5 -76.5v-88h-170v88q0 74 10.5 120t40 79.5t82 47.5t136.5 15h57q71 0 116.5 -14
t71.5 -53q27 39 74 53t119 14zM516 227v332h-178q-38 0 -60 -29.5t-22 -72.5v-201q0 -43 21 -66.5t61 -23.5h49q47 0 129 61zM807 1008q-47 0 -71.5 -18.5t-24.5 -71.5v-285h254v274q0 59 -24 80t-73 21h-61z" />
    <glyph glyph-name="Oslashacute" unicode="&#x1fe;" horiz-adv-x="862" 
d="M397 1440h68q110 0 174 -17l35 93h110l-55 -144q62 -65 62 -233v-844q0 -94 -16 -152t-56.5 -91.5t-99 -45.5t-154.5 -12h-68q-109 0 -180 18l-33 -86h-108l55 137q-59 64 -59 232v844q0 95 15.5 153t56 91.5t99 45t154.5 11.5zM276 1151v-774l289 856q-26 33 -104 33
h-60q-64 0 -94.5 -21t-30.5 -94zM401 168h60q64 0 94.5 21t30.5 94v749l-283 -839q25 -25 98 -25zM348 1513l84 189h199l-152 -189h-131z" />
    <glyph glyph-name="oslashacute" unicode="&#x1ff;" horiz-adv-x="792" 
d="M362 1163h70q67 0 125 -10l37 92h102l-55 -123q45 -30 63.5 -82.5t18.5 -138.5v-645q0 -146 -60.5 -204t-230.5 -58h-70q-91 0 -153 16l-37 -76h-100l55 121q-55 55 -55 201v645q0 100 23.5 154t86 81t180.5 27zM362 158h70q49 0 72.5 20.5t23.5 79.5l2 631l-245 -705
q18 -26 77 -26zM268 901l-2 -530l223 622q-21 8 -55 8h-69q-50 0 -73.5 -20t-23.5 -80zM328 1237l84 188h198l-151 -188h-131z" />
    <glyph glyph-name="Scommaaccent" unicode="&#x218;" horiz-adv-x="823" 
d="M342 -256v180h131v-160q0 -61 -17.5 -101t-62.5 -103l-55 28q8 17 19.5 39.5t14.5 29t7.5 21.5t5 28.5t0.5 37.5h-43zM387 1440h43q97 0 155.5 -11.5t99 -45.5t56 -91.5t15.5 -152.5v-187h-205v203q0 39 -7.5 62t-26 33.5t-36.5 13t-51 2.5h-43q-32 0 -50 -2.5t-36.5 -13
t-26.5 -34t-8 -61.5v-139q0 -39 6 -63.5t28.5 -42.5t39 -26t63.5 -26l15 -6l141 -49q41 -15 67 -27.5t55 -35t45.5 -50t27 -70.5t10.5 -98v-227q0 -94 -16 -152t-56.5 -91.5t-99 -45.5t-154.5 -12h-51q-97 0 -155.5 12t-99 46t-56 91.5t-15.5 151.5v188h205v-202
q0 -73 28 -93t93 -20h51q64 0 92.5 20t28.5 93v211q0 22 -2.5 38t-10 29t-13.5 21t-21.5 17t-23.5 13t-30.5 13t-33.5 14l-150 51q-44 18 -68.5 29.5t-56.5 34t-48 48.5t-28 68t-12 97v174q0 95 16 153t56.5 91.5t99 45t154.5 11.5z" />
    <glyph glyph-name="scommaaccent" unicode="&#x219;" horiz-adv-x="706" 
d="M281 -256v180h131v-160q0 -61 -17.5 -101t-62.5 -103l-56 28q8 18 19.5 39.5t15 29t7.5 22t5 28t1 37.5h-43zM338 1163h20q88 0 142.5 -13.5t85.5 -47t42 -80t11 -121.5v-92h-184v102q0 58 -22.5 73t-74.5 15h-20q-52 0 -74 -15t-22 -73v-92q0 -12 2 -22t4 -17.5t9 -14.5
t10.5 -11t15.5 -10.5t17.5 -9t23 -10.5t24.5 -11l137 -54q44 -17 70.5 -32t53 -40.5t38.5 -63.5t12 -91v-166q0 -75 -12 -123t-44.5 -82.5t-89 -49.5t-144.5 -15h-31q-118 0 -181 27t-86.5 81t-23.5 154v107h195v-115q0 -58 22.5 -74t73.5 -16h31q49 0 72.5 19.5t23.5 78.5
v141q0 18 -2.5 31.5t-10 25t-11.5 18t-19 15t-19 11t-24 11t-23 9.5l-135 55q-26 11 -34.5 14.5t-31 14t-30.5 17.5t-24.5 20.5t-23 27.5t-15.5 34t-12 44.5t-3 53.5v100q0 100 23.5 154t86.5 81t181 27z" />
    <glyph glyph-name="circumflex" unicode="&#x2c6;" horiz-adv-x="1024" 
d="M285 1237l133 188h188l133 -188h-131l-96 106l-96 -106h-131z" />
    <glyph glyph-name="caron" unicode="&#x2c7;" horiz-adv-x="1024" 
d="M418 1237l-133 188h131l96 -106l96 106h131l-133 -188h-188z" />
    <glyph glyph-name="breve" unicode="&#x2d8;" horiz-adv-x="1024" 
d="M551 1233h-78q-104 0 -141 37t-37 139v23h119v-35q0 -38 16.5 -52t46.5 -14h70q30 0 46.5 14t16.5 52v35h117v-23q0 -102 -37 -139t-139 -37z" />
    <glyph glyph-name="dotaccent" unicode="&#x2d9;" horiz-adv-x="1024" 
d="M449 1266v161h126v-161h-126z" />
    <glyph glyph-name="ring" unicode="&#x2da;" horiz-adv-x="1024" 
d="M492 1501h38q79 0 104 -26.5t25 -98.5v-28q0 -72 -25 -98.5t-104 -26.5h-38q-77 0 -103.5 27t-26.5 98v28q0 71 26.5 98t103.5 27zM526 1438h-30q-43 0 -53.5 -9.5t-10.5 -46.5v-39q0 -38 11 -47.5t53 -9.5h30q42 0 54 10t12 47v39q0 37 -11 46.5t-55 9.5z" />
    <glyph glyph-name="ogonek" unicode="&#x2db;" horiz-adv-x="1024" 
d="M678 -125v-31q0 -69 -19.5 -99t-85.5 -30h-102q-70 0 -93.5 23.5t-23.5 85.5v24q0 32 9.5 51.5t21.5 29t45 28.5q10 4 31 14.5t37 19.5l16 9h104v-12l-102 -62q-8 -6 -19.5 -13.5t-15.5 -10t-10 -7.5t-7.5 -9t-3 -9.5t-1.5 -13.5v-15q0 -19 1 -26t7.5 -12t21.5 -5h60
q12 0 17.5 0.5t8.5 7t3 10v19.5v33h100z" />
    <glyph glyph-name="tilde" unicode="&#x2dc;" horiz-adv-x="1024" 
d="M604 1247l-198 103l-7 -99h-88l4 172h91l198 -71l6 69h88l-4 -174h-90z" />
    <glyph glyph-name="hungarumlaut" unicode="&#x2dd;" horiz-adv-x="1024" 
d="M299 1237l125 188h168l-162 -188h-131zM504 1237l125 188h198l-192 -188h-131z" />
    <glyph glyph-name="Wgrave" unicode="&#x1e80;" horiz-adv-x="1241" 
d="M18 1434h211l127 -1176h9l124 1176h265l123 -1176h8l129 1176h211l-164 -1434h-359l-75 961h-13l-73 -961h-359zM606 1702l82 -189h-131l-149 189h198z" />
    <glyph glyph-name="wgrave" unicode="&#x1e81;" horiz-adv-x="1114" 
d="M633 0l-74 680h-6l-72 -680h-307l-166 1157h205l113 -901h10l108 901h226l108 -901h8l115 901h205l-166 -1157h-307zM555 1425l82 -188h-131l-150 188h199z" />
    <glyph glyph-name="Wacute" unicode="&#x1e82;" horiz-adv-x="1241" 
d="M551 1513l84 189h199l-152 -189h-131zM18 1434h211l127 -1176h9l124 1176h265l123 -1176h8l129 1176h211l-164 -1434h-359l-75 961h-13l-73 -961h-359z" />
    <glyph glyph-name="wacute" unicode="&#x1e83;" horiz-adv-x="1114" 
d="M487 1237l84 188h199l-152 -188h-131zM633 0l-74 680h-6l-72 -680h-307l-166 1157h205l113 -901h10l108 901h226l108 -901h8l115 901h205l-166 -1157h-307z" />
    <glyph glyph-name="Wdieresis" unicode="&#x1e84;" horiz-adv-x="1241" 
d="M436 1530v172h131v-172h-131zM682 1530v172h131v-172h-131zM18 1434h211l127 -1176h9l124 1176h265l123 -1176h8l129 1176h211l-164 -1434h-359l-75 961h-13l-73 -961h-359z" />
    <glyph glyph-name="wdieresis" unicode="&#x1e85;" horiz-adv-x="1114" 
d="M373 1253v172h131v-172h-131zM618 1253v172h132v-172h-132zM633 0l-74 680h-6l-72 -680h-307l-166 1157h205l113 -901h10l108 901h226l108 -901h8l115 901h205l-166 -1157h-307z" />
    <glyph glyph-name="Ygrave" unicode="&#x1ef2;" horiz-adv-x="843" 
d="M319 0v561l-305 873h205l201 -633l203 633h206l-305 -873v-561h-205zM420 1702l82 -189h-131l-150 189h199z" />
    <glyph glyph-name="ygrave" unicode="&#x1ef3;" horiz-adv-x="763" 
d="M213 10l-219 1147h211l162 -964h16l172 964h195l-258 -1415h-187l49 268h-141zM379 1425l82 -188h-131l-150 188h199z" />
    <glyph glyph-name="endash" unicode="&#x2013;" horiz-adv-x="806" 
d="M31 545v139h745v-139h-745z" />
    <glyph glyph-name="emdash" unicode="&#x2014;" horiz-adv-x="1155" 
d="M31 545v139h1093v-139h-1093z" />
    <glyph glyph-name="quoteleft" unicode="&#x2018;" horiz-adv-x="333" 
d="M254 1206v-250h-178v199q0 89 24.5 144t87.5 135l60 -43q-41 -67 -51.5 -99t-10.5 -86h68z" />
    <glyph glyph-name="quoteright" unicode="&#x2019;" horiz-adv-x="333" 
d="M80 1186v250h178v-199q0 -89 -24.5 -143.5t-88.5 -135.5l-59 43q41 66 51 98t10 87h-67z" />
    <glyph glyph-name="quotesinglbase" unicode="&#x201a;" horiz-adv-x="333" 
d="M80 0v250h178v-199q0 -88 -24.5 -142.5t-88.5 -135.5l-59 43q41 66 51 97.5t10 86.5h-67z" />
    <glyph glyph-name="quotedblleft" unicode="&#x201c;" horiz-adv-x="595" 
d="M254 1206v-250h-178v199q0 89 24.5 144t87.5 135l60 -43q-41 -67 -51.5 -99t-10.5 -86h68zM514 1206v-250h-178v199q0 89 24.5 143.5t88.5 135.5l59 -43q-41 -67 -51.5 -99t-10.5 -86h68z" />
    <glyph glyph-name="quotedblright" unicode="&#x201d;" horiz-adv-x="595" 
d="M80 1186v250h178v-199q0 -89 -24.5 -143.5t-88.5 -135.5l-59 43q41 66 51 98t10 87h-67zM340 1186v250h178v-199q0 -89 -24.5 -144t-87.5 -135l-60 43q41 67 51.5 99t10.5 86h-68z" />
    <glyph glyph-name="quotedblbase" unicode="&#x201e;" horiz-adv-x="595" 
d="M80 0v250h178v-199q0 -88 -24.5 -142.5t-88.5 -135.5l-59 43q41 66 51 97.5t10 86.5h-67zM340 0v250h178v-199q0 -89 -24 -143.5t-88 -134.5l-60 43q41 67 51.5 98.5t10.5 85.5h-68z" />
    <glyph glyph-name="dagger" unicode="&#x2020;" horiz-adv-x="681" 
d="M324 1159l-33 160v115h102v-115l-33 -160h-36zM547 1165h115v-104h-115l-160 33v39zM295 1094l-160 -33h-115v104h115l160 -32v-39zM324 535l-33 290l33 242h36l33 -242l-33 -290h-36z" />
    <glyph glyph-name="daggerdbl" unicode="&#x2021;" horiz-adv-x="681" 
d="M324 668l-33 198l33 201h36l33 -199l-33 -200h-36zM135 1165l160 -32v-39l-160 -33h-115v104h115zM291 299v115l33 159h36l33 -159v-115h-102zM662 1061h-115l-160 33v39l160 32h115v-104zM135 672l160 -33v-37l-160 -33h-115v103h115zM324 1159l-33 160v115h102v-115
l-33 -160h-36zM387 639l160 33h115v-103h-115l-160 33v37z" />
    <glyph glyph-name="bullet" unicode="&#x2022;" horiz-adv-x="540" 
d="M250 956h45q53 0 82 -6.5t44.5 -27.5t19 -46t3.5 -75v-152q0 -49 -3.5 -74t-19 -45.5t-44.5 -27t-82 -6.5h-45q-54 0 -84.5 6.5t-46 27t-19.5 45.5t-4 74v152q0 50 4 75.5t19.5 46t46 27t84.5 6.5z" />
    <glyph glyph-name="ellipsis" unicode="&#x2026;" horiz-adv-x="999" 
d="M78 0v250h178v-250h-178zM412 0v250h176v-250h-176zM743 0v250h179v-250h-179z" />
    <glyph glyph-name="perthousand" unicode="&#x2030;" horiz-adv-x="1814" 
d="M303 0l553 1434h123l-553 -1434h-123zM266 1438h78q104 0 146 -43t42 -146v-415q0 -104 -41.5 -147.5t-146.5 -43.5h-78q-105 0 -146.5 43.5t-41.5 147.5v415q0 103 42 146t146 43zM338 1339h-66q-36 0 -53.5 -16t-17.5 -59v-445q0 -43 17.5 -59.5t53.5 -16.5h66
q36 0 54 16.5t18 59.5v445q0 43 -17.5 59t-54.5 16zM948 791h78q104 0 146 -43t42 -146v-416q0 -104 -42 -148t-146 -44h-78q-104 0 -146 44t-42 148v416q0 103 42 146t146 43zM1020 692h-66q-36 0 -53.5 -16.5t-17.5 -59.5v-444q0 -43 17.5 -59.5t53.5 -16.5h66
q36 0 54 16.5t18 59.5v444q0 43 -18 59.5t-54 16.5zM1470 791h78q105 0 147 -43.5t42 -145.5v-416q0 -104 -42 -148t-147 -44h-78q-104 0 -146 44t-42 148v416q0 103 42 146t146 43zM1542 692h-65q-36 0 -54 -16.5t-18 -59.5v-444q0 -43 18 -59.5t54 -16.5h65q36 0 54 16.5
t18 59.5v444q0 43 -18 59.5t-54 16.5z" />
    <glyph glyph-name="guilsinglleft" unicode="&#x2039;" horiz-adv-x="385" 
d="M217 227l-194 346v23l194 348h131l-160 -348v-23l160 -346h-131z" />
    <glyph glyph-name="guilsinglright" unicode="&#x203a;" horiz-adv-x="385" 
d="M360 573l-194 -346h-131l160 346v23l-160 348h131l194 -348v-23z" />
    <glyph glyph-name="fraction" unicode="&#x2044;" horiz-adv-x="473" 
d="M-59 0l467 1434h122l-467 -1434h-122z" />
    <glyph glyph-name="Euro" unicode="&#x20ac;" horiz-adv-x="858" 
d="M430 1274q-61 0 -91 -25.5t-30 -99.5v-250h408v-119h-408v-86h408v-119h-408v-290q0 -74 30 -99.5t91 -25.5h74q62 0 91.5 25.5t29.5 99.5v178h192v-168q0 -94 -15.5 -151.5t-55.5 -91.5t-98.5 -46t-155.5 -12h-62q-96 0 -154.5 12t-99 45.5t-56.5 91.5t-16 152v280h-81
v119h81v86h-81v119h81v240q0 95 16 153t56.5 91.5t99 45t154.5 11.5h57q96 0 154.5 -11.5t99 -45t56.5 -91.5t16 -153v-117h-192v127q0 74 -30 99.5t-91 25.5h-70z" />
    <glyph glyph-name="afii61352" unicode="&#x2116;" horiz-adv-x="1675" 
d="M1245 1440h70q116 0 179.5 -27t87.5 -81.5t24 -153.5v-639q0 -99 -24 -154t-87.5 -82t-179.5 -27h-70q-89 0 -145 14t-89 47t-45 80t-12 122v639q0 100 23.5 154t86.5 81t181 27zM1245 453h70q49 0 72.5 20t23.5 80v610q0 60 -23.5 80.5t-72.5 20.5h-70
q-49 0 -72.5 -20.5t-23.5 -80.5v-610q0 -60 23.5 -80t72.5 -20zM954 0v174h652v-174h-652zM80 1434h217l305 -920h2v920h201v-1434h-223l-287 891h-10v-891h-205v1434z" />
    <glyph glyph-name="trademark" unicode="&#x2122;" horiz-adv-x="995" 
d="M532 1245l5 -528h-101v717h160l84 -502h6l84 502h160v-717h-101l7 528h-5l-102 -528h-92l-100 528h-5zM25 1343v91h370v-91h-133v-626h-104v626h-133z" />
    <glyph glyph-name="arrowleft" unicode="&#x2190;" horiz-adv-x="819" 
d="M332 248l-266 346v22l266 349l86 -76l-170 -225h516v-117h-516l170 -223z" />
    <glyph glyph-name="arrowup" unicode="&#x2191;" horiz-adv-x="819" 
d="M422 952l346 -266l-76 -86l-223 170v-516h-117v516l-225 -170l-76 86l348 266h23z" />
    <glyph glyph-name="arrowright" unicode="&#x2192;" horiz-adv-x="819" 
d="M762 594l-266 -346l-86 76l170 223h-517v117h517l-170 225l86 76l266 -349v-22z" />
    <glyph glyph-name="arrowdown" unicode="&#x2193;" horiz-adv-x="819" 
d="M768 518l-346 -266h-23l-348 266l76 86l225 -170v516h117v-516l223 170z" />
    <glyph glyph-name="uni2196" unicode="&#x2196;" horiz-adv-x="819" 
d="M172 858l432 57l8 -114l-278 -37l364 -367l-82 -82l-364 365l-41 -279l-113 7l58 436z" />
    <glyph glyph-name="uni2197" unicode="&#x2197;" horiz-adv-x="819" 
d="M209 915l432 -57l16 -14l58 -436l-113 -7l-41 279l-364 -365l-82 82l364 367l-278 37z" />
    <glyph glyph-name="uni2198" unicode="&#x2198;" horiz-adv-x="819" 
d="M641 356l-432 -57l-8 115l278 37l-364 366l82 82l364 -364l41 278l113 -6l-58 -436z" />
    <glyph glyph-name="uni2199" unicode="&#x2199;" horiz-adv-x="819" 
d="M604 299l-432 57l-16 15l-58 436l113 6l41 -278l364 364l82 -82l-364 -366l278 -37z" />
    <glyph glyph-name="minus" unicode="&#x2212;" horiz-adv-x="686" 
d="M43 668v135h602v-135h-602z" />
    <glyph glyph-name="commaaccent" unicode="&#xf6c3;" horiz-adv-x="1024" 
d="M453 -31v181h131v-160q0 -61 -17.5 -101.5t-62.5 -103.5l-55 29q8 17 19.5 39.5t14.5 29t7.5 21t5 28t0.5 37.5h-43z" />
    <glyph glyph-name="abreve.alt" 
d="M313 1163h68l342 -6v-1157q-242 -6 -348 -6h-62q-118 0 -179.5 54t-61.5 177v709q0 123 61.5 176t179.5 53zM348 166h180v827h-180q-39 0 -60.5 -24t-21.5 -66v-647q0 -43 21 -66.5t61 -23.5zM453 1233h-78q-104 0 -141 37t-37 139v23h118v-35q0 -38 17 -52t47 -14h70
q30 0 46.5 14t16.5 52v35h117v-23q0 -102 -37 -139t-139 -37z" />
    <glyph glyph-name="guilsinglleft.case" horiz-adv-x="385" 
d="M217 371l-194 346v22l194 348h131l-160 -348v-22l160 -346h-131z" />
    <glyph glyph-name="gcommaaccent.alt" horiz-adv-x="815" 
d="M367 1163h424v-100l-103 -27q45 -45 45 -135v-336q0 -99 -23.5 -152.5t-86.5 -80.5t-181 -27h-75q-55 0 -84 10q-23 -2 -41.5 -14t-18.5 -37q0 -26 11 -34.5t55 -8.5h211q63 0 101 -2.5t70 -12.5t47 -24.5t26 -44t13.5 -64.5t2.5 -93v-11q0 -99 -24 -153.5t-87.5 -81.5
t-179.5 -27h-201q-174 0 -225 54t-4 188q13 37 39.5 80t50.5 67q-58 11 -74 44.5t-16 103.5q0 76 94 118q-57 54 -57 203v336q0 84 11.5 133t46 79t87.5 40t146 10zM367 479h75q49 0 73 21t24 80v309q0 60 -23.5 80t-73.5 20h-75q-50 0 -73.5 -20t-23.5 -80v-309
q0 -59 24 -80t73 -21zM258 -125h221q49 0 72.5 20t23.5 80v25q0 45 -11.5 62.5t-53.5 17.5h-244q-33 -39 -43 -103q-14 -65 -10 -83.5t45 -18.5zM483 1425v-180h-131v160q0 61 17.5 101.5t62.5 103.5l55 -29q-8 -17 -19.5 -39.5t-14.5 -29t-7.5 -21.5t-5 -28.5t-0.5 -37.5
h43z" />
    <glyph glyph-name="gdotaccent.alt" horiz-adv-x="815" 
d="M367 1163h424v-100l-103 -27q45 -45 45 -135v-336q0 -99 -23.5 -152.5t-86.5 -80.5t-181 -27h-75q-55 0 -84 10q-23 -2 -41.5 -14t-18.5 -37q0 -26 11 -34.5t55 -8.5h211q63 0 101 -2.5t70 -12.5t47 -24.5t26 -44t13.5 -64.5t2.5 -93v-11q0 -99 -24 -153.5t-87.5 -81.5
t-179.5 -27h-201q-174 0 -225 54t-4 188q13 37 39.5 80t50.5 67q-58 11 -74 44.5t-16 103.5q0 76 94 118q-57 54 -57 203v336q0 84 11.5 133t46 79t87.5 40t146 10zM367 479h75q49 0 73 21t24 80v309q0 60 -23.5 80t-73.5 20h-75q-50 0 -73.5 -20t-23.5 -80v-309
q0 -59 24 -80t73 -21zM258 -125h221q49 0 72.5 20t23.5 80v25q0 45 -11.5 62.5t-53.5 17.5h-244q-33 -39 -43 -103q-14 -65 -10 -83.5t45 -18.5zM356 1266v161h127v-161h-127z" />
    <glyph glyph-name="g.alt" horiz-adv-x="815" 
d="M367 1163h424v-100l-103 -27q45 -45 45 -135v-336q0 -99 -23.5 -152.5t-86.5 -80.5t-181 -27h-75q-55 0 -84 10q-23 -2 -41.5 -14t-18.5 -37q0 -26 11 -34.5t55 -8.5h211q63 0 101 -2.5t70 -12.5t47 -24.5t26 -44t13.5 -64.5t2.5 -93v-11q0 -99 -24 -153.5t-87.5 -81.5
t-179.5 -27h-201q-174 0 -225 54t-4 188q13 37 39.5 80t50.5 67q-58 11 -74 44.5t-16 103.5q0 76 94 118q-57 54 -57 203v336q0 84 11.5 133t46 79t87.5 40t146 10zM367 479h75q49 0 73 21t24 80v309q0 60 -23.5 80t-73.5 20h-75q-50 0 -73.5 -20t-23.5 -80v-309
q0 -59 24 -80t73 -21zM258 -125h221q49 0 72.5 20t23.5 80v25q0 45 -11.5 62.5t-53.5 17.5h-244q-33 -39 -43 -103q-14 -65 -10 -83.5t45 -18.5z" />
    <glyph glyph-name="yacute.alt" 
d="M322 1237l84 188h198l-151 -188h-131zM723 -20q-3 -148 -61 -195t-230 -47h-57q-88 0 -142.5 14.5t-85.5 51.5t-42 89t-11 138v30h180v-71q0 -55 20 -71.5t66 -16.5h80q47 0 67 17t21 73v117h-215q-118 0 -179.5 53t-61.5 176v819h194v-788q0 -43 21 -66.5t61 -23.5h180
v878h195v-1177z" />
    <glyph glyph-name="gbreve.alt" horiz-adv-x="815" 
d="M367 1163h424v-100l-103 -27q45 -45 45 -135v-336q0 -99 -23.5 -152.5t-86.5 -80.5t-181 -27h-75q-55 0 -84 10q-23 -2 -41.5 -14t-18.5 -37q0 -26 11 -34.5t55 -8.5h211q63 0 101 -2.5t70 -12.5t47 -24.5t26 -44t13.5 -64.5t2.5 -93v-11q0 -99 -24 -153.5t-87.5 -81.5
t-179.5 -27h-201q-174 0 -225 54t-4 188q13 37 39.5 80t50.5 67q-58 11 -74 44.5t-16 103.5q0 76 94 118q-57 54 -57 203v336q0 84 11.5 133t46 79t87.5 40t146 10zM367 479h75q49 0 73 21t24 80v309q0 60 -23.5 80t-73.5 20h-75q-50 0 -73.5 -20t-23.5 -80v-309
q0 -59 24 -80t73 -21zM258 -125h221q49 0 72.5 20t23.5 80v25q0 45 -11.5 62.5t-53.5 17.5h-244q-33 -39 -43 -103q-14 -65 -10 -83.5t45 -18.5zM463 1233h-78q-104 0 -141 37t-37 139v23h119v-35q0 -38 16.5 -52t46.5 -14h70q30 0 46.5 14t16.5 52v35h117v-23
q0 -102 -37 -139t-139 -37z" />
    <glyph glyph-name="y.alt" 
d="M723 -20q-3 -148 -61 -195t-230 -47h-57q-88 0 -142.5 14.5t-85.5 51.5t-42 89t-11 138v30h180v-71q0 -55 20 -71.5t66 -16.5h80q47 0 67 17t21 73v117h-215q-118 0 -179.5 53t-61.5 176v819h194v-788q0 -43 21 -66.5t61 -23.5h180v878h195v-1177z" />
    <glyph glyph-name="ydieresis.alt" 
d="M211 1253v172h131v-172h-131zM457 1253v172h131v-172h-131zM723 -20q-3 -148 -61 -195t-230 -47h-57q-88 0 -142.5 14.5t-85.5 51.5t-42 89t-11 138v30h180v-71q0 -55 20 -71.5t66 -16.5h80q47 0 67 17t21 73v117h-215q-118 0 -179.5 53t-61.5 176v819h194v-788
q0 -43 21 -66.5t61 -23.5h180v878h195v-1177z" />
    <glyph glyph-name="ycircumflex.alt" 
d="M172 1237l133 188h189l133 -188h-131l-97 106l-96 -106h-131zM723 -20q-3 -148 -61 -195t-230 -47h-57q-88 0 -142.5 14.5t-85.5 51.5t-42 89t-11 138v30h180v-71q0 -55 20 -71.5t66 -16.5h80q47 0 67 17t21 73v117h-215q-118 0 -179.5 53t-61.5 176v819h194v-788
q0 -43 21 -66.5t61 -23.5h180v878h195v-1177z" />
    <glyph glyph-name="ygrave.alt" 
d="M723 -20q-3 -148 -61 -195t-230 -47h-57q-88 0 -142.5 14.5t-85.5 51.5t-42 89t-11 138v30h180v-71q0 -55 20 -71.5t66 -16.5h80q47 0 67 17t21 73v117h-215q-118 0 -179.5 53t-61.5 176v819h194v-788q0 -43 21 -66.5t61 -23.5h180v878h195v-1177zM397 1425l82 -188h-131
l-149 188h198z" />
    <glyph glyph-name="RB" horiz-adv-x="1843" 
d="M922 1446q197 0 365 -98t266 -266t98 -365t-98 -365t-266 -266t-365 -98t-365 98t-266 266t-98 365t98 365t266 266t365 98zM860 494l-100 133q64 15 113 64t63 112q20 76 -20 130t-117 54h-185l-125 -493h371zM1323 864q13 46 -15.5 82t-78.5 41h-221l-121 -493h256
q56 0 106 39t62 94q12 48 -12.5 83.5t-75.5 41.5q37 13 64 43.5t36 68.5z" />
    <glyph glyph-name="registered.alt" horiz-adv-x="1073" 
d="M381 1434h311q145 0 226 -70t81 -219v-854q0 -151 -81 -221t-226 -70h-311q-143 0 -224 71t-81 220v854q0 149 80.5 219t224.5 70zM381 33h311q271 0 271 258v854q0 258 -271 258h-311q-268 0 -268 -258v-854q0 -130 69 -194t199 -64zM293 184v1061h285
q134 0 179.5 -40.5t45.5 -164.5v-196q0 -92 -22 -125.5t-89 -40.5q66 -10 88.5 -47t22.5 -129v-318h-152v332q0 58 -21.5 78t-62.5 20h-123v-430h-151zM444 1112v-371h134q36 0 54.5 15.5t18.5 60.5v219q0 46 -17.5 61t-55.5 15h-134z" />
    <glyph glyph-name="published" horiz-adv-x="1073" 
d="M381 1434h311q145 0 226 -70t81 -219v-854q0 -151 -81 -221t-226 -70h-311q-143 0 -224 71t-81 220v854q0 149 80.5 219t224.5 70zM381 33h311q271 0 271 258v854q0 258 -271 258h-311q-268 0 -268 -258v-854q0 -130 69 -194t199 -64zM305 184v1061h285q133 0 179 -41
t46 -164v-268q0 -124 -46.5 -165.5t-178.5 -41.5h-133v-381h-152zM457 1112v-416h133q36 0 55 15.5t19 62.5v262q0 46 -18 61t-56 15h-133z" />
    <glyph glyph-name="parenleft.case" horiz-adv-x="425" 
d="M254 1286v-1147q0 -58 5 -85.5t20 -59.5q8 -18 45.5 -63.5t42.5 -53.5l-80 -76q-31 21 -75 62.5t-69 73.5q-63 75 -63 202v1147q0 126 63 201q25 32 69 72.5t75 62.5l78 -76q-5 -7 -41.5 -52.5t-44.5 -63.5q-14 -31 -19.5 -59t-5.5 -85z" />
    <glyph glyph-name="parenright.case" horiz-adv-x="425" 
d="M172 139v1147q0 57 -5.5 85t-19.5 59q-8 18 -44.5 63.5t-41.5 52.5l78 76q31 -22 75 -62.5t69 -72.5q63 -75 63 -201v-1147q0 -127 -63 -202q-25 -32 -69 -73.5t-75 -62.5l-80 76q5 8 42.5 53.5t45.5 63.5q15 32 20 59.5t5 85.5z" />
    <glyph glyph-name="hyphen.case" horiz-adv-x="585" 
d="M43 651v160h500v-160h-500z" />
    <glyph glyph-name="bracketleft.case" horiz-adv-x="532" 
d="M258 1423v-1394h256v-148h-430v1690h430v-148h-256z" />
    <glyph glyph-name="bracketright.case" horiz-adv-x="532" 
d="M274 29v1394h-256v148h431v-1690h-431v148h256z" />
    <glyph glyph-name="braceleft.case" horiz-adv-x="485" 
d="M16 668v104q2 1 18.5 10t31.5 20t32.5 28.5t28 45t10.5 60.5v350q0 121 64 201q24 31 68 71.5t75 63.5l70 -55q-6 -10 -37.5 -55t-40.5 -62q-25 -54 -25 -164v-350q0 -135 -118 -217q118 -82 118 -215v-365q0 -112 25 -166q9 -16 40 -60t38 -56l-70 -56q-29 21 -73.5 63
t-69.5 73q-64 80 -64 202v365q0 16 -3 31t-7 27t-11.5 23.5t-13.5 20t-16 17t-15.5 13.5t-16.5 11.5t-15 8.5t-13 7z" />
    <glyph glyph-name="bar.case" horiz-adv-x="483" 
d="M166 -143v1699h153v-1699h-153z" />
    <glyph glyph-name="braceright.case" horiz-adv-x="485" 
d="M467 772v-104l-9 -5l-14 -7t-15 -8.5t-16.5 -11.5t-15.5 -13.5t-16 -17t-13.5 -20t-11.5 -23.5t-7 -27t-3 -31v-365q0 -123 -63 -202q-25 -31 -70 -73t-74 -63l-69 56q7 12 37.5 56t39.5 60q25 54 25 166v365q0 132 119 215q-119 83 -119 217v350q0 110 -25 164
q-9 17 -40 62t-37 55l69 55q32 -23 76 -63.5t68 -71.5q63 -79 63 -201v-350q0 -33 10.5 -60.5t28 -45t32.5 -28.5t31.5 -20t18.5 -10z" />
    <glyph glyph-name="gcircumflex.alt" horiz-adv-x="815" 
d="M367 1163h424v-100l-103 -27q45 -45 45 -135v-336q0 -99 -23.5 -152.5t-86.5 -80.5t-181 -27h-75q-55 0 -84 10q-23 -2 -41.5 -14t-18.5 -37q0 -26 11 -34.5t55 -8.5h211q63 0 101 -2.5t70 -12.5t47 -24.5t26 -44t13.5 -64.5t2.5 -93v-11q0 -99 -24 -153.5t-87.5 -81.5
t-179.5 -27h-201q-174 0 -225 54t-4 188q13 37 39.5 80t50.5 67q-58 11 -74 44.5t-16 103.5q0 76 94 118q-57 54 -57 203v336q0 84 11.5 133t46 79t87.5 40t146 10zM367 479h75q49 0 73 21t24 80v309q0 60 -23.5 80t-73.5 20h-75q-50 0 -73.5 -20t-23.5 -80v-309
q0 -59 24 -80t73 -21zM258 -125h221q49 0 72.5 20t23.5 80v25q0 45 -11.5 62.5t-53.5 17.5h-244q-33 -39 -43 -103q-14 -65 -10 -83.5t45 -18.5zM199 1237l133 188h188l133 -188h-131l-96 106l-96 -106h-131z" />
    <glyph glyph-name="guilsinglright.case" horiz-adv-x="385" 
d="M360 717l-194 -346h-131l160 346v22l-160 348h131l194 -348v-22z" />
    <glyph glyph-name="guillemotleft.case" horiz-adv-x="626" 
d="M451 371l-175 346v22l175 348h139l-150 -348v-22l150 -346h-139zM23 717v22l194 348h131l-160 -348v-22l160 -346h-131z" />
    <glyph glyph-name="guillemotright.case" horiz-adv-x="626" 
d="M350 717l-174 -346h-139l149 346v22l-149 348h139l174 -348v-22zM604 739v-22l-194 -346h-131l159 346v22l-159 348h131z" />
    <glyph glyph-name="endash.case" horiz-adv-x="806" 
d="M31 657v140h745v-140h-745z" />
    <glyph glyph-name="emdash.case" horiz-adv-x="1155" 
d="M31 657v140h1093v-140h-1093z" />
    <glyph glyph-name="bullet.case" horiz-adv-x="540" 
d="M250 956h45q53 0 82 -6.5t44.5 -27.5t19 -46t3.5 -75v-152q0 -49 -3.5 -74t-19 -45.5t-44.5 -27t-82 -6.5h-45q-54 0 -84.5 6.5t-46 27t-19.5 45.5t-4 74v152q0 50 4 75.5t19.5 46t46 27t84.5 6.5z" />
    <glyph glyph-name="periodcentered.case" horiz-adv-x="360" 
d="M92 606v250h176v-250h-176z" />
    <glyph glyph-name="germandbls.case" horiz-adv-x="1607" 
d="M387 1440h43q97 0 155.5 -11.5t99 -45.5t56 -91.5t15.5 -152.5v-187h-205v203q0 39 -7.5 62t-26 33.5t-36.5 13t-51 2.5h-43q-32 0 -50 -2.5t-36.5 -13t-26.5 -34t-8 -61.5v-139q0 -39 6 -63.5t28.5 -42.5t39 -26t63.5 -26l15 -6l141 -49q41 -15 67 -27.5t55 -35
t45.5 -50t27 -70.5t10.5 -98v-227q0 -94 -16 -152t-56.5 -91.5t-99 -45.5t-154.5 -12h-51q-97 0 -155.5 12t-99 46t-56 91.5t-15.5 151.5v188h205v-202q0 -73 28 -93t93 -20h51q64 0 92.5 20t28.5 93v211q0 22 -2.5 38t-10 29t-13.5 21t-21.5 17t-23.5 13t-30.5 13t-33.5 14
l-150 51q-44 18 -68.5 29.5t-56.5 34t-48 48.5t-28 68t-12 97v174q0 95 16 153t56.5 91.5t99 45t154.5 11.5zM1171 1440h43q97 0 155.5 -11.5t99 -45.5t56 -91.5t15.5 -152.5v-187h-205v203q0 39 -7.5 62t-26 33.5t-36.5 13t-51 2.5h-43q-32 0 -50 -2.5t-36.5 -13t-26 -34
t-7.5 -61.5v-139q0 -73 27.5 -100.5t109.5 -58.5q9 -3 14 -5l141 -49q41 -15 67 -27.5t55 -35t45.5 -50t27 -70.5t10.5 -98v-227q0 -94 -15.5 -152t-56 -91.5t-99 -45.5t-154.5 -12h-52q-97 0 -155.5 12t-98.5 46t-55.5 91.5t-15.5 151.5v188h205v-202q0 -73 27.5 -93
t92.5 -20h52q64 0 92 20t28 93v211q0 22 -2.5 38t-10 29t-13.5 21t-21.5 17t-23.5 13t-30.5 13t-33.5 14l-149 51q-44 18 -68.5 29.5t-56.5 34t-48 48.5t-28 68t-12 97v174q0 95 15.5 153t56 91.5t99 45t154.5 11.5z" />
    <glyph glyph-name="i.dot" horiz-adv-x="344" 
d="M76 0v1157h194v-1157h-194zM86 1266v161h172v-161h-172z" />
    <glyph glyph-name="caron.alt" horiz-adv-x="1024" 
d="M463 1343v168h110v-149q0 -39 -12 -72.5t-24 -51.5t-43 -58l-48 22q10 20 22.5 41t18 30.5t9.5 27t4 42.5h-37z" />
    <glyph glyph-name="aring.alt" 
d="M313 1163h68l342 -6v-1157q-242 -6 -348 -6h-62q-118 0 -179.5 54t-61.5 177v709q0 123 61.5 176t179.5 53zM348 166h180v827h-180q-39 0 -60.5 -24t-21.5 -66v-647q0 -43 21 -66.5t61 -23.5zM375 1501h39q79 0 104 -26.5t25 -98.5v-28q0 -72 -25 -98.5t-104 -26.5h-39
q-77 0 -103 27t-26 98v28q0 71 26 98t103 27zM410 1438h-31q-43 0 -53.5 -9.5t-10.5 -46.5v-39q0 -38 11 -47.5t53 -9.5h31q42 0 53.5 9.5t11.5 47.5v39q0 37 -10.5 46.5t-54.5 9.5z" />
    <glyph glyph-name="atilde.alt" 
d="M313 1163h68l342 -6v-1157q-242 -6 -348 -6h-62q-118 0 -179.5 54t-61.5 177v709q0 123 61.5 176t179.5 53zM348 166h180v827h-180q-39 0 -60.5 -24t-21.5 -66v-647q0 -43 21 -66.5t61 -23.5zM492 1247l-199 103l-6 -99h-88l4 172h90l199 -71l6 69h88l-4 -174h-90z" />
    <glyph glyph-name="aringacute.alt" 
d="M313 1163h68l342 -6v-1157q-242 -6 -348 -6h-62q-118 0 -179.5 54t-61.5 177v709q0 123 61.5 176t179.5 53zM348 166h180v827h-180q-39 0 -60.5 -24t-21.5 -66v-647q0 -43 21 -66.5t61 -23.5zM383 1501h39q79 0 104 -26.5t25 -98.5v-28q0 -72 -25 -98.5t-104 -26.5h-39
q-77 0 -103 27t-26 98v28q0 71 26 98t103 27zM330 1565l84 188h198l-151 -188h-131zM418 1438h-31q-42 0 -52.5 -9.5t-10.5 -46.5v-39q0 -38 10.5 -47.5t52.5 -9.5h31q42 0 53.5 9.5t11.5 47.5v39q0 37 -10.5 46.5t-54.5 9.5z" />
    <glyph glyph-name="aogonek.alt" 
d="M723 -84v-31q0 -69 -19.5 -99t-85.5 -30h-102q-70 0 -93.5 23.5t-23.5 85.5v24q0 44 14 63t54 42h-92h-62q-118 0 -179.5 54t-61.5 177v709q0 123 61.5 176t179.5 53h68l342 -6v-1157q-54 -2 -113 -2l-49 -31q-8 -6 -19.5 -13.5t-15.5 -10t-10 -7.5t-7.5 -9t-3 -9.5
t-1.5 -13.5v-15q0 -26 4.5 -34.5t26.5 -8.5h59q12 0 17.5 0.5t8.5 7t3 10v19.5v33h100zM348 166h180v827h-180q-39 0 -60.5 -24t-21.5 -66v-647q0 -43 21 -66.5t61 -23.5z" />
    <glyph glyph-name="idotaccent" horiz-adv-x="344" 
d="M76 0v1157h194v-1157h-194zM72 1262v153h200v-153h-200z" />
    <glyph glyph-name="aacute.alt" 
d="M313 1163h68l342 -6v-1157q-242 -6 -348 -6h-62q-118 0 -179.5 54t-61.5 177v709q0 123 61.5 176t179.5 53zM348 166h180v827h-180q-39 0 -60.5 -24t-21.5 -66v-647q0 -43 21 -66.5t61 -23.5zM319 1237l84 188h199l-151 -188h-132z" />
    <glyph glyph-name="a.alt" 
d="M313 1163h68l342 -6v-1157q-242 -6 -348 -6h-62q-118 0 -179.5 54t-61.5 177v709q0 123 61.5 176t179.5 53zM348 166h180v827h-180q-39 0 -60.5 -24t-21.5 -66v-647q0 -43 21 -66.5t61 -23.5z" />
    <glyph glyph-name="acircumflex.alt" 
d="M313 1163h68l342 -6v-1157q-242 -6 -348 -6h-62q-118 0 -179.5 54t-61.5 177v709q0 123 61.5 176t179.5 53zM348 166h180v827h-180q-39 0 -60.5 -24t-21.5 -66v-647q0 -43 21 -66.5t61 -23.5zM172 1237l133 188h189l133 -188h-131l-97 106l-96 -106h-131z" />
    <glyph glyph-name="adieresis.alt" 
d="M313 1163h68l342 -6v-1157q-242 -6 -348 -6h-62q-118 0 -179.5 54t-61.5 177v709q0 123 61.5 176t179.5 53zM348 166h180v827h-180q-39 0 -60.5 -24t-21.5 -66v-647q0 -43 21 -66.5t61 -23.5zM219 1253v172h131v-172h-131zM465 1253v172h131v-172h-131z" />
    <glyph glyph-name="agrave.alt" 
d="M313 1163h68l342 -6v-1157q-242 -6 -348 -6h-62q-118 0 -179.5 54t-61.5 177v709q0 123 61.5 176t179.5 53zM348 166h180v827h-180q-39 0 -60.5 -24t-21.5 -66v-647q0 -43 21 -66.5t61 -23.5zM434 1425l82 -188h-131l-149 188h198z" />
    <glyph glyph-name="amacron.alt" 
d="M313 1163h68l342 -6v-1157q-242 -6 -348 -6h-62q-118 0 -179.5 54t-61.5 177v709q0 123 61.5 176t179.5 53zM348 166h180v827h-180q-39 0 -60.5 -24t-21.5 -66v-647q0 -43 21 -66.5t61 -23.5zM190 1274v115h422v-115h-422z" />
    </font>
</defs>
</svg>
